<?xml version="1.0" encoding="utf-8" standalone="no"?>
<!DOCTYPE svg PUBLIC "-//W3C//DTD SVG 1.1//EN"
  "http://www.w3.org/Graphics/SVG/1.1/DTD/svg11.dtd">
<svg xmlns:xlink="http://www.w3.org/1999/xlink" width="432pt" height="288pt" viewBox="0 0 432 288" xmlns="http://www.w3.org/2000/svg" version="1.1">
 <metadata>
  <rdf:RDF xmlns:dc="http://purl.org/dc/elements/1.1/" xmlns:cc="http://creativecommons.org/ns#" xmlns:rdf="http://www.w3.org/1999/02/22-rdf-syntax-ns#">
   <cc:Work>
    <dc:type rdf:resource="http://purl.org/dc/dcmitype/StillImage"/>
    <dc:date>2022-06-18T11:57:12.336298</dc:date>
    <dc:format>image/svg+xml</dc:format>
    <dc:creator>
     <cc:Agent>
      <dc:title>Matplotlib v3.5.1, https://matplotlib.org/</dc:title>
     </cc:Agent>
    </dc:creator>
   </cc:Work>
  </rdf:RDF>
 </metadata>
 <defs>
  <style type="text/css">*{stroke-linejoin: round; stroke-linecap: butt}</style>
 </defs>
 <g id="figure_1">
  <g id="patch_1">
   <path d="M 0 288 
L 432 288 
L 432 0 
L 0 0 
z
" style="fill: #ffffff"/>
  </g>
  <g id="axes_1">
   <g id="line2d_1">
    <path d="M 360.9 165.024 
L 360.624729 164.963416 
L 359.800001 164.582567 
L 357.540388 163.618149 
L 355.360969 162.605513 
L 349.42677 160.832914 
L 347.623374 160.161442 
L 334.257871 156.512704 
L 331.626624 155.685324 
L 326.040494 154.256483 
L 320.041396 152.611886 
L 316.894321 151.850673 
L 310.320647 149.872673 
L 299.810631 147.167402 
L 296.147838 146.154374 
L 292.411277 145.308089 
L 288.604638 144.222818 
L 280.796211 142.267289 
L 272.753375 140.125859 
L 268.65394 139.346811 
L 264.507871 138.255463 
L 260.319259 137.297844 
L 256.092239 136.50579 
L 251.830982 135.547978 
L 247.539693 134.821568 
L 243.222608 133.800234 
L 230.159277 131.433209 
L 225.781801 131.003642 
L 221.4 130.377669 
L 217.018199 129.97181 
L 212.640723 129.454309 
L 199.577392 128.531455 
L 195.260307 128.241887 
L 178.292129 127.939306 
L 174.14606 128.270367 
L 170.046625 128.35531 
L 165.997869 128.622891 
L 162.003789 128.694792 
L 158.068325 129.09688 
L 154.195362 129.374065 
L 150.388723 129.762894 
L 146.652162 130.256586 
L 139.403957 131.555989 
L 135.899466 132.421928 
L 132.479353 133.128728 
L 129.146995 134.152684 
L 125.905679 134.985372 
L 116.759506 138.044725 
L 108.542129 141.52558 
L 103.616254 143.962559 
L 99.155218 146.563594 
L 95.176626 149.181733 
L 91.69618 151.8398 
L 90.147133 153.1646 
L 87.439031 156.047325 
L 84.370929 159.933649 
L 82.999999 161.937264 
L 82.175271 163.582817 
L 81.968835 164.340736 
L 81.968835 165.668148 
L 82.175271 166.192084 
L 82.519106 166.698116 
L 82.999999 167.189049 
L 83.617476 167.610524 
L 84.370929 167.964722 
L 85.259612 168.220831 
L 86.282649 168.294979 
L 87.439031 168.117108 
L 93.37323 166.515365 
L 99.155218 164.950608 
L 111.173376 161.464656 
L 116.759506 160.176347 
L 125.905679 158.417489 
L 135.899466 156.797942 
L 146.652162 155.189423 
L 150.388723 154.836799 
L 158.068325 153.985346 
L 174.14606 152.812916 
L 186.707761 152.331797 
L 203.916014 152.341049 
L 225.781801 153.333848 
L 234.52811 153.750853 
L 238.883986 153.935774 
L 243.222608 154.316362 
L 251.830982 154.793106 
L 268.65394 156.084422 
L 292.411277 158.079202 
L 328.886597 161.560578 
L 334.257871 162.193103 
L 339.183746 162.968201 
L 351.10382 164.288189 
L 355.360969 164.657009 
L 359.800001 164.918991 
L 360.9 165.024 
L 360.9 165.024 
" clip-path="url(#p88dfdeb0ef)" style="fill: none; stroke: #000000; stroke-width: 1.5; stroke-linecap: round"/>
   </g>
   <g id="legend_1"/>
  </g>
 </g>
 <defs>
  <clipPath id="p88dfdeb0ef">
   <rect x="54" y="34.56" width="334.8" height="217.44"/>
  </clipPath>
 </defs>
</svg>
