<?xml version="1.0" encoding="utf-8" standalone="no"?>
<!DOCTYPE svg PUBLIC "-//W3C//DTD SVG 1.1//EN"
  "http://www.w3.org/Graphics/SVG/1.1/DTD/svg11.dtd">
<svg xmlns:xlink="http://www.w3.org/1999/xlink" width="432pt" height="288pt" viewBox="0 0 432 288" xmlns="http://www.w3.org/2000/svg" version="1.1">
 <metadata>
  <rdf:RDF xmlns:dc="http://purl.org/dc/elements/1.1/" xmlns:cc="http://creativecommons.org/ns#" xmlns:rdf="http://www.w3.org/1999/02/22-rdf-syntax-ns#">
   <cc:Work>
    <dc:type rdf:resource="http://purl.org/dc/dcmitype/StillImage"/>
    <dc:date>2022-06-18T11:38:37.498871</dc:date>
    <dc:format>image/svg+xml</dc:format>
    <dc:creator>
     <cc:Agent>
      <dc:title>Matplotlib v3.5.1, https://matplotlib.org/</dc:title>
     </cc:Agent>
    </dc:creator>
   </cc:Work>
  </rdf:RDF>
 </metadata>
 <defs>
  <style type="text/css">*{stroke-linejoin: round; stroke-linecap: butt}</style>
 </defs>
 <g id="figure_1">
  <g id="patch_1">
   <path d="M 0 288 
L 432 288 
L 432 0 
L 0 0 
z
" style="fill: #ffffff"/>
  </g>
  <g id="axes_1">
   <g id="line2d_1">
    <path d="M 360.9 165.024 
L 359.182524 164.184172 
L 352.652867 161.287192 
L 345.69541 158.45461 
L 343.644782 157.547443 
L 341.473513 156.878353 
L 339.183746 155.854372 
L 323.091124 149.905446 
L 303.396043 143.305517 
L 284.731675 137.689437 
L 280.796211 136.676764 
L 276.802131 135.392806 
L 272.753375 134.320661 
L 268.65394 133.485837 
L 260.319259 131.356794 
L 243.222608 127.783946 
L 238.883986 126.99566 
L 234.52811 126.080776 
L 225.781801 124.928675 
L 221.4 124.342717 
L 217.018199 123.999418 
L 212.640723 123.446733 
L 195.260307 122.627913 
L 178.292129 122.744981 
L 174.14606 123.144315 
L 165.997869 123.704828 
L 162.003789 124.028848 
L 150.388723 125.720651 
L 146.652162 126.35602 
L 139.403957 127.894498 
L 135.899466 128.916202 
L 132.479353 129.689901 
L 122.758604 132.832741 
L 116.759506 135.09784 
L 108.542129 138.751629 
L 103.616254 141.353384 
L 99.155218 144.094863 
L 95.176626 146.899193 
L 91.69618 149.744745 
L 88.727616 152.527923 
L 86.282649 155.26006 
L 84.370929 157.943804 
L 82.999999 160.512846 
L 82.175271 162.890627 
L 81.968835 164.002175 
L 81.968835 166.015254 
L 82.175271 166.999408 
L 82.519106 168.006204 
L 82.999999 169.031122 
L 83.617476 170.039281 
L 84.370929 171.012913 
L 85.259612 171.949678 
L 86.282649 172.828656 
L 87.439031 173.633729 
L 88.727616 174.36683 
L 90.147133 175.038876 
L 93.37323 176.20092 
L 97.10459 177.135296 
L 101.326487 177.915366 
L 106.02226 178.575037 
L 111.173376 179.024972 
L 116.759506 179.330905 
L 129.146995 179.623571 
L 135.899466 179.71676 
L 142.989369 179.687707 
L 165.997869 178.673401 
L 178.292129 177.646494 
L 182.480741 177.374179 
L 186.707761 176.971676 
L 190.969018 176.702009 
L 208.27189 175.072292 
L 217.018199 174.345499 
L 221.4 173.817334 
L 276.802131 168.683807 
L 323.091124 165.067558 
L 334.257871 164.616269 
L 341.473513 164.580124 
L 343.644782 164.466811 
L 345.69541 164.580906 
L 349.42677 164.613667 
L 356.517351 164.831837 
L 359.182524 164.922245 
L 360.9 165.024 
L 360.9 165.024 
" clip-path="url(#p72df39e0ed)" style="fill: none; stroke: #000000; stroke-width: 1.5; stroke-linecap: round"/>
   </g>
   <g id="legend_1"/>
  </g>
 </g>
 <defs>
  <clipPath id="p72df39e0ed">
   <rect x="54" y="34.56" width="334.8" height="217.44"/>
  </clipPath>
 </defs>
</svg>
