<?xml version="1.0" encoding="utf-8" standalone="no"?>
<!DOCTYPE svg PUBLIC "-//W3C//DTD SVG 1.1//EN"
  "http://www.w3.org/Graphics/SVG/1.1/DTD/svg11.dtd">
<svg xmlns:xlink="http://www.w3.org/1999/xlink" width="720pt" height="720pt" viewBox="0 0 720 720" xmlns="http://www.w3.org/2000/svg" version="1.1">
 <metadata>
  <rdf:RDF xmlns:dc="http://purl.org/dc/elements/1.1/" xmlns:cc="http://creativecommons.org/ns#" xmlns:rdf="http://www.w3.org/1999/02/22-rdf-syntax-ns#">
   <cc:Work>
    <dc:type rdf:resource="http://purl.org/dc/dcmitype/StillImage"/>
    <dc:date>2022-06-18T12:08:40.260772</dc:date>
    <dc:format>image/svg+xml</dc:format>
    <dc:creator>
     <cc:Agent>
      <dc:title>Matplotlib v3.5.1, https://matplotlib.org/</dc:title>
     </cc:Agent>
    </dc:creator>
   </cc:Work>
  </rdf:RDF>
 </metadata>
 <defs>
  <style type="text/css">*{stroke-linejoin: round; stroke-linecap: butt}</style>
 </defs>
 <g id="figure_1">
  <g id="patch_1">
   <path d="M 0 720 
L 720 720 
L 720 0 
L 0 0 
z
" style="fill: #ffffff"/>
  </g>
  <g id="axes_1">
   <g id="line2d_1">
    <path d="M 152.378049 126.17561 
L 152.028968 125.690727 
L 150.701802 124.070925 
L 145.292783 118.159894 
L 142.775001 115.750358 
L 140.690253 113.886909 
L 137.683869 111.361024 
L 134.462068 108.998603 
L 129.337336 106.089543 
L 127.578046 105.24055 
L 125.804731 104.521097 
L 121.356075 103.401672 
L 117.839231 103.053034 
L 113.586712 103.156405 
L 111.152099 103.571232 
L 108.83174 104.267837 
L 106.646233 105.472352 
L 105.951088 105.892422 
L 103.975326 107.547058 
L 102.177521 109.507174 
L 100.57363 111.587008 
L 99.17789 113.935273 
L 98.002689 116.396995 
L 97.058459 119.051754 
L 96.172953 122.532435 
L 95.726681 125.11446 
L 95.684723 126.6667 
L 95.894309 127.989091 
L 96.35358 129.084288 
L 96.796551 129.557838 
L 97.661825 129.952058 
L 98.369233 130.082838 
L 99.17789 130.086807 
L 102.177521 129.876427 
L 104.614975 129.275723 
L 109.591204 128.072697 
L 111.95199 127.430223 
L 120.470735 125.124755 
L 125.804731 124.340287 
L 130.209549 123.97909 
L 133.62885 123.888761 
L 138.457577 124.046273 
L 142.097692 124.435365 
L 145.87126 125.077854 
L 150.386955 126.152624 
L 151.487266 126.1907 
L 152.378049 126.17561 
L 152.378049 126.17561 
" clip-path="url(#pb303602e3f)" style="fill: none; stroke: #000000; stroke-width: 1.5; stroke-linecap: round"/>
   </g>
   <g id="legend_1"/>
  </g>
  <g id="axes_2">
   <g id="line2d_2">
    <path d="M 234.036585 126.17561 
L 233.534364 125.584395 
L 232.648859 124.578705 
L 231.704628 123.644815 
L 230.088112 122.02501 
L 227.529796 119.624979 
L 223.756229 116.411346 
L 219.342406 113.095257 
L 215.287386 110.531009 
L 213.593345 109.519368 
L 208.351242 107.126439 
L 206.573537 106.62361 
L 204.792317 106.186679 
L 203.014612 105.831283 
L 199.497768 105.580637 
L 196.078468 105.789422 
L 193.610526 106.147901 
L 190.490277 107.122618 
L 188.30477 108.316657 
L 186.932316 109.248655 
L 185.633863 110.284665 
L 183.836057 112.070063 
L 182.232167 113.952567 
L 180.836426 116.000267 
L 179.661226 118.078843 
L 178.716995 120.284654 
L 177.83149 123.126544 
L 177.385218 125.254763 
L 177.343259 126.590789 
L 177.552845 127.66857 
L 178.012116 128.583802 
L 178.455088 128.969185 
L 179.320362 129.248651 
L 180.419632 129.282218 
L 183.836057 128.687097 
L 192.023448 126.271452 
L 200.369981 124.205001 
L 203.902586 123.788864 
L 210.995873 123.47467 
L 215.287386 123.614448 
L 220.116113 123.970538 
L 225.092342 124.608109 
L 227.529796 125.012825 
L 232.910766 126.104092 
L 234.036585 126.17561 
L 234.036585 126.17561 
" clip-path="url(#p1cf44b1657)" style="fill: none; stroke: #000000; stroke-width: 1.5; stroke-linecap: round"/>
   </g>
   <g id="legend_2"/>
  </g>
  <g id="axes_3">
   <g id="line2d_3">
    <path d="M 315.695122 126.17561 
L 315.012274 125.472435 
L 314.307395 124.786047 
L 313.363165 123.989382 
L 312.187964 122.953277 
L 310.280055 121.466 
L 308.010391 119.741367 
L 302.534113 115.965273 
L 295.251882 111.796613 
L 290.009778 109.557336 
L 288.232073 109.072087 
L 286.450853 108.652777 
L 284.673148 108.325824 
L 281.156304 108.100354 
L 277.737004 108.357344 
L 275.269063 108.752705 
L 272.148813 109.721041 
L 269.963306 110.841557 
L 268.590853 111.70295 
L 267.292399 112.636815 
L 265.494594 114.224445 
L 263.890703 115.895079 
L 262.494963 117.682297 
L 261.319762 119.472025 
L 260.375532 121.323758 
L 259.490026 123.667384 
L 259.043754 125.398262 
L 259.001796 126.527557 
L 259.211382 127.445967 
L 259.670653 128.228107 
L 260.113624 128.490601 
L 260.978898 128.538758 
L 262.078169 128.355282 
L 271.404343 125.638545 
L 274.469172 124.945165 
L 280.290195 123.874088 
L 284.673148 123.490402 
L 290.895119 123.365859 
L 292.654409 123.442743 
L 296.945923 123.645185 
L 301.000943 123.930259 
L 304.007326 124.209628 
L 310.280055 125.129543 
L 312.996621 125.75136 
L 315.695122 126.17561 
L 315.695122 126.17561 
" clip-path="url(#p67eda6b70f)" style="fill: none; stroke: #000000; stroke-width: 1.5; stroke-linecap: round"/>
   </g>
   <g id="legend_3"/>
  </g>
  <g id="axes_4">
   <g id="line2d_4">
    <path d="M 397.353659 126.17561 
L 396.227839 125.227923 
L 387.073302 119.551645 
L 380.260596 115.972343 
L 376.910419 114.451142 
L 370.780341 112.176235 
L 365.446344 111.186198 
L 363.687054 111.001811 
L 360.238238 110.976726 
L 354.566814 111.891685 
L 353.06288 112.395831 
L 350.926698 113.318254 
L 347.731607 115.318267 
L 345.54924 117.216697 
L 344.1535 118.761152 
L 342.978299 120.352126 
L 342.034068 121.98874 
L 340.995422 124.486351 
L 340.702291 125.542769 
L 340.660332 126.45968 
L 340.869919 127.19524 
L 341.148563 127.627493 
L 341.537124 127.891209 
L 342.034068 127.842898 
L 343.344843 127.417364 
L 348.950936 125.332066 
L 352.334138 124.583959 
L 356.127708 123.932717 
L 361.948732 123.305839 
L 366.331685 123.205357 
L 376.051268 123.544074 
L 386.378157 124.41406 
L 392.939786 125.453127 
L 395.965932 125.989285 
L 397.353659 126.17561 
L 397.353659 126.17561 
" clip-path="url(#pd6b0a3675d)" style="fill: none; stroke: #000000; stroke-width: 1.5; stroke-linecap: round"/>
   </g>
   <g id="legend_4"/>
  </g>
  <g id="axes_5">
   <g id="line2d_5">
    <path d="M 479.012195 126.17561 
L 477.886376 125.455903 
L 476.313694 124.656852 
L 465.851187 119.857874 
L 462.730937 118.573128 
L 461.096214 117.870895 
L 457.709805 116.646221 
L 453.326852 115.155611 
L 451.549147 114.73228 
L 448.878196 114.150165 
L 445.345591 113.671399 
L 441.896774 113.480312 
L 439.397941 113.629362 
L 437.786245 113.74621 
L 436.22535 113.938774 
L 434.721416 114.287035 
L 433.280379 114.735895 
L 431.907926 115.270823 
L 430.609472 115.86043 
L 428.811667 116.927549 
L 427.207776 118.090939 
L 425.812036 119.41362 
L 424.636835 120.83123 
L 423.692605 122.322782 
L 422.653959 124.668557 
L 422.318869 125.916529 
L 422.360828 126.620122 
L 422.653959 127.140829 
L 422.987726 127.355136 
L 423.430697 127.287473 
L 426.253351 125.838587 
L 428.254751 124.942783 
L 429.989609 124.4343 
L 432.585234 123.890683 
L 436.999057 123.211211 
L 441.054077 122.880884 
L 446.223047 122.78747 
L 448.878196 122.928335 
L 453.326852 123.198721 
L 456.843696 123.432144 
L 465.851187 124.237532 
L 473.597128 125.297592 
L 476.313694 125.834335 
L 479.012195 126.17561 
L 479.012195 126.17561 
" clip-path="url(#p2d1cd45236)" style="fill: none; stroke: #000000; stroke-width: 1.5; stroke-linecap: round"/>
   </g>
   <g id="legend_5"/>
  </g>
  <g id="axes_6">
   <g id="line2d_6">
    <path d="M 560.670732 126.17561 
L 560.321651 125.993181 
L 558.994485 125.330567 
L 557.97223 124.900601 
L 542.754751 119.64417 
L 541.078836 119.113531 
L 538.502232 118.307661 
L 536.752563 117.776337 
L 534.097414 117.010949 
L 531.426463 116.49686 
L 529.648758 116.171072 
L 526.131914 115.740282 
L 521.879395 115.59644 
L 517.124423 115.949551 
L 514.243771 116.666516 
L 511.04868 117.990122 
L 508.377287 119.633864 
L 506.661916 121.156397 
L 505.639661 122.375056 
L 504.854197 123.734441 
L 504.089249 125.443856 
L 503.963415 126.28024 
L 504.089249 126.742229 
L 504.312495 127.02142 
L 504.646263 127.155261 
L 505.089234 126.990419 
L 506.295372 126.147264 
L 509.378482 124.472893 
L 511.04868 123.879542 
L 514.243771 123.236794 
L 518.657594 122.606691 
L 521.879395 122.414583 
L 525.265805 122.403671 
L 529.648758 122.702694 
L 539.368341 123.759339 
L 551.067684 125.008356 
L 555.255665 125.456464 
L 557.97223 125.889952 
L 560.670732 126.17561 
L 560.670732 126.17561 
" clip-path="url(#pfbe11b51a7)" style="fill: none; stroke: #000000; stroke-width: 1.5; stroke-linecap: round"/>
   </g>
   <g id="legend_6"/>
  </g>
  <g id="axes_7">
   <g id="line2d_7">
    <path d="M 642.329268 126.17561 
L 642.105691 126.037405 
L 640.338175 125.243429 
L 638.82211 124.71442 
L 638.380795 124.701214 
L 637.42637 124.409637 
L 635.244003 123.861507 
L 630.641472 122.606387 
L 626.847901 121.63818 
L 623.580069 120.74105 
L 621.026878 120.032429 
L 616.643925 118.883591 
L 613.97561 118.395671 
L 605.213847 117.463258 
L 603.537932 117.544628 
L 598.78296 117.927279 
L 595.224999 118.841804 
L 593.926546 119.277144 
L 591.037018 120.541588 
L 589.570424 121.370821 
L 588.320452 122.21945 
L 587.298198 123.134906 
L 586.512734 124.188526 
L 585.747786 125.554633 
L 585.621951 126.260988 
L 585.747786 126.669348 
L 585.971032 126.923303 
L 586.304799 127.032524 
L 586.74777 126.846721 
L 587.953908 125.946917 
L 590.52485 124.388771 
L 592.12874 123.6717 
L 593.926546 123.158158 
L 597.309747 122.513868 
L 600.316131 122.081676 
L 602.715014 121.945134 
L 604.37115 121.913143 
L 606.924342 121.995684 
L 611.307295 122.50481 
L 616.643925 123.397066 
L 629.16826 125.185356 
L 634.024674 125.539321 
L 637.42637 125.798383 
L 639.997311 126.051945 
L 642.329268 126.17561 
L 642.329268 126.17561 
" clip-path="url(#p7b7671d0ed)" style="fill: none; stroke: #000000; stroke-width: 1.5; stroke-linecap: round"/>
   </g>
   <g id="legend_7"/>
  </g>
  <g id="axes_8">
   <g id="line2d_8">
    <path d="M 152.378049 205.726829 
L 151.875828 205.092495 
L 150.701802 203.807347 
L 144.073454 197.191173 
L 139.21704 193.1427 
L 134.462068 189.654815 
L 133.62885 189.2037 
L 131.934809 188.109261 
L 126.692705 185.541475 
L 124.02439 184.707916 
L 119.588901 183.858002 
L 117.839231 183.72879 
L 113.586712 183.810787 
L 111.152099 184.210166 
L 108.83174 184.896474 
L 106.646233 186.05761 
L 105.951088 186.438222 
L 103.975326 187.985428 
L 102.177521 189.831904 
L 100.57363 191.762901 
L 99.17789 193.978051 
L 98.002689 196.307025 
L 97.058459 198.793974 
L 96.172953 202.072718 
L 95.796566 204.019626 
L 95.670732 205.971038 
L 95.796566 207.215666 
L 96.172953 208.547477 
L 96.561514 209.227904 
L 97.058459 209.641461 
L 98.002689 210.030024 
L 99.17789 210.166732 
L 101.620605 210.170782 
L 103.975326 209.904628 
L 112.763795 208.467588 
L 115.262628 207.862936 
L 122.244049 206.590834 
L 127.578046 205.866209 
L 130.209549 205.668606 
L 133.62885 205.456834 
L 144.693318 205.464422 
L 150.046092 205.845521 
L 151.25223 205.843439 
L 152.378049 205.726829 
L 152.378049 205.726829 
" clip-path="url(#p8aa5e71e68)" style="fill: none; stroke: #000000; stroke-width: 1.5; stroke-linecap: round"/>
   </g>
   <g id="legend_8"/>
  </g>
  <g id="axes_9">
   <g id="line2d_9">
    <path d="M 234.036585 205.726829 
L 233.353737 204.981947 
L 232.360339 204.032079 
L 225.731991 198.240946 
L 218.555218 193.126562 
L 213.593345 190.25938 
L 208.351242 187.995438 
L 205.682927 187.285384 
L 201.247437 186.618835 
L 199.497768 186.55534 
L 195.245249 186.780247 
L 192.810635 187.205328 
L 190.490277 187.864327 
L 187.609625 189.305432 
L 185.013999 191.242408 
L 183.836057 192.347683 
L 182.232167 194.049731 
L 180.836426 195.948712 
L 179.661226 197.894641 
L 178.716995 199.95889 
L 177.83149 202.663703 
L 177.385218 204.782516 
L 177.343259 206.150323 
L 177.552845 207.312455 
L 178.012116 208.320892 
L 178.455088 208.770677 
L 179.320362 209.145153 
L 180.419632 209.310158 
L 183.836057 209.058401 
L 189.017064 208.092133 
L 200.369981 205.724866 
L 205.682927 205.168529 
L 210.995873 204.917816 
L 218.555218 205.048365 
L 224.433538 205.295159 
L 229.133687 205.585323 
L 232.910766 205.77429 
L 234.036585 205.726829 
L 234.036585 205.726829 
" clip-path="url(#pa2d0bc73e8)" style="fill: none; stroke: #000000; stroke-width: 1.5; stroke-linecap: round"/>
   </g>
   <g id="legend_9"/>
  </g>
  <g id="axes_10">
   <g id="line2d_10">
    <path d="M 315.695122 205.726829 
L 314.569303 204.620495 
L 308.010391 199.770931 
L 302.534113 196.32669 
L 295.251882 192.510654 
L 289.121804 190.220098 
L 283.787808 189.345627 
L 282.028518 189.192528 
L 278.579701 189.254895 
L 276.903786 189.492408 
L 273.681984 190.10005 
L 272.148813 190.547399 
L 269.268161 191.868875 
L 266.672536 193.599367 
L 265.494594 194.565544 
L 263.890703 196.056923 
L 262.494963 197.692017 
L 261.319762 199.33852 
L 260.375532 201.045135 
L 259.490026 203.236497 
L 259.043754 204.94784 
L 259.001796 206.075745 
L 259.211382 207.025235 
L 259.670653 207.863108 
L 260.113624 208.207545 
L 260.978898 208.418538 
L 262.078169 208.430792 
L 265.494594 207.880522 
L 269.963306 206.931085 
L 276.080868 205.816461 
L 279.431045 205.237893 
L 282.028518 204.904352 
L 287.341463 204.609191 
L 294.392732 204.616287 
L 315.695122 205.726829 
L 315.695122 205.726829 
" clip-path="url(#pe20da4e79c)" style="fill: none; stroke: #000000; stroke-width: 1.5; stroke-linecap: round"/>
   </g>
   <g id="legend_10"/>
  </g>
  <g id="axes_11">
   <g id="line2d_11">
    <path d="M 397.353659 205.726829 
L 395.965932 204.630347 
L 394.263295 203.557981 
L 392.939786 202.773502 
L 389.049064 200.661839 
L 379.437678 196.074451 
L 377.761762 195.425531 
L 375.185159 194.482496 
L 372.553656 193.588422 
L 370.780341 193.032105 
L 364.564511 192.049518 
L 362.814841 191.953755 
L 358.562322 192.049832 
L 355.340521 192.455775 
L 353.80735 192.796926 
L 350.926698 193.8528 
L 347.731607 195.660183 
L 345.060214 197.830901 
L 343.344843 199.764803 
L 342.322588 201.235618 
L 341.537124 202.773473 
L 340.869919 204.424623 
L 340.660332 205.42928 
L 340.702291 206.26073 
L 340.995422 207.014272 
L 341.329189 207.439846 
L 341.772161 207.658263 
L 342.637435 207.662179 
L 343.736705 207.516149 
L 350.926698 205.882518 
L 356.927599 204.96475 
L 362.814841 204.369667 
L 365.446344 204.243591 
L 372.553656 204.294705 
L 375.185159 204.414079 
L 381.072401 204.739797 
L 386.378157 205.075728 
L 397.353659 205.726829 
L 397.353659 205.726829 
" clip-path="url(#pb0b938cbe7)" style="fill: none; stroke: #000000; stroke-width: 1.5; stroke-linecap: round"/>
   </g>
   <g id="legend_11"/>
  </g>
  <g id="axes_12">
   <g id="line2d_12">
    <path d="M 479.012195 205.726829 
L 477.624468 204.87756 
L 475.921831 204.070225 
L 474.598322 203.482686 
L 467.324399 200.536613 
L 456.843696 196.889383 
L 455.094026 196.340505 
L 450.658537 195.218025 
L 444.473378 194.391246 
L 438.586136 194.307129 
L 434.721416 194.882289 
L 433.280379 195.301777 
L 432.585234 195.480755 
L 429.390143 196.938592 
L 426.718751 198.745017 
L 425.003379 200.430104 
L 423.981125 201.737592 
L 423.19566 203.134641 
L 422.430713 204.929391 
L 422.304878 205.83703 
L 422.430713 206.35852 
L 422.807099 206.881039 
L 423.19566 207.081936 
L 423.692605 207.038219 
L 427.207776 206.182727 
L 429.989609 205.505741 
L 432.585234 205.059288 
L 438.586136 204.278853 
L 445.345591 203.814359 
L 450.658537 203.924543 
L 457.709805 204.262609 
L 479.012195 205.726829 
L 479.012195 205.726829 
" clip-path="url(#p21b5ab383e)" style="fill: none; stroke: #000000; stroke-width: 1.5; stroke-linecap: round"/>
   </g>
   <g id="legend_12"/>
  </g>
  <g id="axes_13">
   <g id="line2d_13">
    <path d="M 560.670732 205.726829 
L 560.16851 205.465921 
L 558.994485 204.903834 
L 557.580368 204.384016 
L 557.163574 204.206161 
L 556.722259 204.145624 
L 555.767833 203.78668 
L 553.585466 203.102725 
L 550.390375 202.053403 
L 545.976552 200.797213 
L 538.502232 198.640948 
L 536.752563 198.170028 
L 532.317073 197.183979 
L 525.265805 196.352242 
L 522.712614 196.263595 
L 520.244673 196.250005 
L 516.379953 196.752811 
L 514.938916 197.117388 
L 513.566462 197.518734 
L 512.268009 197.976913 
L 509.913288 199.092819 
L 508.377287 199.985455 
L 506.661916 201.357981 
L 505.639661 202.425215 
L 504.854197 203.580744 
L 504.089249 205.077363 
L 503.963415 205.816262 
L 504.089249 206.250478 
L 504.465636 206.668067 
L 504.854197 206.798713 
L 505.639661 206.602402 
L 509.913288 205.426923 
L 512.907658 204.796854 
L 520.244673 203.927046 
L 525.265805 203.615889 
L 533.207683 203.901132 
L 549.69523 205.082193 
L 560.670732 205.726829 
L 560.670732 205.726829 
" clip-path="url(#p435aef0cca)" style="fill: none; stroke: #000000; stroke-width: 1.5; stroke-linecap: round"/>
   </g>
   <g id="legend_13"/>
  </g>
  <g id="axes_14">
   <g id="line2d_14">
    <path d="M 642.329268 205.726829 
L 642.105691 205.607441 
L 639.997311 204.801083 
L 637.42637 204.110318 
L 635.822479 203.740531 
L 630.641472 202.427365 
L 626.04801 201.400909 
L 624.413288 200.921253 
L 622.737372 200.560553 
L 620.160769 199.979856 
L 618.411099 199.595256 
L 613.97561 198.777414 
L 610.421954 198.346021 
L 607.790451 198.093169 
L 601.903209 198.007518 
L 598.03849 198.53197 
L 595.902308 199.005918 
L 591.571824 200.579897 
L 590.035824 201.295307 
L 587.953908 202.615699 
L 587.009678 203.440046 
L 585.971032 204.79822 
L 585.635942 205.576886 
L 585.677901 206.008871 
L 585.971032 206.384964 
L 586.304799 206.552056 
L 586.74777 206.553351 
L 593.306682 204.793643 
L 595.224999 204.439426 
L 603.537932 203.488571 
L 608.662664 203.394547 
L 613.085 203.713102 
L 617.529265 204.104188 
L 621.026878 204.486465 
L 627.635089 205.138193 
L 634.024674 205.397423 
L 637.42637 205.517003 
L 641.203449 205.691194 
L 642.329268 205.726829 
L 642.329268 205.726829 
" clip-path="url(#p4cbccc9184)" style="fill: none; stroke: #000000; stroke-width: 1.5; stroke-linecap: round"/>
   </g>
   <g id="legend_14"/>
  </g>
  <g id="axes_15">
   <g id="line2d_15">
    <path d="M 152.378049 285.278049 
L 151.875828 284.748077 
L 148.870891 281.925477 
L 146.962982 280.165081 
L 145.292783 278.621898 
L 142.775001 276.45488 
L 140.690253 274.834053 
L 136.896682 272.002658 
L 135.284986 270.895325 
L 132.786153 269.312548 
L 131.075658 268.337537 
L 126.692705 266.100052 
L 124.02439 265.185877 
L 119.588901 264.206228 
L 117.839231 264.040224 
L 114.419931 264.056207 
L 112.763795 264.211318 
L 111.152099 264.550004 
L 108.83174 265.306787 
L 105.951088 266.859156 
L 103.975326 268.375142 
L 102.177521 270.165557 
L 100.57363 272.020018 
L 99.619205 273.420687 
L 98.369233 275.626407 
L 97.346978 277.911733 
L 96.561514 280.281305 
L 95.894309 282.997133 
L 95.684723 284.738337 
L 95.726681 286.291071 
L 96.019812 287.766395 
L 96.35358 288.65104 
L 96.796551 289.326548 
L 97.346978 289.811638 
L 98.369233 290.339872 
L 99.619205 290.683339 
L 101.620605 290.981812 
L 103.975326 291.042878 
L 108.83174 290.80526 
L 110.364911 290.644037 
L 116.113972 289.75574 
L 118.711444 289.257755 
L 126.692705 287.866453 
L 129.337336 287.42153 
L 138.457577 286.327458 
L 146.962982 285.671973 
L 148.429576 285.612102 
L 149.679548 285.476057 
L 152.252214 285.297145 
L 152.378049 285.278049 
L 152.378049 285.278049 
" clip-path="url(#pc47cc5f4f0)" style="fill: none; stroke: #000000; stroke-width: 1.5; stroke-linecap: round"/>
   </g>
   <g id="legend_15"/>
  </g>
  <g id="axes_16">
   <g id="line2d_16">
    <path d="M 234.036585 285.278049 
L 233.353737 284.661694 
L 231.704628 283.337928 
L 225.731991 278.578286 
L 220.875577 275.251964 
L 214.444689 271.43379 
L 212.734195 270.600321 
L 208.351242 268.676015 
L 205.682927 267.919231 
L 201.247437 267.168021 
L 199.497768 267.074013 
L 196.078468 267.185212 
L 193.610526 267.458165 
L 190.490277 268.329887 
L 187.609625 269.710757 
L 185.633863 271.048495 
L 183.836057 272.592914 
L 182.232167 274.19175 
L 180.836426 275.988124 
L 179.661226 277.847493 
L 178.716995 279.779422 
L 178.012116 281.709268 
L 177.455103 283.878871 
L 177.329268 285.482282 
L 177.455103 286.517502 
L 177.83149 287.698788 
L 178.220051 288.36301 
L 178.716995 288.843405 
L 179.661226 289.368541 
L 180.836426 289.672669 
L 182.744335 289.887679 
L 185.013999 289.880082 
L 189.745807 289.556983 
L 193.610526 289.035452 
L 196.078468 288.6147 
L 200.369981 287.884989 
L 209.236583 286.709965 
L 211.868086 286.485939 
L 216.943523 286.12678 
L 234.036585 285.278049 
L 234.036585 285.278049 
" clip-path="url(#pce34839057)" style="fill: none; stroke: #000000; stroke-width: 1.5; stroke-linecap: round"/>
   </g>
   <g id="legend_16"/>
  </g>
  <g id="axes_17">
   <g id="line2d_17">
    <path d="M 315.695122 285.278049 
L 314.569303 284.342573 
L 306.092074 278.872113 
L 304.007326 277.677812 
L 298.602059 274.798045 
L 296.103226 273.669629 
L 293.526622 272.622016 
L 288.232073 270.897503 
L 285.561122 270.331799 
L 282.028518 269.996016 
L 277.737004 270.148339 
L 275.269063 270.39568 
L 272.148813 271.167035 
L 269.268161 272.371032 
L 266.672536 273.963289 
L 265.494594 274.844038 
L 263.890703 276.207118 
L 262.494963 277.716089 
L 261.319762 279.254263 
L 260.375532 280.829948 
L 259.670653 282.384265 
L 259.113639 284.151777 
L 258.987805 285.44268 
L 259.113639 286.275097 
L 259.490026 287.230734 
L 259.878587 287.768189 
L 260.375532 288.145149 
L 261.319762 288.540936 
L 262.494963 288.743769 
L 264.402872 288.843759 
L 266.672536 288.746265 
L 273.681984 288.066026 
L 287.341463 286.392939 
L 294.392732 285.908388 
L 306.750878 285.475157 
L 309.188333 285.343122 
L 314.018875 285.305954 
L 315.695122 285.278049 
L 315.695122 285.278049 
" clip-path="url(#pb038e86b5f)" style="fill: none; stroke: #000000; stroke-width: 1.5; stroke-linecap: round"/>
   </g>
   <g id="legend_17"/>
  </g>
  <g id="axes_18">
   <g id="line2d_18">
    <path d="M 397.353659 285.278049 
L 395.677412 284.196709 
L 385.665862 279.154697 
L 379.437678 276.465455 
L 377.761762 275.877722 
L 375.185159 274.998621 
L 372.553656 274.174243 
L 370.780341 273.655311 
L 365.446344 272.825685 
L 362.814841 272.638078 
L 358.562322 272.715343 
L 355.340521 273.089327 
L 353.06288 273.652988 
L 351.621843 274.167489 
L 350.926698 274.386917 
L 347.731607 276.044009 
L 345.060214 278.007872 
L 343.344843 279.778666 
L 342.322588 281.121869 
L 341.537124 282.477689 
L 340.869919 284.030172 
L 340.660332 284.995851 
L 340.702291 285.807614 
L 340.995422 286.59072 
L 341.537124 287.256622 
L 342.034068 287.527123 
L 342.978299 287.780533 
L 344.594814 287.895939 
L 347.153131 287.810635 
L 357.739404 286.829221 
L 361.089581 286.44843 
L 363.687054 286.201159 
L 370.780341 285.7701 
L 376.051268 285.551401 
L 390.268393 285.263116 
L 394.655157 285.248688 
L 397.353659 285.278049 
L 397.353659 285.278049 
" clip-path="url(#p2b518684eb)" style="fill: none; stroke: #000000; stroke-width: 1.5; stroke-linecap: round"/>
   </g>
   <g id="legend_18"/>
  </g>
  <g id="axes_19">
   <g id="line2d_19">
    <path d="M 479.012195 285.278049 
L 475.505037 283.696042 
L 475.063722 283.591598 
L 474.109297 283.155525 
L 471.92693 282.29574 
L 468.731839 281.02373 
L 462.730937 278.938548 
L 461.096214 278.322211 
L 459.420299 277.840958 
L 456.843696 277.101359 
L 454.212192 276.404896 
L 452.438878 275.9516 
L 446.223047 275.067557 
L 444.473378 274.948402 
L 439.397941 274.950699 
L 437.786245 275.057731 
L 435.465887 275.379838 
L 432.585234 276.131618 
L 429.390143 277.462442 
L 426.718751 279.070489 
L 425.003379 280.573965 
L 423.981125 281.72991 
L 423.19566 282.901964 
L 422.528455 284.239978 
L 422.318869 285.04756 
L 422.360828 285.697773 
L 422.653959 286.277964 
L 423.19566 286.736508 
L 423.981125 286.952769 
L 425.395242 287.080272 
L 428.254751 286.990225 
L 439.397941 286.049403 
L 441.896774 285.766255 
L 454.212192 285.20135 
L 459.420299 285.198062 
L 476.313694 285.215379 
L 479.012195 285.278049 
L 479.012195 285.278049 
" clip-path="url(#p412bfae2e4)" style="fill: none; stroke: #000000; stroke-width: 1.5; stroke-linecap: round"/>
   </g>
   <g id="legend_19"/>
  </g>
  <g id="axes_20">
   <g id="line2d_20">
    <path d="M 560.670732 285.278049 
L 559.779949 284.909279 
L 558.994485 284.652967 
L 557.580368 284.216907 
L 556.256859 283.79368 
L 545.189365 280.552943 
L 534.985388 278.035651 
L 529.648758 277.286833 
L 525.265805 276.938876 
L 522.712614 276.88141 
L 519.444782 276.98161 
L 517.124423 277.252653 
L 514.243771 277.878038 
L 510.470204 279.229512 
L 508.377287 280.262106 
L 506.661916 281.4661 
L 505.351141 282.712158 
L 504.465636 283.923326 
L 504.019364 284.892592 
L 503.977405 285.452649 
L 504.186992 285.936222 
L 504.646263 286.32654 
L 505.089234 286.491215 
L 506.295372 286.592857 
L 508.866313 286.5195 
L 517.883887 285.818294 
L 520.244673 285.625902 
L 529.648758 285.131224 
L 560.670732 285.278049 
L 560.670732 285.278049 
" clip-path="url(#p5ad119a9a4)" style="fill: none; stroke: #000000; stroke-width: 1.5; stroke-linecap: round"/>
   </g>
   <g id="legend_20"/>
  </g>
  <g id="axes_21">
   <g id="line2d_21">
    <path d="M 642.329268 285.278049 
L 641.980188 285.168255 
L 638.82211 284.327434 
L 638.380795 284.30623 
L 637.42637 284.013781 
L 635.822479 283.644142 
L 632.048912 282.645668 
L 627.635089 281.696097 
L 622.737372 280.600613 
L 620.160769 280.101706 
L 617.529265 279.650439 
L 615.755951 279.350996 
L 607.790451 278.566846 
L 601.903209 278.517055 
L 598.03849 279.00307 
L 595.902308 279.423534 
L 591.037018 280.968618 
L 589.570424 281.651154 
L 587.953908 282.605785 
L 586.74777 283.581775 
L 585.845528 284.648759 
L 585.635942 285.150277 
L 585.677901 285.517933 
L 585.971032 285.866998 
L 586.512734 286.154878 
L 587.298198 286.287293 
L 589.129109 286.298285 
L 593.306682 285.992903 
L 595.902308 285.769339 
L 600.316131 285.381131 
L 605.213847 284.977404 
L 612.195269 284.852262 
L 623.580069 285.187085 
L 628.408796 285.309954 
L 635.244003 285.224396 
L 638.82211 285.198146 
L 640.653022 285.247679 
L 642.329268 285.278049 
L 642.329268 285.278049 
" clip-path="url(#p8eabaee93b)" style="fill: none; stroke: #000000; stroke-width: 1.5; stroke-linecap: round"/>
   </g>
   <g id="legend_21"/>
  </g>
  <g id="axes_22">
   <g id="line2d_22">
    <path d="M 152.378049 364.829268 
L 151.875828 364.418256 
L 149.287685 362.42831 
L 147.47515 360.847486 
L 145.87126 359.530121 
L 143.433805 357.503989 
L 141.402548 355.966957 
L 137.683869 353.301574 
L 135.284986 351.631711 
L 131.934809 349.506464 
L 128.45988 347.564475 
L 124.915 345.948623 
L 122.244049 345.002979 
L 118.711444 344.289029 
L 116.113972 344.117392 
L 115.262628 344.08441 
L 111.95199 344.567457 
L 110.364911 345.055967 
L 108.08727 346.05558 
L 107.358528 346.385174 
L 103.975326 348.782637 
L 102.177521 350.530609 
L 100.57363 352.340508 
L 99.17789 354.355428 
L 98.002689 356.481386 
L 97.058459 358.623592 
L 96.35358 360.713324 
L 95.894309 362.590003 
L 95.684723 364.298878 
L 95.726681 365.828694 
L 96.019812 367.318753 
L 96.561514 368.709722 
L 97.058459 369.494335 
L 98.002689 370.457947 
L 99.17789 371.243199 
L 100.57363 371.933794 
L 102.177521 372.49393 
L 103.975326 372.87009 
L 106.646233 373.214015 
L 108.83174 373.273425 
L 110.364911 373.216965 
L 114.419931 372.820362 
L 123.13378 371.011743 
L 127.578046 369.84309 
L 145.292783 365.959546 
L 150.386955 365.06826 
L 152.378049 364.829268 
L 152.378049 364.829268 
" clip-path="url(#p589475a218)" style="fill: none; stroke: #000000; stroke-width: 1.5; stroke-linecap: round"/>
   </g>
   <g id="legend_22"/>
  </g>
  <g id="axes_23">
   <g id="line2d_23">
    <path d="M 234.036585 364.829268 
L 233.353737 364.320711 
L 224.433538 358.115952 
L 221.620047 356.379359 
L 217.755327 354.136735 
L 216.120605 353.152887 
L 214.444689 352.298231 
L 211.868086 351.024288 
L 207.463268 349.126633 
L 203.902586 348.067664 
L 200.369981 347.505021 
L 196.921164 347.370307 
L 192.810635 347.977073 
L 190.490277 348.694238 
L 187.609625 350.062693 
L 185.633863 351.373603 
L 183.279141 353.367931 
L 182.232167 354.402292 
L 180.836426 356.098042 
L 179.661226 357.86138 
L 178.716995 359.639578 
L 178.012116 361.378175 
L 177.552845 362.97486 
L 177.343259 364.3954 
L 177.385218 365.666505 
L 177.678349 366.92717 
L 178.220051 368.101285 
L 179.005515 369.05974 
L 180.02777 369.816915 
L 181.277741 370.421485 
L 182.744335 370.918143 
L 184.414534 371.276058 
L 187.609625 371.627918 
L 190.490277 371.67011 
L 192.023448 371.6019 
L 196.078468 371.233395 
L 208.351242 369.077674 
L 211.868086 368.376134 
L 230.529427 365.127579 
L 232.360339 364.976166 
L 234.036585 364.829268 
L 234.036585 364.829268 
" clip-path="url(#p5facff881d)" style="fill: none; stroke: #000000; stroke-width: 1.5; stroke-linecap: round"/>
   </g>
   <g id="legend_23"/>
  </g>
  <g id="axes_24">
   <g id="line2d_24">
    <path d="M 315.695122 364.829268 
L 314.569303 364.066139 
L 303.278584 357.796498 
L 295.251882 354.078092 
L 290.009778 352.131283 
L 287.341463 351.448741 
L 282.905974 350.749027 
L 281.156304 350.64485 
L 277.737004 350.715973 
L 275.269063 350.955402 
L 272.148813 351.690773 
L 269.268161 352.800286 
L 266.672536 354.272815 
L 264.937678 355.492009 
L 263.401678 356.786145 
L 261.686306 358.671431 
L 260.664051 360.120588 
L 259.878587 361.541476 
L 259.336885 362.899544 
L 259.043754 364.11858 
L 259.001796 365.168799 
L 259.211382 366.171029 
L 259.670653 367.136472 
L 260.375532 367.961064 
L 261.319762 368.620025 
L 262.494963 369.133692 
L 264.402872 369.671697 
L 266.672536 370.011495 
L 270.675601 370.267318 
L 272.908277 370.231063 
L 281.156304 369.450828 
L 298.602059 366.915413 
L 306.750878 365.769179 
L 309.745249 365.330894 
L 313.363165 364.966071 
L 315.695122 364.829268 
L 315.695122 364.829268 
" clip-path="url(#pac3f5de08e)" style="fill: none; stroke: #000000; stroke-width: 1.5; stroke-linecap: round"/>
   </g>
   <g id="legend_24"/>
  </g>
  <g id="axes_25">
   <g id="line2d_25">
    <path d="M 397.353659 364.829268 
L 389.668928 361.111153 
L 381.872292 357.858642 
L 375.185159 355.555499 
L 369 353.976628 
L 363.687054 353.350225 
L 359.395541 353.367994 
L 356.127708 353.645631 
L 353.80735 354.058221 
L 350.926698 354.898185 
L 347.731607 356.334546 
L 345.54924 357.683742 
L 344.1535 358.822027 
L 342.978299 360.031722 
L 341.772161 361.662214 
L 341.148563 362.835037 
L 340.772176 363.915845 
L 340.646341 364.959981 
L 340.772176 365.625742 
L 341.148563 366.394827 
L 341.772161 367.071667 
L 342.637435 367.612242 
L 343.736705 368.030411 
L 345.54924 368.472787 
L 347.731607 368.754121 
L 351.621843 368.988211 
L 354.566814 368.968709 
L 365.446344 368.059726 
L 390.268393 365.277312 
L 394.263295 364.97051 
L 397.353659 364.829268 
L 397.353659 364.829268 
" clip-path="url(#p25ba699dda)" style="fill: none; stroke: #000000; stroke-width: 1.5; stroke-linecap: round"/>
   </g>
   <g id="legend_25"/>
  </g>
  <g id="axes_26">
   <g id="line2d_26">
    <path d="M 479.012195 364.829268 
L 475.921831 363.675355 
L 474.109297 362.998199 
L 471.92693 362.218692 
L 468.731839 361.085351 
L 462.730937 359.251894 
L 461.096214 358.713321 
L 459.420299 358.299503 
L 456.843696 357.64424 
L 448.878196 356.084627 
L 441.896774 355.597198 
L 439.397941 355.70033 
L 437.786245 355.794717 
L 435.465887 356.065549 
L 432.585234 356.679882 
L 428.811667 358.043183 
L 426.718751 359.147958 
L 425.003379 360.445135 
L 423.981125 361.480419 
L 422.987726 362.835435 
L 422.528455 363.780991 
L 422.318869 364.598602 
L 422.360828 365.248727 
L 422.653959 365.846535 
L 423.19566 366.363535 
L 423.981125 366.790594 
L 425.395242 367.221166 
L 427.719945 367.603499 
L 430.609472 367.784026 
L 436.22535 367.808581 
L 470.067951 365.352091 
L 473.597128 365.038709 
L 478.121413 364.831879 
L 479.012195 364.829268 
L 479.012195 364.829268 
" clip-path="url(#pbd27023f2f)" style="fill: none; stroke: #000000; stroke-width: 1.5; stroke-linecap: round"/>
   </g>
   <g id="legend_26"/>
  </g>
  <g id="axes_27">
   <g id="line2d_27">
    <path d="M 560.670732 364.829268 
L 559.779949 364.540376 
L 558.994485 364.326716 
L 557.580368 363.958892 
L 555.767833 363.44929 
L 554.163943 363.027782 
L 550.390375 361.960768 
L 544.389474 360.544754 
L 542.754751 360.098884 
L 541.078836 359.775735 
L 538.502232 359.242655 
L 530.536732 357.956387 
L 521.879395 357.53105 
L 518.657594 357.66449 
L 515.651211 358.038488 
L 511.04868 359.192499 
L 508.866313 360.038968 
L 507.053778 361.051127 
L 505.954508 361.878727 
L 504.854197 362.970935 
L 504.186992 363.983956 
L 503.977405 364.646171 
L 504.019364 365.165514 
L 504.312495 365.651633 
L 504.854197 366.058805 
L 505.639661 366.381391 
L 507.053778 366.67746 
L 509.913288 366.943372 
L 515.651211 366.998287 
L 521.056477 366.788305 
L 523.555311 366.584405 
L 527.004127 366.423069 
L 535.870729 366.047409 
L 546.75026 365.662658 
L 551.726488 365.330325 
L 555.255665 365.01785 
L 560.670732 364.829268 
L 560.670732 364.829268 
" clip-path="url(#pdce8b85f35)" style="fill: none; stroke: #000000; stroke-width: 1.5; stroke-linecap: round"/>
   </g>
   <g id="legend_27"/>
  </g>
  <g id="axes_28">
   <g id="line2d_28">
    <path d="M 642.329268 364.829268 
L 641.980188 364.73597 
L 629.91273 362.163989 
L 626.04801 361.432484 
L 624.413288 361.051678 
L 622.737372 360.800564 
L 620.160769 360.363988 
L 611.307295 359.308438 
L 605.213847 358.933056 
L 602.715014 359.018363 
L 601.103318 359.076047 
L 598.03849 359.379382 
L 595.902308 359.713981 
L 591.037018 360.96811 
L 589.129109 361.763275 
L 587.613045 362.635495 
L 586.512734 363.474914 
L 585.845528 364.20625 
L 585.635942 364.699172 
L 585.677901 365.068923 
L 585.971032 365.449277 
L 586.512734 365.787662 
L 587.298198 366.062893 
L 588.712315 366.290276 
L 592.12874 366.494991 
L 597.309747 366.441494 
L 604.37115 366.079047 
L 606.924342 365.939209 
L 610.421954 365.83735 
L 630.641472 365.500004 
L 635.244003 365.167487 
L 639.997311 364.848364 
L 642.329268 364.829268 
L 642.329268 364.829268 
" clip-path="url(#pabc84d2447)" style="fill: none; stroke: #000000; stroke-width: 1.5; stroke-linecap: round"/>
   </g>
   <g id="legend_28"/>
  </g>
  <g id="axes_29">
   <g id="line2d_29">
    <path d="M 152.378049 444.380488 
L 150.990322 443.605062 
L 148.429576 441.992891 
L 142.775001 437.790878 
L 134.462068 431.929839 
L 126.692705 427.15923 
L 124.02439 425.980498 
L 120.470735 424.833702 
L 118.711444 424.475822 
L 116.113972 424.26215 
L 115.262628 424.245019 
L 112.763795 424.556485 
L 110.364911 425.266224 
L 108.08727 426.285023 
L 107.358528 426.62515 
L 103.975326 429.010774 
L 102.177521 430.724116 
L 100.57363 432.485206 
L 99.17789 434.401156 
L 97.661825 437.081308 
L 96.796551 439.043937 
L 96.172953 440.932756 
L 95.796566 442.693344 
L 95.684723 443.828771 
L 95.726681 445.429844 
L 96.019812 446.970105 
L 96.561514 448.469595 
L 97.346978 449.850911 
L 98.369233 451.087644 
L 99.619205 452.196268 
L 101.085799 453.221279 
L 102.755997 454.084051 
L 105.273779 454.991724 
L 107.358528 455.510631 
L 109.591204 455.814245 
L 112.763795 455.886037 
L 116.973122 455.387139 
L 118.711444 455.045174 
L 122.244049 454.0992 
L 126.692705 452.592479 
L 133.62885 450.065808 
L 140.690253 447.56824 
L 145.87126 445.784936 
L 149.679548 444.6989 
L 152.378049 444.380488 
L 152.378049 444.380488 
" clip-path="url(#pb8dba6c07c)" style="fill: none; stroke: #000000; stroke-width: 1.5; stroke-linecap: round"/>
   </g>
   <g id="legend_29"/>
  </g>
  <g id="axes_30">
   <g id="line2d_30">
    <path d="M 234.036585 444.380488 
L 232.045492 443.367708 
L 230.946222 442.797366 
L 221.620047 437.133361 
L 217.755327 434.875671 
L 216.120605 433.883127 
L 207.463268 429.568928 
L 204.792317 428.685111 
L 203.014612 428.20067 
L 200.369981 427.740207 
L 197.772508 427.59978 
L 196.078468 427.678525 
L 193.610526 428.017726 
L 191.24974 428.679047 
L 189.017064 429.54111 
L 185.633863 431.536142 
L 183.279141 433.44317 
L 181.743141 434.952072 
L 180.419632 436.598936 
L 179.320362 438.263231 
L 178.455088 439.895767 
L 177.83149 441.486269 
L 177.455103 442.977785 
L 177.343259 443.921026 
L 177.385218 445.282263 
L 177.678349 446.629831 
L 178.220051 447.911438 
L 179.005515 449.052418 
L 180.02777 450.066991 
L 181.277741 450.964201 
L 182.744335 451.765888 
L 184.414534 452.431096 
L 186.932316 453.144597 
L 189.017064 453.567973 
L 191.24974 453.82332 
L 194.422331 453.909185 
L 199.497768 453.474755 
L 203.902586 452.624255 
L 207.463268 451.700775 
L 211.868086 450.416485 
L 219.342406 448.192232 
L 229.133687 445.211557 
L 231.704628 444.637289 
L 234.036585 444.380488 
L 234.036585 444.380488 
" clip-path="url(#p204f676607)" style="fill: none; stroke: #000000; stroke-width: 1.5; stroke-linecap: round"/>
   </g>
   <g id="legend_30"/>
  </g>
  <g id="axes_31">
   <g id="line2d_31">
    <path d="M 315.695122 444.380488 
L 309.188333 441.286488 
L 304.719621 439.063012 
L 300.213755 436.911187 
L 291.776953 433.389821 
L 288.232073 432.271831 
L 285.561122 431.65517 
L 282.028518 431.21159 
L 278.579701 431.140711 
L 274.469172 431.630902 
L 272.148813 432.160821 
L 269.268161 433.165555 
L 266.672536 434.491551 
L 264.937678 435.590093 
L 263.401678 436.771234 
L 261.686306 438.498953 
L 260.664051 439.838831 
L 259.878587 441.138603 
L 259.336885 442.420014 
L 259.043754 443.625483 
L 259.001796 444.748055 
L 259.211382 445.837409 
L 259.670653 446.878739 
L 260.375532 447.807407 
L 261.319762 448.624979 
L 262.494963 449.351657 
L 263.890703 450.005084 
L 266.07307 450.725943 
L 268.590853 451.320075 
L 270.675601 451.678769 
L 272.908277 451.894613 
L 276.903786 451.959565 
L 280.290195 451.764675 
L 282.905974 451.498236 
L 286.450853 450.976139 
L 296.103226 448.857303 
L 306.750878 446.148693 
L 310.280055 445.273759 
L 315.192901 444.429435 
L 315.695122 444.380488 
L 315.695122 444.380488 
" clip-path="url(#pdd8b894ce6)" style="fill: none; stroke: #000000; stroke-width: 1.5; stroke-linecap: round"/>
   </g>
   <g id="legend_31"/>
  </g>
  <g id="axes_32">
   <g id="line2d_32">
    <path d="M 397.353659 444.380488 
L 395.677412 443.727593 
L 393.405186 442.862703 
L 391.403785 442.048611 
L 388.409415 440.906131 
L 385.665862 439.866646 
L 376.910419 436.844083 
L 369.89061 435.00721 
L 367.219659 434.539398 
L 362.814841 434.140062 
L 359.395541 434.125956 
L 356.127708 434.346446 
L 353.80735 434.674652 
L 350.926698 435.367594 
L 347.731607 436.57484 
L 345.54924 437.736231 
L 344.1535 438.725646 
L 342.978299 439.796916 
L 341.772161 441.267124 
L 341.148563 442.357013 
L 340.772176 443.421845 
L 340.646341 444.523545 
L 340.772176 445.25201 
L 341.148563 446.073736 
L 341.772161 446.816546 
L 342.637435 447.480061 
L 343.736705 448.07024 
L 345.54924 448.780688 
L 348.331072 449.511632 
L 350.926698 450.014021 
L 353.80735 450.31821 
L 356.127708 450.415574 
L 358.562322 450.426798 
L 362.814841 450.214173 
L 368.10939 449.633205 
L 376.051268 448.302888 
L 385.665862 446.484681 
L 395.021701 444.696725 
L 397.353659 444.380488 
L 397.353659 444.380488 
" clip-path="url(#p2390b984a5)" style="fill: none; stroke: #000000; stroke-width: 1.5; stroke-linecap: round"/>
   </g>
   <g id="legend_32"/>
  </g>
  <g id="axes_33">
   <g id="line2d_33">
    <path d="M 479.012195 444.380488 
L 473.062322 442.645417 
L 470.067951 441.791097 
L 466.595657 440.822603 
L 461.096214 439.321562 
L 459.420299 438.946966 
L 455.094026 437.972681 
L 448.878196 436.932243 
L 441.896774 436.405641 
L 434.721416 436.786077 
L 432.585234 437.155251 
L 428.254751 438.463567 
L 426.718751 439.17995 
L 425.003379 440.280452 
L 423.981125 441.186964 
L 423.19566 442.097035 
L 422.653959 443.008902 
L 422.360828 443.878198 
L 422.318869 444.610419 
L 422.528455 445.296787 
L 422.987726 445.902924 
L 423.692605 446.469451 
L 424.636835 446.973582 
L 426.253351 447.567118 
L 428.254751 448.06788 
L 431.907926 448.683582 
L 434.721416 448.964235 
L 440.220859 449.04182 
L 444.473378 448.865961 
L 453.326852 448.038016 
L 461.096214 447.10498 
L 470.707601 445.656229 
L 478.663115 444.401957 
L 479.012195 444.380488 
L 479.012195 444.380488 
" clip-path="url(#p82a0493849)" style="fill: none; stroke: #000000; stroke-width: 1.5; stroke-linecap: round"/>
   </g>
   <g id="legend_33"/>
  </g>
  <g id="axes_34">
   <g id="line2d_34">
    <path d="M 560.670732 444.380488 
L 560.16851 444.265176 
L 557.163574 443.630829 
L 555.255665 443.249132 
L 553.585466 442.852446 
L 547.509723 441.501765 
L 544.389474 440.847449 
L 542.754751 440.462334 
L 541.078836 440.171844 
L 536.752563 439.389008 
L 530.536732 438.55873 
L 521.879395 438.129236 
L 518.657594 438.197596 
L 515.651211 438.461435 
L 511.04868 439.372248 
L 508.866313 440.077423 
L 507.053778 440.935334 
L 505.639661 441.903686 
L 504.646263 442.8537 
L 504.186992 443.548799 
L 503.977405 444.197366 
L 504.019364 444.743539 
L 504.312495 445.301432 
L 504.854197 445.788872 
L 505.639661 446.232661 
L 507.053778 446.719434 
L 509.378482 447.234057 
L 512.907658 447.675035 
L 515.651211 447.912662 
L 518.657594 447.984817 
L 526.131914 447.811601 
L 545.976552 446.442786 
L 550.390375 445.910007 
L 560.670732 444.380488 
L 560.670732 444.380488 
" clip-path="url(#pab7d5cd28a)" style="fill: none; stroke: #000000; stroke-width: 1.5; stroke-linecap: round"/>
   </g>
   <g id="legend_34"/>
  </g>
  <g id="axes_35">
   <g id="line2d_35">
    <path d="M 642.329268 444.380488 
L 641.980188 444.295362 
L 626.847901 441.680007 
L 618.411099 440.384438 
L 611.307295 439.726403 
L 605.213847 439.411563 
L 602.715014 439.457016 
L 601.103318 439.483815 
L 597.309747 439.766617 
L 592.12874 440.674819 
L 590.035824 441.292597 
L 587.953908 442.20417 
L 586.304799 443.284457 
L 585.747786 443.932403 
L 585.621951 444.445754 
L 585.747786 444.813508 
L 586.124172 445.250692 
L 587.009678 445.770939 
L 588.320452 446.168237 
L 591.037018 446.669145 
L 595.224999 447.086495 
L 598.78296 447.25736 
L 601.903209 447.288678 
L 604.37115 447.234481 
L 606.924342 447.152921 
L 610.421954 447.070228 
L 625.236205 446.518679 
L 631.353767 445.975916 
L 637.42637 445.084335 
L 642.329268 444.380488 
L 642.329268 444.380488 
" clip-path="url(#pa515bb2e41)" style="fill: none; stroke: #000000; stroke-width: 1.5; stroke-linecap: round"/>
   </g>
   <g id="legend_35"/>
  </g>
  <g id="axes_36">
   <g id="line2d_36">
    <path d="M 152.378049 523.931707 
L 150.990322 523.360919 
L 148.429576 522.129996 
L 138.457577 515.765746 
L 132.786153 511.914998 
L 130.209549 510.26551 
L 126.692705 508.135413 
L 124.02439 506.873836 
L 120.470735 505.59282 
L 118.711444 505.16086 
L 116.113972 504.866281 
L 115.262628 504.8056 
L 111.95199 505.199729 
L 110.364911 505.64449 
L 107.358528 506.863442 
L 103.975326 509.10577 
L 101.620605 511.275415 
L 100.57363 512.38637 
L 99.17789 514.216225 
L 98.002689 516.119892 
L 97.058459 518.022018 
L 96.35358 519.895361 
L 95.894309 521.67707 
L 95.684723 523.371171 
L 95.726681 525.013666 
L 96.019812 526.642158 
L 96.561514 528.308612 
L 97.346978 529.896365 
L 98.369233 531.434526 
L 99.619205 532.883605 
L 101.085799 534.232964 
L 102.755997 535.421305 
L 105.273779 536.778743 
L 107.358528 537.662305 
L 109.591204 538.30405 
L 111.95199 538.680648 
L 113.586712 538.738857 
L 115.262628 538.695576 
L 116.973122 538.518297 
L 118.711444 538.213284 
L 120.470735 537.76797 
L 124.02439 536.560217 
L 128.45988 534.651248 
L 148.870891 524.923414 
L 149.287685 524.82272 
L 150.046092 524.511921 
L 151.875828 524.047855 
L 152.378049 523.931707 
L 152.378049 523.931707 
" clip-path="url(#p40077557e7)" style="fill: none; stroke: #000000; stroke-width: 1.5; stroke-linecap: round"/>
   </g>
   <g id="legend_36"/>
  </g>
  <g id="axes_37">
   <g id="line2d_37">
    <path d="M 234.036585 523.931707 
L 232.910766 523.529246 
L 230.529427 522.598105 
L 228.621518 521.701951 
L 224.433538 519.441348 
L 209.236583 511.315512 
L 207.463268 510.51463 
L 203.902586 509.261994 
L 200.369981 508.52465 
L 196.921164 508.270479 
L 192.810635 508.738579 
L 190.490277 509.344067 
L 187.609625 510.514545 
L 185.633863 511.663342 
L 183.279141 513.40863 
L 181.743141 514.79174 
L 180.02777 516.851017 
L 179.005515 518.423871 
L 178.220051 520.002162 
L 177.678349 521.544488 
L 177.385218 522.977957 
L 177.343259 524.404875 
L 177.552845 525.820163 
L 178.012116 527.279051 
L 178.716995 528.656363 
L 179.661226 529.973148 
L 180.836426 531.231039 
L 182.232167 532.400558 
L 183.836057 533.441947 
L 185.633863 534.340144 
L 188.30477 535.428108 
L 190.490277 536.04987 
L 192.023448 536.357872 
L 194.422331 536.641355 
L 197.772508 536.620586 
L 201.247437 536.173305 
L 204.792317 535.334834 
L 209.236583 533.841199 
L 211.868086 532.835502 
L 218.555218 530.09469 
L 230.529427 524.956569 
L 232.910766 524.251571 
L 234.036585 523.931707 
L 234.036585 523.931707 
" clip-path="url(#p65052ef772)" style="fill: none; stroke: #000000; stroke-width: 1.5; stroke-linecap: round"/>
   </g>
   <g id="legend_37"/>
  </g>
  <g id="axes_38">
   <g id="line2d_38">
    <path d="M 315.695122 523.931707 
L 312.604758 522.911679 
L 299.413864 517.503669 
L 297.779141 516.77018 
L 296.103226 516.115522 
L 293.526622 515.142681 
L 288.232073 513.405378 
L 285.561122 512.770628 
L 282.028518 512.271389 
L 278.579701 512.108582 
L 273.681984 512.537156 
L 270.675601 513.176127 
L 267.292399 514.44259 
L 264.937678 515.687235 
L 263.401678 516.712295 
L 261.686306 518.252435 
L 260.664051 519.468651 
L 259.878587 520.720311 
L 259.336885 521.964902 
L 259.043754 523.154073 
L 259.001796 524.311131 
L 259.211382 525.478612 
L 259.670653 526.663082 
L 260.375532 527.779836 
L 261.319762 528.848842 
L 262.494963 529.876638 
L 263.890703 530.846111 
L 265.494594 531.717324 
L 267.932049 532.730213 
L 269.963306 533.423891 
L 272.148813 533.948821 
L 274.469172 534.300333 
L 276.903786 534.477373 
L 279.431045 534.457127 
L 283.787808 534.026244 
L 287.341463 533.348783 
L 290.895119 532.425855 
L 293.526622 531.640982 
L 300.213755 529.395487 
L 315.012274 524.132571 
L 315.695122 523.931707 
L 315.695122 523.931707 
" clip-path="url(#p6e79f1c44c)" style="fill: none; stroke: #000000; stroke-width: 1.5; stroke-linecap: round"/>
   </g>
   <g id="legend_38"/>
  </g>
  <g id="axes_39">
   <g id="line2d_39">
    <path d="M 397.353659 523.931707 
L 396.227839 523.556457 
L 394.263295 523.035626 
L 384.19265 520.023579 
L 381.072401 519.088434 
L 379.437678 518.546645 
L 377.761762 518.084127 
L 375.185159 517.390375 
L 368.10939 515.808187 
L 366.331685 515.532051 
L 361.948732 515.136362 
L 359.395541 515.076063 
L 356.127708 515.165175 
L 353.80735 515.37626 
L 350.926698 515.916166 
L 347.153131 517.174476 
L 345.060214 518.194219 
L 343.344843 519.378245 
L 342.322588 520.337358 
L 341.537124 521.346721 
L 340.995422 522.34465 
L 340.702291 523.322181 
L 340.660332 524.221896 
L 340.869919 525.170494 
L 341.329189 526.119479 
L 342.034068 527.019026 
L 342.978299 527.875028 
L 344.594814 528.969416 
L 346.596215 529.974718 
L 348.950936 530.838184 
L 352.334138 531.751252 
L 354.566814 532.112641 
L 357.739404 532.384426 
L 361.089581 532.369472 
L 366.331685 531.966384 
L 370.780341 531.316388 
L 376.910419 529.980193 
L 382.659479 528.481163 
L 389.049064 526.548163 
L 397.353659 523.931707 
L 397.353659 523.931707 
" clip-path="url(#p61dda29c1c)" style="fill: none; stroke: #000000; stroke-width: 1.5; stroke-linecap: round"/>
   </g>
   <g id="legend_39"/>
  </g>
  <g id="axes_40">
   <g id="line2d_40">
    <path d="M 479.012195 523.931707 
L 478.663115 523.849941 
L 470.067951 522.044846 
L 466.595657 521.227071 
L 461.096214 519.884497 
L 459.420299 519.535904 
L 455.094026 518.652792 
L 447.990222 517.596923 
L 441.896774 517.129643 
L 439.397941 517.131113 
L 437.786245 517.133569 
L 434.721416 517.311297 
L 432.585234 517.590449 
L 427.719945 518.884282 
L 425.812036 519.769624 
L 424.636835 520.511292 
L 423.430697 521.589662 
L 422.653959 522.682535 
L 422.360828 523.47243 
L 422.318869 524.153983 
L 422.528455 524.907465 
L 422.987726 525.680163 
L 423.692605 526.432987 
L 424.636835 527.151353 
L 426.253351 528.064412 
L 428.254751 528.889935 
L 430.609472 529.600776 
L 433.992674 530.304698 
L 436.22535 530.559199 
L 439.397941 530.731847 
L 443.607268 530.596577 
L 447.104881 530.382619 
L 452.438878 529.807944 
L 462.730937 528.009536 
L 466.595657 527.163057 
L 470.067951 526.3001 
L 475.505037 524.829282 
L 479.012195 523.931707 
L 479.012195 523.931707 
" clip-path="url(#p0902269930)" style="fill: none; stroke: #000000; stroke-width: 1.5; stroke-linecap: round"/>
   </g>
   <g id="legend_40"/>
  </g>
  <g id="axes_41">
   <g id="line2d_41">
    <path d="M 560.670732 523.931707 
L 560.321651 523.874955 
L 554.163943 522.891397 
L 534.985388 519.345258 
L 531.426463 518.956786 
L 527.004127 518.586931 
L 518.657594 518.47734 
L 515.651211 518.683064 
L 511.04868 519.457279 
L 508.377287 520.249714 
L 506.661916 521.05662 
L 505.351141 521.946584 
L 504.465636 522.788976 
L 504.089249 523.392327 
L 503.963415 524.014024 
L 504.089249 524.482664 
L 504.465636 525.126224 
L 505.089234 525.774378 
L 505.954508 526.403041 
L 507.470573 527.180397 
L 509.378482 527.886429 
L 512.268009 528.634232 
L 515.651211 529.180803 
L 517.883887 529.351306 
L 521.056477 529.420757 
L 526.131914 529.180734 
L 534.985388 528.39381 
L 541.921532 527.466568 
L 547.509723 526.515819 
L 560.670732 523.931707 
L 560.670732 523.931707 
" clip-path="url(#p47bec27846)" style="fill: none; stroke: #000000; stroke-width: 1.5; stroke-linecap: round"/>
   </g>
   <g id="legend_41"/>
  </g>
  <g id="axes_42">
   <g id="line2d_42">
    <path d="M 642.329268 523.931707 
L 641.980188 523.865137 
L 637.42637 523.151645 
L 635.822479 522.915352 
L 624.413288 521.119748 
L 622.737372 520.911414 
L 618.411099 520.361346 
L 609.54012 519.67987 
L 607.790451 519.606816 
L 601.103318 519.627755 
L 598.03849 519.780325 
L 594.566195 520.193087 
L 590.035824 521.164119 
L 587.953908 521.986898 
L 586.124172 523.076287 
L 585.747786 523.500318 
L 585.621951 523.998171 
L 585.747786 524.37388 
L 586.124172 524.912788 
L 587.009678 525.653974 
L 587.953908 526.169071 
L 589.570424 526.792362 
L 592.12874 527.474023 
L 595.224999 528.042046 
L 598.03849 528.36578 
L 602.715014 528.462183 
L 607.790451 528.238493 
L 618.411099 527.580114 
L 628.408796 526.299505 
L 635.244003 525.091115 
L 640.653022 524.173046 
L 642.329268 523.931707 
L 642.329268 523.931707 
" clip-path="url(#p7a5e136b42)" style="fill: none; stroke: #000000; stroke-width: 1.5; stroke-linecap: round"/>
   </g>
   <g id="legend_42"/>
  </g>
  <g id="axes_43">
   <g id="line2d_43">
    <path d="M 152.378049 603.482927 
L 151.875828 603.384045 
L 149.287685 602.595743 
L 145.87126 600.895736 
L 136.096791 594.840261 
L 134.462068 593.678519 
L 125.804731 588.384436 
L 122.244049 586.77543 
L 119.588901 585.971676 
L 117.839231 585.620705 
L 115.262628 585.326131 
L 111.95199 585.601637 
L 110.364911 585.988534 
L 107.358528 587.084085 
L 103.975326 589.186804 
L 101.620605 591.222848 
L 100.57363 592.265209 
L 99.17789 594.020363 
L 98.002689 595.837184 
L 97.058459 597.68172 
L 96.35358 599.527926 
L 95.894309 601.26474 
L 95.684723 602.918071 
L 95.726681 604.621616 
L 96.019812 606.395376 
L 96.561514 608.253115 
L 97.346978 610.014071 
L 98.369233 611.779434 
L 99.619205 613.473152 
L 101.085799 615.054949 
L 102.755997 616.459573 
L 104.614975 617.680941 
L 106.646233 618.827475 
L 108.08727 619.472647 
L 110.364911 620.217489 
L 112.763795 620.663069 
L 115.262628 620.738202 
L 116.973122 620.607914 
L 118.711444 620.348334 
L 120.470735 619.934975 
L 123.13378 619.105881 
L 126.692705 617.63901 
L 135.284986 613.160726 
L 139.96151 610.433172 
L 147.964176 605.688328 
L 149.287685 605.03671 
L 150.046092 604.586402 
L 150.990322 604.163274 
L 152.322099 603.507784 
L 152.378049 603.482927 
L 152.378049 603.482927 
" clip-path="url(#p33a80fd80c)" style="fill: none; stroke: #000000; stroke-width: 1.5; stroke-linecap: round"/>
   </g>
   <g id="legend_43"/>
  </g>
  <g id="axes_44">
   <g id="line2d_44">
    <path d="M 234.036585 603.482927 
L 233.534364 603.412409 
L 230.946222 602.769491 
L 226.95132 601.087547 
L 216.943523 595.805148 
L 211.868086 593.133407 
L 206.573537 590.671643 
L 203.902586 589.691464 
L 200.369981 588.848623 
L 196.921164 588.463975 
L 192.810635 588.770418 
L 190.490277 589.288368 
L 186.932316 590.736034 
L 185.013999 591.889247 
L 183.279141 593.139638 
L 182.232167 594.001155 
L 180.836426 595.464561 
L 179.661226 596.976586 
L 178.716995 598.542355 
L 178.012116 600.13058 
L 177.552845 601.626496 
L 177.343259 603.017972 
L 177.385218 604.448186 
L 177.678349 605.999359 
L 178.220051 607.613758 
L 179.005515 609.158077 
L 180.02777 610.688766 
L 181.277741 612.143517 
L 182.744335 613.482086 
L 184.414534 614.658417 
L 186.273512 615.669747 
L 188.30477 616.605826 
L 189.745807 617.120103 
L 192.023448 617.689378 
L 194.422331 618.012761 
L 196.921164 618.026139 
L 198.631659 617.889745 
L 200.369981 617.653249 
L 202.129271 617.298518 
L 204.792317 616.595806 
L 208.351242 615.368172 
L 216.120605 612.008299 
L 232.045492 604.239783 
L 234.036585 603.482927 
L 234.036585 603.482927 
" clip-path="url(#pd0a866c3ef)" style="fill: none; stroke: #000000; stroke-width: 1.5; stroke-linecap: round"/>
   </g>
   <g id="legend_44"/>
  </g>
  <g id="axes_45">
   <g id="line2d_45">
    <path d="M 315.695122 603.482927 
L 315.192901 603.41817 
L 311.746649 602.547603 
L 299.413864 597.667639 
L 297.779141 596.935853 
L 296.103226 596.286926 
L 293.526622 595.364757 
L 290.895119 594.458527 
L 289.121804 593.855419 
L 282.905974 592.524296 
L 281.156304 592.302875 
L 277.737004 592.114717 
L 275.269063 592.116788 
L 272.148813 592.471195 
L 268.590853 593.453316 
L 266.672536 594.239821 
L 264.937678 595.134868 
L 263.401678 596.12487 
L 261.686306 597.676406 
L 260.664051 598.924424 
L 259.878587 600.257424 
L 259.336885 601.550589 
L 259.043754 602.750755 
L 259.001796 603.847492 
L 259.211382 605.044531 
L 259.670653 606.348169 
L 260.375532 607.668226 
L 261.319762 608.979032 
L 262.494963 610.220875 
L 263.890703 611.380022 
L 265.494594 612.408776 
L 267.292399 613.294022 
L 269.963306 614.287279 
L 271.404343 614.663916 
L 274.469172 615.117719 
L 276.903786 615.22255 
L 280.290195 614.985967 
L 282.905974 614.625364 
L 286.450853 613.88606 
L 290.009778 612.923362 
L 297.779141 610.288576 
L 312.996621 604.178989 
L 315.471545 603.51022 
L 315.695122 603.482927 
L 315.695122 603.482927 
" clip-path="url(#p149a30e37d)" style="fill: none; stroke: #000000; stroke-width: 1.5; stroke-linecap: round"/>
   </g>
   <g id="legend_45"/>
  </g>
  <g id="axes_46">
   <g id="line2d_46">
    <path d="M 397.353659 603.482927 
L 396.462876 603.282756 
L 395.677412 603.147125 
L 393.405186 602.5896 
L 390.846869 601.864456 
L 387.750611 600.917021 
L 386.378157 600.480207 
L 375.185159 597.269 
L 374.312946 597.107766 
L 373.435489 596.821955 
L 366.331685 595.550528 
L 360.238238 594.985664 
L 357.739404 594.992756 
L 356.127708 594.991486 
L 353.80735 595.081212 
L 349.590585 595.857858 
L 346.596215 596.890831 
L 345.060214 597.631952 
L 343.344843 598.835394 
L 342.322588 599.827086 
L 341.329189 601.245087 
L 340.869919 602.264504 
L 340.660332 603.206344 
L 340.702291 604.042291 
L 340.995422 605.019379 
L 341.537124 606.084808 
L 342.322588 607.164736 
L 343.344843 608.210001 
L 344.594814 609.193464 
L 346.061408 610.08964 
L 347.731607 610.859275 
L 350.249389 611.681084 
L 352.334138 612.157619 
L 354.566814 612.415397 
L 356.927599 612.526021 
L 359.395541 612.455671 
L 361.948732 612.268868 
L 365.446344 611.870987 
L 369.89061 611.169348 
L 371.668315 610.809601 
L 379.437678 608.909394 
L 396.462876 603.597547 
L 397.353659 603.482927 
L 397.353659 603.482927 
" clip-path="url(#p3b7c1bad1f)" style="fill: none; stroke: #000000; stroke-width: 1.5; stroke-linecap: round"/>
   </g>
   <g id="legend_46"/>
  </g>
  <g id="axes_47">
   <g id="line2d_47">
    <path d="M 479.012195 603.482927 
L 478.121413 603.262482 
L 477.335949 603.139083 
L 475.921831 602.820451 
L 470.707601 601.627572 
L 469.409147 601.311334 
L 468.036694 600.951785 
L 458.568955 598.762895 
L 455.971482 598.38191 
L 455.094026 598.162508 
L 447.104881 597.322256 
L 443.607268 597.137286 
L 438.586136 597.0189 
L 432.585234 597.398334 
L 427.719945 598.545406 
L 426.253351 599.163672 
L 425.003379 599.851436 
L 423.981125 600.632001 
L 422.987726 601.695812 
L 422.528455 602.487509 
L 422.318869 603.26149 
L 422.360828 603.922538 
L 422.653959 604.709622 
L 423.19566 605.589741 
L 423.981125 606.500526 
L 425.003379 607.376971 
L 426.253351 608.193945 
L 428.254751 609.140783 
L 430.609472 609.92024 
L 433.280379 610.460476 
L 435.465887 610.655537 
L 438.586136 610.719019 
L 441.896774 610.57871 
L 450.658537 609.825325 
L 453.326852 609.477191 
L 460.262996 608.21128 
L 464.318016 607.205323 
L 474.109297 604.60068 
L 479.012195 603.482927 
L 479.012195 603.482927 
" clip-path="url(#p3b67532142)" style="fill: none; stroke: #000000; stroke-width: 1.5; stroke-linecap: round"/>
   </g>
   <g id="legend_47"/>
  </g>
  <g id="axes_48">
   <g id="line2d_48">
    <path d="M 560.670732 603.482927 
L 560.447155 603.412377 
L 559.779949 603.193033 
L 559.283005 603.080314 
L 557.97223 602.79515 
L 554.163943 601.985897 
L 541.921532 599.699307 
L 540.227492 599.427313 
L 535.870729 599.016819 
L 534.097414 598.825524 
L 531.426463 598.752641 
L 523.555311 598.631613 
L 521.056477 598.71578 
L 518.657594 598.684289 
L 514.243771 598.954418 
L 511.648146 599.326802 
L 509.913288 599.648098 
L 508.377287 600.051219 
L 506.295372 600.935755 
L 504.854197 601.911852 
L 504.312495 602.463953 
L 504.019364 603.068803 
L 503.977405 603.665986 
L 504.186992 604.250777 
L 504.646263 604.992778 
L 505.639661 606.043721 
L 506.661916 606.80013 
L 507.911888 607.49975 
L 509.913288 608.30314 
L 512.268009 609.009905 
L 514.243771 609.372748 
L 516.379953 609.604637 
L 521.879395 609.610487 
L 523.555311 609.496509 
L 527.881584 609.267807 
L 533.207683 609.030551 
L 535.870729 608.754997 
L 537.630019 608.540243 
L 541.921532 607.854915 
L 548.982936 606.217804 
L 557.163574 604.335193 
L 559.779949 603.695395 
L 560.670732 603.482927 
L 560.670732 603.482927 
" clip-path="url(#pc3b344a1a2)" style="fill: none; stroke: #000000; stroke-width: 1.5; stroke-linecap: round"/>
   </g>
   <g id="legend_48"/>
  </g>
  <g id="axes_49">
   <g id="line2d_49">
    <path d="M 642.329268 603.482927 
L 642.105691 603.401305 
L 641.438486 603.142347 
L 640.941541 603.014503 
L 639.630767 602.698554 
L 636.379395 601.995167 
L 626.847901 600.696784 
L 621.026878 600.126278 
L 618.411099 599.934752 
L 606.924342 599.811815 
L 595.902308 600.10771 
L 593.926546 600.317652 
L 591.037018 600.66689 
L 588.712315 601.189579 
L 587.613045 601.652782 
L 586.124172 602.443951 
L 585.747786 602.921473 
L 585.635942 603.309161 
L 585.677901 603.814875 
L 585.971032 604.389637 
L 586.512734 605.019153 
L 587.613045 605.875914 
L 589.129109 606.647173 
L 591.571824 607.435821 
L 594.566195 608.206527 
L 598.03849 608.691498 
L 603.537932 608.824599 
L 605.213847 608.750722 
L 608.662664 608.693409 
L 615.755951 608.728546 
L 621.886028 608.175152 
L 626.04801 607.474981 
L 631.353767 606.229911 
L 641.64642 603.670702 
L 642.329268 603.482927 
L 642.329268 603.482927 
" clip-path="url(#p1030bddc84)" style="fill: none; stroke: #000000; stroke-width: 1.5; stroke-linecap: round"/>
   </g>
   <g id="legend_49"/>
  </g>
 </g>
 <defs>
  <clipPath id="pb303602e3f">
   <rect x="90" y="86.4" width="68.04878" height="66.292683"/>
  </clipPath>
  <clipPath id="p1cf44b1657">
   <rect x="171.658537" y="86.4" width="68.04878" height="66.292683"/>
  </clipPath>
  <clipPath id="p67eda6b70f">
   <rect x="253.317073" y="86.4" width="68.04878" height="66.292683"/>
  </clipPath>
  <clipPath id="pd6b0a3675d">
   <rect x="334.97561" y="86.4" width="68.04878" height="66.292683"/>
  </clipPath>
  <clipPath id="p2d1cd45236">
   <rect x="416.634146" y="86.4" width="68.04878" height="66.292683"/>
  </clipPath>
  <clipPath id="pfbe11b51a7">
   <rect x="498.292683" y="86.4" width="68.04878" height="66.292683"/>
  </clipPath>
  <clipPath id="p7b7671d0ed">
   <rect x="579.95122" y="86.4" width="68.04878" height="66.292683"/>
  </clipPath>
  <clipPath id="p8aa5e71e68">
   <rect x="90" y="165.95122" width="68.04878" height="66.292683"/>
  </clipPath>
  <clipPath id="pa2d0bc73e8">
   <rect x="171.658537" y="165.95122" width="68.04878" height="66.292683"/>
  </clipPath>
  <clipPath id="pe20da4e79c">
   <rect x="253.317073" y="165.95122" width="68.04878" height="66.292683"/>
  </clipPath>
  <clipPath id="pb0b938cbe7">
   <rect x="334.97561" y="165.95122" width="68.04878" height="66.292683"/>
  </clipPath>
  <clipPath id="p21b5ab383e">
   <rect x="416.634146" y="165.95122" width="68.04878" height="66.292683"/>
  </clipPath>
  <clipPath id="p435aef0cca">
   <rect x="498.292683" y="165.95122" width="68.04878" height="66.292683"/>
  </clipPath>
  <clipPath id="p4cbccc9184">
   <rect x="579.95122" y="165.95122" width="68.04878" height="66.292683"/>
  </clipPath>
  <clipPath id="pc47cc5f4f0">
   <rect x="90" y="245.502439" width="68.04878" height="66.292683"/>
  </clipPath>
  <clipPath id="pce34839057">
   <rect x="171.658537" y="245.502439" width="68.04878" height="66.292683"/>
  </clipPath>
  <clipPath id="pb038e86b5f">
   <rect x="253.317073" y="245.502439" width="68.04878" height="66.292683"/>
  </clipPath>
  <clipPath id="p2b518684eb">
   <rect x="334.97561" y="245.502439" width="68.04878" height="66.292683"/>
  </clipPath>
  <clipPath id="p412bfae2e4">
   <rect x="416.634146" y="245.502439" width="68.04878" height="66.292683"/>
  </clipPath>
  <clipPath id="p5ad119a9a4">
   <rect x="498.292683" y="245.502439" width="68.04878" height="66.292683"/>
  </clipPath>
  <clipPath id="p8eabaee93b">
   <rect x="579.95122" y="245.502439" width="68.04878" height="66.292683"/>
  </clipPath>
  <clipPath id="p589475a218">
   <rect x="90" y="325.053659" width="68.04878" height="66.292683"/>
  </clipPath>
  <clipPath id="p5facff881d">
   <rect x="171.658537" y="325.053659" width="68.04878" height="66.292683"/>
  </clipPath>
  <clipPath id="pac3f5de08e">
   <rect x="253.317073" y="325.053659" width="68.04878" height="66.292683"/>
  </clipPath>
  <clipPath id="p25ba699dda">
   <rect x="334.97561" y="325.053659" width="68.04878" height="66.292683"/>
  </clipPath>
  <clipPath id="pbd27023f2f">
   <rect x="416.634146" y="325.053659" width="68.04878" height="66.292683"/>
  </clipPath>
  <clipPath id="pdce8b85f35">
   <rect x="498.292683" y="325.053659" width="68.04878" height="66.292683"/>
  </clipPath>
  <clipPath id="pabc84d2447">
   <rect x="579.95122" y="325.053659" width="68.04878" height="66.292683"/>
  </clipPath>
  <clipPath id="pb8dba6c07c">
   <rect x="90" y="404.604878" width="68.04878" height="66.292683"/>
  </clipPath>
  <clipPath id="p204f676607">
   <rect x="171.658537" y="404.604878" width="68.04878" height="66.292683"/>
  </clipPath>
  <clipPath id="pdd8b894ce6">
   <rect x="253.317073" y="404.604878" width="68.04878" height="66.292683"/>
  </clipPath>
  <clipPath id="p2390b984a5">
   <rect x="334.97561" y="404.604878" width="68.04878" height="66.292683"/>
  </clipPath>
  <clipPath id="p82a0493849">
   <rect x="416.634146" y="404.604878" width="68.04878" height="66.292683"/>
  </clipPath>
  <clipPath id="pab7d5cd28a">
   <rect x="498.292683" y="404.604878" width="68.04878" height="66.292683"/>
  </clipPath>
  <clipPath id="pa515bb2e41">
   <rect x="579.95122" y="404.604878" width="68.04878" height="66.292683"/>
  </clipPath>
  <clipPath id="p40077557e7">
   <rect x="90" y="484.156098" width="68.04878" height="66.292683"/>
  </clipPath>
  <clipPath id="p65052ef772">
   <rect x="171.658537" y="484.156098" width="68.04878" height="66.292683"/>
  </clipPath>
  <clipPath id="p6e79f1c44c">
   <rect x="253.317073" y="484.156098" width="68.04878" height="66.292683"/>
  </clipPath>
  <clipPath id="p61dda29c1c">
   <rect x="334.97561" y="484.156098" width="68.04878" height="66.292683"/>
  </clipPath>
  <clipPath id="p0902269930">
   <rect x="416.634146" y="484.156098" width="68.04878" height="66.292683"/>
  </clipPath>
  <clipPath id="p47bec27846">
   <rect x="498.292683" y="484.156098" width="68.04878" height="66.292683"/>
  </clipPath>
  <clipPath id="p7a5e136b42">
   <rect x="579.95122" y="484.156098" width="68.04878" height="66.292683"/>
  </clipPath>
  <clipPath id="p33a80fd80c">
   <rect x="90" y="563.707317" width="68.04878" height="66.292683"/>
  </clipPath>
  <clipPath id="pd0a866c3ef">
   <rect x="171.658537" y="563.707317" width="68.04878" height="66.292683"/>
  </clipPath>
  <clipPath id="p149a30e37d">
   <rect x="253.317073" y="563.707317" width="68.04878" height="66.292683"/>
  </clipPath>
  <clipPath id="p3b7c1bad1f">
   <rect x="334.97561" y="563.707317" width="68.04878" height="66.292683"/>
  </clipPath>
  <clipPath id="p3b67532142">
   <rect x="416.634146" y="563.707317" width="68.04878" height="66.292683"/>
  </clipPath>
  <clipPath id="pc3b344a1a2">
   <rect x="498.292683" y="563.707317" width="68.04878" height="66.292683"/>
  </clipPath>
  <clipPath id="p1030bddc84">
   <rect x="579.95122" y="563.707317" width="68.04878" height="66.292683"/>
  </clipPath>
 </defs>
</svg>
