<?xml version="1.0" encoding="utf-8" standalone="no"?>
<!DOCTYPE svg PUBLIC "-//W3C//DTD SVG 1.1//EN"
  "http://www.w3.org/Graphics/SVG/1.1/DTD/svg11.dtd">
<svg xmlns:xlink="http://www.w3.org/1999/xlink" width="720pt" height="360pt" viewBox="0 0 720 360" xmlns="http://www.w3.org/2000/svg" version="1.1">
 <metadata>
  <rdf:RDF xmlns:dc="http://purl.org/dc/elements/1.1/" xmlns:cc="http://creativecommons.org/ns#" xmlns:rdf="http://www.w3.org/1999/02/22-rdf-syntax-ns#">
   <cc:Work>
    <dc:type rdf:resource="http://purl.org/dc/dcmitype/StillImage"/>
    <dc:date>2022-06-18T12:02:45.101430</dc:date>
    <dc:format>image/svg+xml</dc:format>
    <dc:creator>
     <cc:Agent>
      <dc:title>Matplotlib v3.5.1, https://matplotlib.org/</dc:title>
     </cc:Agent>
    </dc:creator>
   </cc:Work>
  </rdf:RDF>
 </metadata>
 <defs>
  <style type="text/css">*{stroke-linejoin: round; stroke-linecap: butt}</style>
 </defs>
 <g id="figure_1">
  <g id="patch_1">
   <path d="M 0 360 
L 720 360 
L 720 0 
L 0 0 
z
" style="fill: #ffffff"/>
  </g>
  <g id="axes_1">
   <g id="line2d_1">
    <path d="M 144.414894 78.652174 
L 144.110377 78.614851 
L 140.970481 78.218877 
L 137.17046 77.407849 
L 136.037767 77.142085 
L 132.934014 76.268249 
L 131.596567 75.879982 
L 127.324091 74.476986 
L 123.550108 73.331159 
L 118.127788 72.021039 
L 115.046154 71.544356 
L 111.302493 71.383208 
L 107.765135 71.457196 
L 105.778257 71.688426 
L 103.914779 72.067531 
L 99.67059 73.642175 
L 98.391221 74.399183 
L 96.981069 75.496454 
L 95.928906 76.645142 
L 95.141844 77.87612 
L 94.959013 78.473465 
L 94.995615 79.049898 
L 95.251326 79.800968 
L 95.723874 80.585502 
L 96.409066 81.356976 
L 97.30082 82.071572 
L 98.391221 82.734273 
L 100.137123 83.530503 
L 102.191242 84.234092 
L 104.521182 84.772588 
L 107.090199 85.096758 
L 109.857778 85.2185 
L 112.037612 85.162081 
L 117.353172 84.760268 
L 122.780849 83.989467 
L 125.076415 83.590665 
L 132.934014 81.923596 
L 137.17046 80.798349 
L 143.432796 78.97573 
L 144.414894 78.652174 
L 144.414894 78.652174 
" clip-path="url(#p0199ad7fff)" style="fill: none; stroke: #000000; stroke-width: 1.5; stroke-linecap: round"/>
   </g>
   <g id="legend_1"/>
  </g>
  <g id="axes_2">
   <g id="line2d_2">
    <path d="M 215.648936 78.652174 
L 214.871871 78.201941 
L 213.912025 77.72346 
L 206.680966 74.364747 
L 197.815472 71.041005 
L 191.691809 69.327357 
L 189.36183 68.887927 
L 184.763787 68.528713 
L 182.536535 68.501554 
L 179.685873 68.648637 
L 177.661731 68.923939 
L 174.557978 69.773893 
L 172.884553 70.461604 
L 171.371166 71.260555 
L 170.031251 72.152813 
L 168.534863 73.546226 
L 167.643109 74.662863 
L 166.957916 75.802147 
L 166.485368 76.93763 
L 166.229658 78.004872 
L 166.193056 78.956523 
L 166.375886 79.810107 
L 166.776527 80.542131 
L 167.391421 81.107347 
L 168.215112 81.53432 
L 170.031251 82.044387 
L 172.361615 82.389616 
L 175.755224 82.726214 
L 178.324242 82.767695 
L 186.280196 82.262328 
L 193.242573 81.531529 
L 200.737966 80.621043 
L 208.404503 79.581706 
L 212.5895 79.025315 
L 214.666839 78.80979 
L 215.648936 78.652174 
L 215.648936 78.652174 
" clip-path="url(#pc7ef2a91bc)" style="fill: none; stroke: #000000; stroke-width: 1.5; stroke-linecap: round"/>
   </g>
   <g id="legend_2"/>
  </g>
  <g id="axes_3">
   <g id="line2d_3">
    <path d="M 286.882979 78.652174 
L 286.287303 78.307836 
L 285.146067 77.665087 
L 280.179277 75.224962 
L 271.972009 71.963693 
L 267.5445 70.523635 
L 262.148936 69.119265 
L 257.514239 68.546626 
L 253.770578 68.51373 
L 251.617693 68.630307 
L 248.895773 69.093413 
L 246.382864 69.825144 
L 244.118595 70.813439 
L 242.605208 71.662755 
L 241.265293 72.606418 
L 239.768905 74.002841 
L 238.625464 75.440043 
L 238.010569 76.450169 
L 237.609929 77.443311 
L 237.427098 78.370805 
L 237.463701 79.189895 
L 237.719411 80.007897 
L 238.191959 80.737282 
L 238.625464 81.075424 
L 239.449154 81.387652 
L 240.859306 81.501662 
L 242.605208 81.387313 
L 245.79202 80.885011 
L 249.558284 80.218075 
L 251.617693 79.794788 
L 259.821257 78.378723 
L 265.248934 77.920845 
L 271.972009 77.974455 
L 286.882979 78.652174 
L 286.882979 78.652174 
" clip-path="url(#p9d8d3f1b97)" style="fill: none; stroke: #000000; stroke-width: 1.5; stroke-linecap: round"/>
   </g>
   <g id="legend_3"/>
  </g>
  <g id="axes_4">
   <g id="line2d_4">
    <path d="M 358.117021 78.652174 
L 357.812504 78.580005 
L 355.421172 77.948357 
L 349.739895 76.19694 
L 347.921284 75.57646 
L 342.488187 73.86265 
L 341.026218 73.540447 
L 338.778543 73.166842 
L 336.482976 72.888668 
L 334.936042 72.712591 
L 327.987415 72.760171 
L 318.22331 73.503002 
L 316.451361 73.741188 
L 312.925933 74.565837 
L 311.708372 75.032625 
L 310.683197 75.552777 
L 309.631034 76.379996 
L 309.087044 77.08605 
L 308.758707 77.872676 
L 308.648936 78.76758 
L 308.843971 79.672146 
L 309.244612 80.458943 
L 309.859506 81.184823 
L 310.683197 81.87454 
L 312.093349 82.716783 
L 313.839251 83.441523 
L 317.026063 84.370254 
L 319.480385 84.768911 
L 325.739739 85.016609 
L 331.0553 84.920917 
L 335.710658 84.629976 
L 339.534085 84.117423 
L 342.488187 83.512667 
L 347.285573 82.001869 
L 356.082761 79.056053 
L 358.117021 78.652174 
L 358.117021 78.652174 
" clip-path="url(#pcd047b9a46)" style="fill: none; stroke: #000000; stroke-width: 1.5; stroke-linecap: round"/>
   </g>
   <g id="legend_4"/>
  </g>
  <g id="axes_5">
   <g id="line2d_5">
    <path d="M 429.351064 78.652174 
L 428.140494 77.943685 
L 425.906651 76.834518 
L 425.074067 76.386973 
L 413.72223 71.430876 
L 412.260261 70.895322 
L 410.012585 70.075673 
L 405.393936 68.673166 
L 403.063958 68.184209 
L 399.221457 67.771908 
L 396.238663 67.758869 
L 393.388001 67.997153 
L 391.363859 68.373716 
L 388.850949 69.140318 
L 386.063742 70.439938 
L 384.159975 71.686907 
L 382.942415 72.749476 
L 381.917239 73.888249 
L 380.865076 75.466601 
L 380.321087 76.630465 
L 379.992749 77.729436 
L 379.882979 78.773361 
L 379.992749 79.353232 
L 380.321087 80.015885 
L 380.865076 80.620185 
L 381.61989 81.158823 
L 382.942415 81.801754 
L 385.073294 82.583897 
L 387.127412 83.108436 
L 391.363859 83.917804 
L 394.085778 84.235832 
L 396.238663 84.369479 
L 400.747765 84.389935 
L 403.840106 84.195753 
L 408.486278 83.517387 
L 414.440094 82.158288 
L 420.973937 80.387132 
L 425.500664 79.209809 
L 427.888806 78.792754 
L 429.351064 78.652174 
L 429.351064 78.652174 
" clip-path="url(#p7f52c35a11)" style="fill: none; stroke: #000000; stroke-width: 1.5; stroke-linecap: round"/>
   </g>
   <g id="legend_5"/>
  </g>
  <g id="axes_6">
   <g id="line2d_6">
    <path d="M 500.585106 78.652174 
L 499.989431 78.156371 
L 499.122849 77.523918 
L 493.340673 73.988279 
L 475.851064 64.238851 
L 471.981807 62.820273 
L 469.699958 62.347826 
L 468.207824 62.026802 
L 466.027991 61.912414 
L 464.622043 61.916538 
L 463.260412 62.056037 
L 462.597901 62.150173 
L 459.494148 63.268672 
L 458.361455 63.962098 
L 456.793156 65.278738 
L 455.394018 66.721823 
L 454.561434 67.841921 
L 453.471033 69.700792 
L 452.579279 71.692195 
L 451.894087 73.784997 
L 451.421538 75.814012 
L 451.129226 78.143178 
L 451.165828 79.546577 
L 451.421538 80.544736 
L 451.894087 81.259651 
L 452.579279 81.738628 
L 453.471033 82.106739 
L 454.561434 82.341383 
L 456.793156 82.56242 
L 461.312758 82.574542 
L 463.935348 82.275012 
L 470.4555 81.164551 
L 473.523385 80.488784 
L 476.627979 79.796404 
L 484.229422 78.1543 
L 489.104227 77.440228 
L 491.617136 77.341029 
L 494.404343 77.44346 
L 496.30811 77.764398 
L 500.536299 78.645585 
L 500.585106 78.652174 
L 500.585106 78.652174 
" clip-path="url(#p42c1ccd249)" style="fill: none; stroke: #000000; stroke-width: 1.5; stroke-linecap: round"/>
   </g>
   <g id="legend_6"/>
  </g>
  <g id="axes_7">
   <g id="line2d_7">
    <path d="M 571.819149 78.652174 
L 571.381041 78.465593 
L 566.143014 75.649206 
L 560.338269 73.253595 
L 558.314127 72.595474 
L 556.190315 71.8498 
L 554.728346 71.475538 
L 552.480671 71.006393 
L 546.308191 70.300535 
L 541.689542 70.294036 
L 536.553863 70.779167 
L 532.546801 71.619367 
L 530.153489 72.457226 
L 526.62806 74.134619 
L 524.385324 75.658739 
L 523.333161 76.718889 
L 522.655581 77.691709 
L 522.363269 78.500874 
L 522.399871 78.910913 
L 522.655581 79.331479 
L 523.333161 79.947244 
L 524.385324 80.594118 
L 525.795476 81.171113 
L 528.531827 81.88311 
L 530.728191 82.354634 
L 533.182512 82.691449 
L 541.689542 83.166393 
L 548.63817 83.333002 
L 556.908179 82.749871 
L 560.338269 82.201016 
L 563.442022 81.411989 
L 566.628834 80.327146 
L 571.381041 78.714778 
L 571.819149 78.652174 
L 571.819149 78.652174 
" clip-path="url(#pa149df0f14)" style="fill: none; stroke: #000000; stroke-width: 1.5; stroke-linecap: round"/>
   </g>
   <g id="legend_7"/>
  </g>
  <g id="axes_8">
   <g id="line2d_8">
    <path d="M 643.053191 78.652174 
L 641.842621 78.160043 
L 638.32941 76.785954 
L 636.34949 75.98937 
L 627.424357 72.678844 
L 625.962388 72.21962 
L 622.953846 71.314972 
L 620.646828 70.644635 
L 616.766086 69.891366 
L 612.923585 69.512699 
L 609.940791 69.500352 
L 607.090129 69.717479 
L 604.416555 70.170069 
L 602.553077 70.64675 
L 599.76587 71.721886 
L 597.862103 72.756984 
L 596.644542 73.643353 
L 595.322018 74.946914 
L 594.362172 76.26616 
L 593.889623 77.25174 
L 593.597311 78.430855 
L 593.633913 79.031689 
L 593.889623 79.603898 
L 594.567204 80.368592 
L 595.619367 81.167558 
L 597.435506 82.110367 
L 599.261242 82.788674 
L 601.387532 83.413755 
L 603.15948 83.824789 
L 605.065986 84.069475 
L 607.787906 84.240434 
L 609.940791 84.216179 
L 614.449892 83.822972 
L 618.319149 83.167565 
L 624.470255 81.689591 
L 633.478818 79.46125 
L 636.872428 78.839559 
L 639.202792 78.618114 
L 641.590934 78.550558 
L 643.053191 78.652174 
L 643.053191 78.652174 
" clip-path="url(#pd37a016a0d)" style="fill: none; stroke: #000000; stroke-width: 1.5; stroke-linecap: round"/>
   </g>
   <g id="legend_8"/>
  </g>
  <g id="axes_9">
   <g id="line2d_9">
    <path d="M 144.414894 149.556522 
L 144.305123 149.544965 
L 143.819218 149.36633 
L 142.677982 149.065137 
L 141.719044 148.578475 
L 141.355458 148.48423 
L 140.564494 148.098388 
L 137.711192 146.646917 
L 137.17046 146.289791 
L 136.037767 145.756336 
L 134.84052 144.928295 
L 133.583445 144.150195 
L 132.934014 143.548501 
L 132.271503 143.259606 
L 131.596567 142.734308 
L 130.909871 142.406675 
L 130.212094 141.848685 
L 129.503924 141.528966 
L 128.786059 140.996286 
L 128.059209 140.67042 
L 127.324091 140.15026 
L 126.581429 139.794931 
L 125.831957 139.569997 
L 125.076415 139.135585 
L 124.315548 138.853446 
L 123.550108 138.42905 
L 122.00853 137.87901 
L 121.233914 137.533046 
L 119.680851 137.105301 
L 118.903936 136.828371 
L 118.127788 136.718728 
L 116.580854 136.33537 
L 114.285287 135.92369 
L 112.037612 135.930348 
L 110.575643 136.155643 
L 106.427688 137.480688 
L 105.778257 137.784538 
L 102.191242 140.701141 
L 100.622944 142.210859 
L 99.223805 143.817138 
L 96.409066 147.172635 
L 95.384916 148.800866 
L 94.959013 149.44338 
L 94.995615 149.685495 
L 96.157379 151.802382 
L 96.981069 152.782328 
L 98.006244 153.507813 
L 98.797208 153.879623 
L 100.137123 154.229985 
L 101.127572 154.562852 
L 102.191242 154.968126 
L 103.914779 155.053486 
L 118.903936 153.372244 
L 120.457766 153.304537 
L 121.233914 153.287313 
L 122.00853 153.130022 
L 123.550108 153.066579 
L 125.831957 152.871303 
L 128.059209 152.766662 
L 130.909871 152.738755 
L 132.271503 152.663456 
L 134.219157 152.564088 
L 136.612468 152.190902 
L 140.564494 151.108804 
L 141.719044 150.509945 
L 142.060882 150.492379 
L 143.204323 149.994084 
L 144.414894 149.556522 
L 144.414894 149.556522 
" clip-path="url(#pa2c4f626ca)" style="fill: none; stroke: #000000; stroke-width: 1.5; stroke-linecap: round"/>
   </g>
   <g id="legend_9"/>
  </g>
  <g id="axes_10">
   <g id="line2d_10">
    <path d="M 215.648936 149.556522 
L 215.210828 149.358598 
L 214.186679 148.919272 
L 212.953087 148.495951 
L 211.798536 148.101313 
L 203.505546 145.541705 
L 198.558133 144.104586 
L 194.78415 143.166931 
L 190.914894 142.378042 
L 183.271654 141.592819 
L 181.091821 141.665557 
L 179.685873 141.716192 
L 177.661731 141.935216 
L 174.557978 142.678309 
L 172.884553 143.262286 
L 171.371166 143.929637 
L 170.031251 144.640556 
L 168.534863 145.761101 
L 167.391421 146.957884 
L 166.618959 148.177605 
L 166.229658 149.164136 
L 166.193056 149.725847 
L 166.375886 150.146047 
L 166.776527 150.461477 
L 167.162949 150.558386 
L 168.8767 150.495927 
L 175.755224 149.946776 
L 178.999178 149.653605 
L 184.014316 149.250896 
L 187.045637 149.082033 
L 190.914894 149.016303 
L 200.020102 149.01062 
L 211.37194 149.161987 
L 215.648936 149.556522 
L 215.648936 149.556522 
" clip-path="url(#p6b1e41d77f)" style="fill: none; stroke: #000000; stroke-width: 1.5; stroke-linecap: round"/>
   </g>
   <g id="legend_10"/>
  </g>
  <g id="axes_11">
   <g id="line2d_11">
    <path d="M 286.882979 149.556522 
L 286.444871 149.17961 
L 283.438566 146.503939 
L 278.505852 142.224053 
L 275.402099 139.612536 
L 271.254145 136.353266 
L 267.5445 133.916157 
L 264.476615 132.281654 
L 262.148936 131.400669 
L 259.048939 130.634214 
L 257.514239 130.419161 
L 255.248358 130.354433 
L 253.770578 130.47553 
L 252.325863 130.693982 
L 250.919916 131.087437 
L 248.895773 131.885201 
L 246.989267 133.039611 
L 245.79202 133.925222 
L 244.118595 135.480968 
L 242.605208 137.228381 
L 241.265293 139.066771 
L 240.110743 141.106563 
L 238.877151 143.792059 
L 238.010569 146.439079 
L 237.524664 148.426351 
L 237.414894 149.719654 
L 237.524664 150.491045 
L 237.853002 151.377518 
L 238.396991 152.210943 
L 239.151805 152.902474 
L 240.110743 153.465228 
L 241.69189 153.986652 
L 243.595657 154.342774 
L 245.79202 154.481296 
L 248.246342 154.363156 
L 250.919916 154.028233 
L 253.043728 153.636868 
L 255.99783 152.944818 
L 261.372021 151.591303 
L 265.248934 150.592082 
L 273.377957 149.071329 
L 276.687242 148.741789 
L 280.179277 148.680188 
L 283.032579 148.953138 
L 286.882979 149.556522 
L 286.882979 149.556522 
" clip-path="url(#pd693456e53)" style="fill: none; stroke: #000000; stroke-width: 1.5; stroke-linecap: round"/>
   </g>
   <g id="legend_11"/>
  </g>
  <g id="axes_12">
   <g id="line2d_12">
    <path d="M 358.117021 149.556522 
L 357.134924 149.299917 
L 355.421172 148.804648 
L 354.266622 148.416001 
L 346.636141 145.939685 
L 333.382979 142.086845 
L 327.987415 141.205743 
L 322.851736 140.849197 
L 320.129816 140.921202 
L 316.451361 141.50246 
L 314.8297 142.018024 
L 312.925933 142.922977 
L 311.708372 143.793218 
L 310.683197 144.812572 
L 309.859506 145.919212 
L 309.244612 147.092619 
L 308.843971 148.26416 
L 308.661141 149.272054 
L 308.697743 150.020291 
L 308.953453 150.524446 
L 309.426002 150.96027 
L 310.111194 151.352208 
L 311.344785 151.768714 
L 313.372718 152.217677 
L 316.451361 152.616082 
L 318.844673 152.726581 
L 320.792327 152.606928 
L 329.513722 151.413476 
L 333.382979 150.94878 
L 340.283557 150.204662 
L 352.440886 149.410157 
L 355.057585 149.401979 
L 358.117021 149.556522 
L 358.117021 149.556522 
" clip-path="url(#p47f4a8d150)" style="fill: none; stroke: #000000; stroke-width: 1.5; stroke-linecap: round"/>
   </g>
   <g id="legend_12"/>
  </g>
  <g id="axes_13">
   <g id="line2d_13">
    <path d="M 429.351064 149.556522 
L 428.368966 149.026901 
L 424.627282 146.909636 
L 420.973937 144.745739 
L 415.846042 141.915713 
L 410.012585 139.183024 
L 406.9447 138.035667 
L 403.840106 137.240844 
L 402.289342 136.957117 
L 399.982324 136.724664 
L 397.716443 136.711089 
L 396.238663 136.82705 
L 394.085778 137.160343 
L 392.026369 137.688654 
L 390.078716 138.361684 
L 387.127412 139.819874 
L 385.073294 141.209525 
L 383.733378 142.316479 
L 382.578828 143.531659 
L 381.345236 145.18581 
L 380.660044 146.39424 
L 380.187496 147.624351 
L 379.931786 148.797123 
L 379.895183 149.927507 
L 380.078014 150.998833 
L 380.478655 151.9874 
L 381.093549 152.847818 
L 381.917239 153.613772 
L 382.942415 154.288447 
L 384.159975 154.88459 
L 386.063742 155.550538 
L 388.850949 156.267191 
L 391.363859 156.653316 
L 394.085778 156.798544 
L 396.238663 156.763877 
L 399.982324 156.375105 
L 403.063958 155.786179 
L 406.9447 154.759206 
L 412.995379 152.788321 
L 420.973937 150.233125 
L 423.674929 149.633005 
L 425.906651 149.377809 
L 427.316803 149.333071 
L 429.351064 149.556522 
L 429.351064 149.556522 
" clip-path="url(#p0754c13abc)" style="fill: none; stroke: #000000; stroke-width: 1.5; stroke-linecap: round"/>
   </g>
   <g id="legend_13"/>
  </g>
  <g id="axes_14">
   <g id="line2d_14">
    <path d="M 500.585106 149.556522 
L 499.989431 149.068306 
L 498.550846 148.032772 
L 493.340673 144.448913 
L 488.441716 141.548099 
L 485.674137 140.001884 
L 482.751642 138.612401 
L 478.178743 136.790748 
L 475.851064 136.180823 
L 471.216366 135.518401 
L 468.207824 135.518597 
L 463.935348 136.260167 
L 461.94847 136.957285 
L 460.691395 137.548423 
L 459.494148 138.172024 
L 457.820723 139.28801 
L 456.307336 140.50628 
L 454.967421 141.78315 
L 453.471033 143.627847 
L 452.579279 145.026132 
L 451.712697 146.860489 
L 451.226792 148.50198 
L 451.117021 149.710351 
L 451.226792 150.499911 
L 451.555129 151.422689 
L 452.099119 152.197611 
L 452.853933 152.761713 
L 453.812871 153.166046 
L 455.394018 153.50943 
L 457.297785 153.661305 
L 461.94847 153.594473 
L 468.207824 152.805896 
L 472.751066 152.067948 
L 482.00217 150.678641 
L 493.881405 149.525939 
L 498.550846 149.436713 
L 500.585106 149.556522 
L 500.585106 149.556522 
" clip-path="url(#p1490b89ad6)" style="fill: none; stroke: #000000; stroke-width: 1.5; stroke-linecap: round"/>
   </g>
   <g id="legend_14"/>
  </g>
  <g id="axes_15">
   <g id="line2d_15">
    <path d="M 571.819149 149.556522 
L 570.608579 149.219973 
L 568.374736 148.634593 
L 566.628834 148.093456 
L 564.016724 147.33207 
L 560.338269 146.214586 
L 557.616349 145.409377 
L 556.190315 144.946838 
L 554.728346 144.56992 
L 550.954363 143.591225 
L 545.532043 142.521335 
L 540.184528 142.022883 
L 538.706748 141.995766 
L 535.169391 142.092957 
L 533.182512 142.318014 
L 531.319034 142.674707 
L 527.541379 143.95841 
L 526.201464 144.645242 
L 524.705076 145.698933 
L 523.561634 146.850587 
L 522.789172 148.003609 
L 522.460834 148.831719 
L 522.351064 149.662653 
L 522.546099 150.443853 
L 522.94674 151.074323 
L 523.561634 151.662702 
L 524.705076 152.361468 
L 526.201464 152.992998 
L 528.027199 153.539265 
L 530.728191 154.145123 
L 533.182512 154.518291 
L 537.979898 154.77999 
L 542.450409 154.668296 
L 547.085106 154.304948 
L 553.985684 153.354661 
L 559.000822 152.48759 
L 564.016724 151.414519 
L 569.784888 149.982767 
L 571.819149 149.556522 
L 571.819149 149.556522 
" clip-path="url(#pd932865365)" style="fill: none; stroke: #000000; stroke-width: 1.5; stroke-linecap: round"/>
   </g>
   <g id="legend_15"/>
  </g>
  <g id="axes_16">
   <g id="line2d_16">
    <path d="M 643.053191 149.556522 
L 642.748674 149.287476 
L 641.31628 148.164662 
L 639.993756 147.260022 
L 631.572312 142.783421 
L 625.962388 140.341564 
L 623.714713 139.624984 
L 619.872212 138.704206 
L 615.99147 138.350053 
L 612.923585 138.374806 
L 609.213941 138.814413 
L 606.403433 139.453498 
L 604.416555 140.11892 
L 602.553077 140.894734 
L 599.76587 142.413115 
L 597.435506 144.090545 
L 595.939118 145.494204 
L 594.795677 146.825535 
L 594.023214 148.108044 
L 593.633913 149.149664 
L 593.597311 149.730072 
L 593.780142 150.202374 
L 594.180782 150.607518 
L 594.795677 150.895978 
L 595.939118 151.120975 
L 597.435506 151.203054 
L 599.76587 151.10658 
L 608.496076 150.416811 
L 615.219151 149.714662 
L 627.424357 148.565152 
L 631.572312 148.210813 
L 634.676065 148.099601 
L 637.377056 148.198584 
L 639.202792 148.493993 
L 641.590934 149.065946 
L 643.053191 149.556522 
L 643.053191 149.556522 
" clip-path="url(#p29ec67a0d3)" style="fill: none; stroke: #000000; stroke-width: 1.5; stroke-linecap: round"/>
   </g>
   <g id="legend_16"/>
  </g>
  <g id="axes_17">
   <g id="line2d_17">
    <path d="M 144.414894 220.46087 
L 142.952636 220.027582 
L 128.059209 216.843653 
L 125.076415 216.316506 
L 118.903936 215.52266 
L 114.285287 215.244404 
L 109.149608 215.246879 
L 105.142546 215.545318 
L 101.127572 216.184829 
L 98.797208 216.846358 
L 97.30082 217.484111 
L 96.157379 218.19911 
L 95.542484 218.772694 
L 95.141844 219.4654 
L 94.959013 220.225359 
L 94.995615 220.927876 
L 95.251326 221.580239 
L 95.723874 222.121024 
L 96.409066 222.577295 
L 97.642658 223.091181 
L 99.67059 223.61867 
L 103.914779 224.28487 
L 107.090199 224.560145 
L 110.575643 224.631822 
L 114.285287 224.545581 
L 124.315548 223.709684 
L 129.503924 223.051976 
L 134.84052 222.22137 
L 143.976786 220.510553 
L 144.414894 220.46087 
L 144.414894 220.46087 
" clip-path="url(#pb4a0eab431)" style="fill: none; stroke: #000000; stroke-width: 1.5; stroke-linecap: round"/>
   </g>
   <g id="legend_17"/>
  </g>
  <g id="axes_18">
   <g id="line2d_18">
    <path d="M 215.648936 220.46087 
L 214.871871 219.822801 
L 213.912025 219.142818 
L 209.468173 216.346035 
L 206.680966 214.758568 
L 200.020102 211.426092 
L 193.242573 208.844161 
L 189.36183 207.940604 
L 186.280196 207.577826 
L 183.271654 207.49217 
L 179.685873 207.939146 
L 177.661731 208.471497 
L 175.148822 209.497587 
L 173.425284 210.464587 
L 171.371166 211.981411 
L 170.031251 213.181816 
L 168.8767 214.525373 
L 167.643109 216.305536 
L 166.776527 218.05817 
L 166.290622 219.600112 
L 166.193056 220.701348 
L 166.375886 221.364625 
L 166.776527 222.008198 
L 167.391421 222.594887 
L 168.215112 223.080392 
L 169.625264 223.612696 
L 170.904633 223.925466 
L 172.884553 224.198943 
L 176.376588 224.343637 
L 178.324242 224.214949 
L 182.536535 223.513196 
L 188.587215 221.938996 
L 198.558133 219.421084 
L 202.143914 218.860811 
L 205.453199 218.609925 
L 208.404503 218.692379 
L 210.458621 218.96568 
L 212.5895 219.452413 
L 215.648936 220.46087 
L 215.648936 220.46087 
" clip-path="url(#p6de5be47be)" style="fill: none; stroke: #000000; stroke-width: 1.5; stroke-linecap: round"/>
   </g>
   <g id="legend_18"/>
  </g>
  <g id="axes_19">
   <g id="line2d_19">
    <path d="M 286.882979 220.46087 
L 283.032579 218.001478 
L 279.638545 216.228697 
L 278.505852 215.740323 
L 276.687242 214.908529 
L 271.254145 212.59037 
L 269.792176 212.133437 
L 267.5445 211.569235 
L 262.148936 210.781472 
L 259.821257 210.706802 
L 255.248358 210.880958 
L 253.770578 211.024963 
L 250.23322 211.499459 
L 248.895773 211.75603 
L 246.989267 212.337445 
L 245.217319 212.993071 
L 242.605208 214.254054 
L 241.265293 215.12969 
L 239.449154 216.61275 
L 238.625464 217.601347 
L 237.853002 218.925089 
L 237.463701 220.042853 
L 237.427098 220.621609 
L 237.609929 221.040466 
L 238.010569 221.434612 
L 238.877151 221.950585 
L 240.110743 222.417827 
L 242.605208 222.99105 
L 246.989267 223.716692 
L 250.23322 223.996121 
L 253.043728 224.175772 
L 255.99783 224.236937 
L 263.702 224.432173 
L 270.527294 223.979325 
L 273.377957 223.550105 
L 277.308605 222.604703 
L 284.187129 220.548315 
L 286.882979 220.46087 
L 286.882979 220.46087 
" clip-path="url(#p0f85790980)" style="fill: none; stroke: #000000; stroke-width: 1.5; stroke-linecap: round"/>
   </g>
   <g id="legend_19"/>
  </g>
  <g id="axes_20">
   <g id="line2d_20">
    <path d="M 358.117021 220.46087 
L 357.678913 219.996708 
L 356.38011 218.749171 
L 352.926706 215.502548 
L 347.285573 210.879408 
L 343.914222 208.477515 
L 342.488187 207.509496 
L 337.252235 204.748995 
L 334.936042 203.840516 
L 331.0553 202.929379 
L 327.987415 202.669464 
L 325.004621 202.807232 
L 322.851736 203.105535 
L 320.129816 203.961864 
L 317.616907 205.348032 
L 315.89337 206.675721 
L 314.325071 208.212611 
L 312.925933 209.813792 
L 311.708372 211.596255 
L 310.683197 213.422887 
L 309.859506 215.329719 
L 309.087044 217.791535 
L 308.697743 219.666066 
L 308.661141 220.821368 
L 308.843971 221.820286 
L 309.244612 222.711284 
L 309.631034 223.143244 
L 310.385848 223.567565 
L 311.344785 223.821941 
L 313.839251 223.887905 
L 315.352638 223.733071 
L 320.129816 222.855297 
L 322.153958 222.368082 
L 324.27777 221.798828 
L 331.0553 220.032257 
L 337.252235 218.979299 
L 339.534085 218.71377 
L 343.914222 218.522925 
L 348.542648 218.717523 
L 351.936258 219.147761 
L 355.057585 219.832539 
L 356.906451 220.243388 
L 358.117021 220.46087 
L 358.117021 220.46087 
" clip-path="url(#pb3ffa466e5)" style="fill: none; stroke: #000000; stroke-width: 1.5; stroke-linecap: round"/>
   </g>
   <g id="legend_20"/>
  </g>
  <g id="axes_21">
   <g id="line2d_21">
    <path d="M 429.351064 220.46087 
L 427.888806 219.419378 
L 426.291628 218.451424 
L 420.973937 215.746041 
L 415.846042 213.8135 
L 414.440094 213.34802 
L 410.768128 212.288 
L 404.617021 210.996929 
L 396.973782 210.255129 
L 392.701305 210.364221 
L 388.850949 210.985835 
L 387.127412 211.499773 
L 385.073294 212.443447 
L 383.733378 213.276252 
L 382.578828 214.309332 
L 381.61989 215.456757 
L 380.865076 216.708395 
L 380.321087 218.050731 
L 379.992749 219.390977 
L 379.895183 220.739358 
L 380.078014 221.426998 
L 380.478655 222.052218 
L 381.093549 222.660425 
L 382.23699 223.438358 
L 383.733378 224.169594 
L 385.559114 224.788645 
L 388.260105 225.438541 
L 390.714427 225.845306 
L 392.701305 225.981295 
L 396.238663 225.963181 
L 403.063958 225.025787 
L 407.717019 223.96081 
L 412.260261 222.675675 
L 419.155327 220.64988 
L 422.10663 220.011692 
L 423.674929 219.836987 
L 425.500664 219.815078 
L 429.046547 220.351499 
L 429.351064 220.46087 
L 429.351064 220.46087 
" clip-path="url(#p65639a139b)" style="fill: none; stroke: #000000; stroke-width: 1.5; stroke-linecap: round"/>
   </g>
   <g id="legend_21"/>
  </g>
  <g id="axes_22">
   <g id="line2d_22">
    <path d="M 500.585106 220.46087 
L 500.390071 220.418151 
L 498.231095 219.727478 
L 495.394792 218.776279 
L 483.494303 214.994352 
L 480.485761 214.300198 
L 476.627979 213.719387 
L 473.523385 213.502261 
L 468.950486 213.520907 
L 465.319821 213.737292 
L 460.691395 214.271654 
L 457.297785 214.812533 
L 454.967421 215.479499 
L 453.812871 216.019785 
L 452.853933 216.643895 
L 452.099119 217.380512 
L 451.555129 218.262625 
L 451.226792 219.325571 
L 451.117021 220.646783 
L 451.226792 221.354144 
L 451.555129 221.857703 
L 452.099119 222.224652 
L 453.151282 222.614958 
L 455.394018 223.039424 
L 461.312758 223.585637 
L 464.622043 223.40362 
L 466.745855 223.174547 
L 470.4555 222.621313 
L 479.720321 221.169554 
L 486.382307 220.264572 
L 491.617136 219.860733 
L 494.404343 219.875291 
L 496.734707 220.134043 
L 498.848195 220.467107 
L 500.146998 220.506906 
L 500.585106 220.46087 
L 500.585106 220.46087 
" clip-path="url(#p833e573c56)" style="fill: none; stroke: #000000; stroke-width: 1.5; stroke-linecap: round"/>
   </g>
   <g id="legend_22"/>
  </g>
  <g id="axes_23">
   <g id="line2d_23">
    <path d="M 571.819149 220.46087 
L 570.356891 219.63302 
L 560.338269 214.892894 
L 557.616349 213.74195 
L 556.190315 213.096253 
L 554.728346 212.558452 
L 552.480671 211.729046 
L 547.085106 210.039155 
L 542.450409 209.21971 
L 538.706748 209.0478 
L 536.553863 209.09704 
L 533.831944 209.537038 
L 531.319034 210.327716 
L 528.531827 211.763081 
L 526.62806 213.159127 
L 525.4105 214.350141 
L 524.385324 215.623619 
L 523.561634 216.936558 
L 522.789172 218.582501 
L 522.399871 219.91016 
L 522.363269 220.725986 
L 522.546099 221.484065 
L 522.94674 222.185226 
L 523.561634 222.71076 
L 524.385324 223.081609 
L 525.795476 223.417298 
L 528.027199 223.695991 
L 531.319034 223.837196 
L 535.169391 223.776485 
L 546.308191 223.296308 
L 552.480671 222.877463 
L 560.987701 222.123067 
L 565.115447 221.540129 
L 571.819149 220.46087 
L 571.819149 220.46087 
" clip-path="url(#p95670b034a)" style="fill: none; stroke: #000000; stroke-width: 1.5; stroke-linecap: round"/>
   </g>
   <g id="legend_23"/>
  </g>
  <g id="axes_24">
   <g id="line2d_24">
    <path d="M 643.053191 220.46087 
L 642.748674 220.204387 
L 640.69918 218.684337 
L 633.478818 214.019723 
L 627.424357 210.35728 
L 623.714713 208.581287 
L 620.646828 207.48033 
L 618.319149 206.943463 
L 615.99147 206.625204 
L 613.684452 206.543168 
L 611.418571 206.709762 
L 609.940791 206.944676 
L 607.787906 207.445906 
L 605.065986 208.422139 
L 602.553077 209.695196 
L 600.288808 211.170493 
L 598.308888 212.806509 
L 596.644542 214.516484 
L 595.322018 216.208559 
L 594.362172 217.818729 
L 593.780142 219.290702 
L 593.597311 220.20362 
L 593.633913 220.946761 
L 593.889623 221.598986 
L 594.362172 222.170137 
L 595.047364 222.685127 
L 596.280956 223.31352 
L 598.308888 224.013051 
L 602.553077 225.132209 
L 605.065986 225.548268 
L 607.787906 225.787335 
L 610.675909 225.845001 
L 615.219151 225.531347 
L 618.319149 225.093839 
L 621.419146 224.461465 
L 623.714713 223.878752 
L 627.424357 222.693538 
L 632.857454 220.822283 
L 635.808758 220.006371 
L 637.862877 219.697013 
L 639.202792 219.666817 
L 641.018931 219.810912 
L 643.004385 220.436374 
L 643.053191 220.46087 
L 643.053191 220.46087 
" clip-path="url(#pb78d8edd81)" style="fill: none; stroke: #000000; stroke-width: 1.5; stroke-linecap: round"/>
   </g>
   <g id="legend_24"/>
  </g>
  <g id="axes_25">
   <g id="line2d_25">
    <path d="M 144.414894 291.365217 
L 134.219157 287.743954 
L 119.680851 282.962404 
L 115.811594 282.152875 
L 113.529745 281.860727 
L 111.302493 281.679222 
L 109.149608 281.624692 
L 105.778257 281.900411 
L 104.521182 282.108335 
L 102.749234 282.509443 
L 101.127572 283.100519 
L 99.223805 284.091786 
L 98.006244 285.010816 
L 96.981069 286.077032 
L 96.157379 287.228977 
L 95.542484 288.459146 
L 95.141844 289.734632 
L 94.959013 290.969282 
L 94.995615 292.107584 
L 95.251326 293.04732 
L 95.542484 293.505463 
L 95.928906 293.806832 
L 96.68372 294.063119 
L 98.006244 294.283408 
L 100.137123 294.519442 
L 102.749234 294.861113 
L 105.142546 295.276424 
L 107.765135 295.505467 
L 114.285287 295.726861 
L 123.550108 295.337285 
L 130.212094 294.385801 
L 132.934014 293.852377 
L 142.952636 291.624743 
L 144.414894 291.365217 
L 144.414894 291.365217 
" clip-path="url(#p16086e7d57)" style="fill: none; stroke: #000000; stroke-width: 1.5; stroke-linecap: round"/>
   </g>
   <g id="legend_25"/>
  </g>
  <g id="axes_26">
   <g id="line2d_26">
    <path d="M 215.648936 291.365217 
L 214.438366 290.454379 
L 212.953087 289.532348 
L 211.798536 288.84404 
L 208.404503 287.046531 
L 202.143914 284.260655 
L 191.691809 280.397639 
L 189.36183 279.779016 
L 185.519329 279.172046 
L 181.809685 278.955303 
L 179.685873 279.042347 
L 177.661731 279.367409 
L 175.148822 280.181706 
L 172.884553 281.400677 
L 171.856986 282.099531 
L 170.457847 283.246487 
L 169.240287 284.554338 
L 168.215112 285.963648 
L 167.391421 287.426681 
L 166.618959 289.274816 
L 166.229658 290.738126 
L 166.193056 291.679482 
L 166.375886 292.583543 
L 166.776527 293.392143 
L 167.162949 293.797785 
L 167.917762 294.208884 
L 169.240287 294.579863 
L 171.371166 294.908141 
L 173.983276 295.059098 
L 177.012299 295.108881 
L 186.280196 294.683719 
L 197.815472 294.117409 
L 205.453199 293.537493 
L 208.404503 293.131448 
L 213.614676 292.071796 
L 214.871871 291.682708 
L 215.648936 291.365217 
L 215.648936 291.365217 
" clip-path="url(#p8856b676c1)" style="fill: none; stroke: #000000; stroke-width: 1.5; stroke-linecap: round"/>
   </g>
   <g id="legend_26"/>
  </g>
  <g id="axes_27">
   <g id="line2d_27">
    <path d="M 286.882979 291.365217 
L 286.287303 291.148232 
L 279.638545 288.440915 
L 276.05153 287.131479 
L 269.792176 285.206119 
L 266.783634 284.526852 
L 263.702 284.033717 
L 261.372021 283.790946 
L 259.048939 283.671361 
L 255.248358 283.68662 
L 252.325863 283.871318 
L 247.610631 284.525583 
L 243.091029 285.530304 
L 241.265293 286.190691 
L 240.110743 286.806129 
L 239.151805 287.517205 
L 238.396991 288.302472 
L 237.853002 289.216025 
L 237.524664 290.284771 
L 237.414894 291.523454 
L 237.524664 292.243366 
L 237.853002 292.924675 
L 238.396991 293.434941 
L 239.449154 293.945646 
L 241.265293 294.462902 
L 244.659327 295.02546 
L 248.246342 295.434357 
L 250.919916 295.491356 
L 253.043728 295.436989 
L 255.99783 295.233135 
L 259.048939 294.893127 
L 262.925851 294.292732 
L 266.783634 293.499423 
L 275.402099 291.562944 
L 278.505852 291.082225 
L 281.206844 290.931338 
L 283.823543 291.086664 
L 285.672409 291.285106 
L 286.882979 291.365217 
L 286.882979 291.365217 
" clip-path="url(#pb62d19b459)" style="fill: none; stroke: #000000; stroke-width: 1.5; stroke-linecap: round"/>
   </g>
   <g id="legend_27"/>
  </g>
  <g id="axes_28">
   <g id="line2d_28">
    <path d="M 358.117021 291.365217 
L 357.521345 291.234476 
L 355.057585 290.628978 
L 346.636141 288.481239 
L 338.017676 286.859261 
L 335.710658 286.563495 
L 329.513722 286.22439 
L 327.231872 286.222706 
L 324.27777 286.331171 
L 320.792327 286.62384 
L 317.026063 287.246347 
L 314.325071 287.834068 
L 312.499336 288.38531 
L 310.683197 289.154635 
L 309.426002 289.952717 
L 308.953453 290.47391 
L 308.697743 291.034512 
L 308.661141 291.507929 
L 308.843971 291.997356 
L 309.244612 292.426852 
L 309.859506 292.803667 
L 311.002948 293.209027 
L 312.925933 293.635585 
L 317.026063 294.117006 
L 320.129816 294.258371 
L 323.559906 294.274404 
L 327.231872 294.119646 
L 330.282981 293.947691 
L 336.482976 293.471553 
L 347.285573 292.202438 
L 353.840025 291.435876 
L 357.521345 291.308221 
L 358.117021 291.365217 
L 358.117021 291.365217 
" clip-path="url(#p261dec3835)" style="fill: none; stroke: #000000; stroke-width: 1.5; stroke-linecap: round"/>
   </g>
   <g id="legend_28"/>
  </g>
  <g id="axes_29">
   <g id="line2d_29">
    <path d="M 429.351064 291.365217 
L 427.614152 290.695911 
L 420.383093 288.288114 
L 410.768128 285.89013 
L 406.9447 285.090902 
L 403.063958 284.560929 
L 396.973782 284.199552 
L 390.078716 284.690738 
L 386.063742 285.691561 
L 384.159975 286.471522 
L 382.578828 287.407923 
L 381.345236 288.454136 
L 380.478655 289.525913 
L 380.078014 290.351741 
L 379.895183 291.131911 
L 379.931786 291.79959 
L 380.187496 292.383775 
L 380.660044 292.847532 
L 381.345236 293.217192 
L 382.578828 293.585773 
L 384.606761 293.915603 
L 389.457352 294.252259 
L 392.026369 294.266398 
L 399.221457 293.903049 
L 403.840106 293.541906 
L 414.440094 292.706799 
L 421.548639 292.057632 
L 424.627282 291.700553 
L 429.351064 291.365217 
L 429.351064 291.365217 
" clip-path="url(#p9a23d35a09)" style="fill: none; stroke: #000000; stroke-width: 1.5; stroke-linecap: round"/>
   </g>
   <g id="legend_29"/>
  </g>
  <g id="axes_30">
   <g id="line2d_30">
    <path d="M 500.585106 291.365217 
L 499.808041 290.54109 
L 499.122849 290.00357 
L 496.734707 288.239772 
L 493.340673 286.232864 
L 492.20798 285.667067 
L 490.389369 284.664506 
L 485.674137 282.285438 
L 484.956272 281.950375 
L 483.494303 281.436556 
L 481.246628 280.825265 
L 476.627979 280.112752 
L 475.074149 280.034093 
L 471.216366 280.142588 
L 466.745855 280.772184 
L 462.597901 281.735275 
L 460.691395 282.493571 
L 458.919447 283.313548 
L 456.307336 284.826021 
L 454.561434 286.157882 
L 453.151282 287.462295 
L 452.327591 288.485298 
L 451.712697 289.561605 
L 451.226792 290.804092 
L 451.129226 291.486064 
L 451.312057 291.780179 
L 451.894087 292.196492 
L 452.853933 292.628859 
L 454.176457 292.980036 
L 458.919447 293.886404 
L 461.312758 294.224833 
L 464.622043 294.432973 
L 472.751066 294.340877 
L 479.720321 294.109005 
L 485.674137 293.48617 
L 489.104227 292.926899 
L 497.889257 291.143439 
L 498.848195 291.166631 
L 500.390071 291.323045 
L 500.585106 291.365217 
L 500.585106 291.365217 
" clip-path="url(#p1002cc3ec2)" style="fill: none; stroke: #000000; stroke-width: 1.5; stroke-linecap: round"/>
   </g>
   <g id="legend_30"/>
  </g>
  <g id="axes_31">
   <g id="line2d_31">
    <path d="M 571.819149 291.365217 
L 570.837051 290.909921 
L 569.1233 290.242798 
L 567.968749 289.769523 
L 560.987701 287.080687 
L 548.63817 282.930666 
L 541.689542 281.621558 
L 537.979898 281.379204 
L 534.494454 281.500198 
L 532.546801 281.80401 
L 529.595497 282.717459 
L 527.541379 283.76885 
L 526.201464 284.676212 
L 525.046913 285.760027 
L 524.087975 286.954563 
L 523.333161 288.262723 
L 522.546099 290.242343 
L 522.363269 291.119237 
L 522.399871 291.776565 
L 522.655581 292.223302 
L 523.128129 292.553686 
L 524.087975 292.746195 
L 526.201464 293.006026 
L 531.319034 293.419969 
L 533.831944 293.466844 
L 536.553863 293.410045 
L 543.985109 293.127475 
L 547.085106 293.051815 
L 550.954363 292.824472 
L 566.628834 291.450203 
L 571.819149 291.365217 
L 571.819149 291.365217 
" clip-path="url(#pfc5f501b1b)" style="fill: none; stroke: #000000; stroke-width: 1.5; stroke-linecap: round"/>
   </g>
   <g id="legend_31"/>
  </g>
  <g id="axes_32">
   <g id="line2d_32">
    <path d="M 643.053191 291.365217 
L 642.071094 290.753907 
L 640.357342 289.838315 
L 639.202792 289.208303 
L 634.085221 286.484416 
L 628.850392 283.9293 
L 627.424357 283.18872 
L 624.470255 281.842643 
L 619.872212 279.780462 
L 614.449892 278.224852 
L 612.923585 277.99496 
L 609.940791 277.831262 
L 607.787906 277.888558 
L 605.065986 278.363989 
L 602.553077 279.272693 
L 600.82954 280.224364 
L 599.261242 281.401196 
L 597.435506 283.081586 
L 596.280956 284.549416 
L 595.322018 286.089027 
L 594.567204 287.711043 
L 593.780142 290.059248 
L 593.597311 291.0667 
L 593.633913 291.896071 
L 593.889623 292.569712 
L 594.362172 293.069252 
L 595.047364 293.244915 
L 596.644542 293.394496 
L 604.416555 293.532164 
L 617.542234 292.59314 
L 627.424357 291.533185 
L 632.221743 291.132494 
L 637.377056 290.901919 
L 639.608779 290.998146 
L 641.842621 291.210309 
L 643.053191 291.365217 
L 643.053191 291.365217 
" clip-path="url(#pbcf5b8b16f)" style="fill: none; stroke: #000000; stroke-width: 1.5; stroke-linecap: round"/>
   </g>
   <g id="legend_32"/>
  </g>
 </g>
 <defs>
  <clipPath id="p0199ad7fff">
   <rect x="90" y="43.2" width="59.361702" height="59.086957"/>
  </clipPath>
  <clipPath id="pc7ef2a91bc">
   <rect x="161.234043" y="43.2" width="59.361702" height="59.086957"/>
  </clipPath>
  <clipPath id="p9d8d3f1b97">
   <rect x="232.468085" y="43.2" width="59.361702" height="59.086957"/>
  </clipPath>
  <clipPath id="pcd047b9a46">
   <rect x="303.702128" y="43.2" width="59.361702" height="59.086957"/>
  </clipPath>
  <clipPath id="p7f52c35a11">
   <rect x="374.93617" y="43.2" width="59.361702" height="59.086957"/>
  </clipPath>
  <clipPath id="p42c1ccd249">
   <rect x="446.170213" y="43.2" width="59.361702" height="59.086957"/>
  </clipPath>
  <clipPath id="pa149df0f14">
   <rect x="517.404255" y="43.2" width="59.361702" height="59.086957"/>
  </clipPath>
  <clipPath id="pd37a016a0d">
   <rect x="588.638298" y="43.2" width="59.361702" height="59.086957"/>
  </clipPath>
  <clipPath id="pa2c4f626ca">
   <rect x="90" y="114.104348" width="59.361702" height="59.086957"/>
  </clipPath>
  <clipPath id="p6b1e41d77f">
   <rect x="161.234043" y="114.104348" width="59.361702" height="59.086957"/>
  </clipPath>
  <clipPath id="pd693456e53">
   <rect x="232.468085" y="114.104348" width="59.361702" height="59.086957"/>
  </clipPath>
  <clipPath id="p47f4a8d150">
   <rect x="303.702128" y="114.104348" width="59.361702" height="59.086957"/>
  </clipPath>
  <clipPath id="p0754c13abc">
   <rect x="374.93617" y="114.104348" width="59.361702" height="59.086957"/>
  </clipPath>
  <clipPath id="p1490b89ad6">
   <rect x="446.170213" y="114.104348" width="59.361702" height="59.086957"/>
  </clipPath>
  <clipPath id="pd932865365">
   <rect x="517.404255" y="114.104348" width="59.361702" height="59.086957"/>
  </clipPath>
  <clipPath id="p29ec67a0d3">
   <rect x="588.638298" y="114.104348" width="59.361702" height="59.086957"/>
  </clipPath>
  <clipPath id="pb4a0eab431">
   <rect x="90" y="185.008696" width="59.361702" height="59.086957"/>
  </clipPath>
  <clipPath id="p6de5be47be">
   <rect x="161.234043" y="185.008696" width="59.361702" height="59.086957"/>
  </clipPath>
  <clipPath id="p0f85790980">
   <rect x="232.468085" y="185.008696" width="59.361702" height="59.086957"/>
  </clipPath>
  <clipPath id="pb3ffa466e5">
   <rect x="303.702128" y="185.008696" width="59.361702" height="59.086957"/>
  </clipPath>
  <clipPath id="p65639a139b">
   <rect x="374.93617" y="185.008696" width="59.361702" height="59.086957"/>
  </clipPath>
  <clipPath id="p833e573c56">
   <rect x="446.170213" y="185.008696" width="59.361702" height="59.086957"/>
  </clipPath>
  <clipPath id="p95670b034a">
   <rect x="517.404255" y="185.008696" width="59.361702" height="59.086957"/>
  </clipPath>
  <clipPath id="pb78d8edd81">
   <rect x="588.638298" y="185.008696" width="59.361702" height="59.086957"/>
  </clipPath>
  <clipPath id="p16086e7d57">
   <rect x="90" y="255.913043" width="59.361702" height="59.086957"/>
  </clipPath>
  <clipPath id="p8856b676c1">
   <rect x="161.234043" y="255.913043" width="59.361702" height="59.086957"/>
  </clipPath>
  <clipPath id="pb62d19b459">
   <rect x="232.468085" y="255.913043" width="59.361702" height="59.086957"/>
  </clipPath>
  <clipPath id="p261dec3835">
   <rect x="303.702128" y="255.913043" width="59.361702" height="59.086957"/>
  </clipPath>
  <clipPath id="p9a23d35a09">
   <rect x="374.93617" y="255.913043" width="59.361702" height="59.086957"/>
  </clipPath>
  <clipPath id="p1002cc3ec2">
   <rect x="446.170213" y="255.913043" width="59.361702" height="59.086957"/>
  </clipPath>
  <clipPath id="pfc5f501b1b">
   <rect x="517.404255" y="255.913043" width="59.361702" height="59.086957"/>
  </clipPath>
  <clipPath id="pbcf5b8b16f">
   <rect x="588.638298" y="255.913043" width="59.361702" height="59.086957"/>
  </clipPath>
 </defs>
</svg>
