<?xml version="1.0" encoding="utf-8" standalone="no"?>
<!DOCTYPE svg PUBLIC "-//W3C//DTD SVG 1.1//EN"
  "http://www.w3.org/Graphics/SVG/1.1/DTD/svg11.dtd">
<svg xmlns:xlink="http://www.w3.org/1999/xlink" width="720pt" height="360pt" viewBox="0 0 720 360" xmlns="http://www.w3.org/2000/svg" version="1.1">
 <metadata>
  <rdf:RDF xmlns:dc="http://purl.org/dc/elements/1.1/" xmlns:cc="http://creativecommons.org/ns#" xmlns:rdf="http://www.w3.org/1999/02/22-rdf-syntax-ns#">
   <cc:Work>
    <dc:type rdf:resource="http://purl.org/dc/dcmitype/StillImage"/>
    <dc:date>2022-06-18T12:01:48.342997</dc:date>
    <dc:format>image/svg+xml</dc:format>
    <dc:creator>
     <cc:Agent>
      <dc:title>Matplotlib v3.5.1, https://matplotlib.org/</dc:title>
     </cc:Agent>
    </dc:creator>
   </cc:Work>
  </rdf:RDF>
 </metadata>
 <defs>
  <style type="text/css">*{stroke-linejoin: round; stroke-linecap: butt}</style>
 </defs>
 <g id="figure_1">
  <g id="patch_1">
   <path d="M 0 360 
L 720 360 
L 720 0 
L 0 0 
z
" style="fill: #ffffff"/>
  </g>
  <g id="axes_1">
   <g id="line2d_1">
    <path d="M 144.414894 78.652174 
L 142.952636 77.545984 
L 135.446923 73.219897 
L 127.324091 69.447841 
L 125.076415 68.5898 
L 122.780849 67.776588 
L 121.233914 67.26994 
L 115.811594 66.382355 
L 114.285287 66.302713 
L 109.857778 66.464408 
L 108.451831 66.634272 
L 106.427688 67.050204 
L 103.914779 67.984411 
L 101.127572 69.579636 
L 98.797208 71.492082 
L 97.30082 73.195928 
L 96.409066 74.506014 
L 95.542484 76.304277 
L 95.056579 77.73707 
L 94.946809 78.78379 
L 95.056579 79.432064 
L 95.384916 80.140165 
L 95.723874 80.455369 
L 96.157379 80.516603 
L 97.30082 80.351942 
L 99.223805 79.832846 
L 102.749234 78.924633 
L 106.427688 78.326704 
L 110.575643 77.839267 
L 113.529745 77.574861 
L 122.780849 77.479289 
L 125.076415 77.562393 
L 134.219157 77.972084 
L 144.414894 78.652174 
L 144.414894 78.652174 
" clip-path="url(#p0afd0f3641)" style="fill: none; stroke: #000000; stroke-width: 1.5; stroke-linecap: round"/>
   </g>
   <g id="legend_1"/>
  </g>
  <g id="axes_2">
   <g id="line2d_2">
    <path d="M 215.648936 78.652174 
L 214.871871 78.251836 
L 212.953087 77.285452 
L 209.972801 75.909378 
L 204.817488 73.75306 
L 201.446137 72.524102 
L 198.558133 71.627911 
L 195.549591 70.882485 
L 192.467957 70.294745 
L 190.137979 70.037894 
L 187.814896 69.926626 
L 184.763787 69.962029 
L 181.809685 70.17985 
L 178.324242 70.61723 
L 175.148822 71.254333 
L 171.856986 72.263166 
L 170.031251 73.122522 
L 168.8767 73.872761 
L 167.917762 74.730566 
L 166.957916 75.898481 
L 166.485368 76.864122 
L 166.229658 77.928859 
L 166.193056 78.999824 
L 166.375886 80.022316 
L 166.776527 80.885384 
L 167.391421 81.533099 
L 168.215112 82.051292 
L 169.625264 82.635751 
L 171.371166 83.09476 
L 175.755224 83.953577 
L 178.324242 84.202266 
L 182.536535 84.31889 
L 187.814896 84.162985 
L 192.467957 83.746779 
L 198.558133 82.721512 
L 204.168056 81.47442 
L 212.5895 79.486182 
L 214.186679 79.110051 
L 215.648936 78.652174 
L 215.648936 78.652174 
" clip-path="url(#p3248bcbc9c)" style="fill: none; stroke: #000000; stroke-width: 1.5; stroke-linecap: round"/>
   </g>
   <g id="legend_2"/>
  </g>
  <g id="axes_3">
   <g id="line2d_3">
    <path d="M 286.882979 78.652174 
L 285.672409 78.028236 
L 284.528967 77.596525 
L 281.692664 76.454932 
L 279.080553 75.413481 
L 276.687242 74.311853 
L 273.377957 72.924033 
L 271.254145 71.939438 
L 266.783634 69.925741 
L 263.702 68.424147 
L 257.514239 66.390698 
L 253.770578 65.650355 
L 251.617693 65.376252 
L 248.895773 65.452735 
L 246.382864 66.019305 
L 244.659327 66.750781 
L 243.091029 67.741676 
L 241.69189 68.910448 
L 240.474329 70.316546 
L 239.449154 71.901013 
L 238.625464 73.563306 
L 238.010569 75.286215 
L 237.524664 77.342985 
L 237.414894 78.859485 
L 237.524664 79.846015 
L 237.853002 80.853345 
L 238.191959 81.252663 
L 238.625464 81.283409 
L 239.449154 81.016822 
L 243.595657 79.248356 
L 245.79202 78.786546 
L 250.919916 78.347797 
L 274.064652 78.522677 
L 277.308605 78.468833 
L 283.438566 78.717026 
L 285.900881 78.779466 
L 286.882979 78.652174 
L 286.882979 78.652174 
" clip-path="url(#pc9c26186ad)" style="fill: none; stroke: #000000; stroke-width: 1.5; stroke-linecap: round"/>
   </g>
   <g id="legend_3"/>
  </g>
  <g id="axes_4">
   <g id="line2d_4">
    <path d="M 358.117021 78.652174 
L 357.134924 78.078277 
L 349.149051 73.937779 
L 341.761337 70.818467 
L 339.534085 70.023282 
L 335.710658 68.882907 
L 332.606064 68.303716 
L 331.0553 68.095409 
L 327.987415 67.923217 
L 325.004621 68.050043 
L 322.153958 68.4443 
L 320.129816 68.902691 
L 317.026063 69.96651 
L 314.8297 71.028076 
L 312.925933 72.225533 
L 311.708372 73.215957 
L 310.385848 74.631498 
L 309.426002 76.027713 
L 308.953453 77.080726 
L 308.697743 78.071137 
L 308.661141 78.920536 
L 308.843971 79.724395 
L 309.244612 80.48428 
L 309.859506 81.16027 
L 310.683197 81.748984 
L 312.093349 82.416938 
L 313.839251 82.962082 
L 316.451361 83.492139 
L 318.844673 83.844612 
L 321.467263 83.967329 
L 325.739739 83.814765 
L 328.748281 83.508324 
L 332.606064 82.876622 
L 338.778543 81.469991 
L 350.314596 78.763885 
L 352.440886 78.465451 
L 354.672609 78.363388 
L 356.082761 78.389674 
L 358.117021 78.652174 
L 358.117021 78.652174 
" clip-path="url(#p4da5709013)" style="fill: none; stroke: #000000; stroke-width: 1.5; stroke-linecap: round"/>
   </g>
   <g id="legend_4"/>
  </g>
  <g id="axes_5">
   <g id="line2d_5">
    <path d="M 429.351064 78.652174 
L 428.755388 78.371408 
L 427.316803 77.711647 
L 422.10663 75.473793 
L 417.870184 73.898071 
L 413.72223 72.530122 
L 408.486278 71.311549 
L 404.617021 70.804234 
L 400.747765 70.60755 
L 397.716443 70.666701 
L 394.793948 70.894157 
L 391.363859 71.415863 
L 388.260105 72.121441 
L 386.063742 72.813675 
L 384.159975 73.612936 
L 382.578828 74.50911 
L 381.345236 75.495024 
L 380.660044 76.270718 
L 380.187496 77.150033 
L 379.931786 78.091219 
L 379.895183 78.890634 
L 380.078014 79.574201 
L 380.478655 80.136121 
L 381.093549 80.633219 
L 382.23699 81.284557 
L 383.733378 81.928412 
L 385.559114 82.478849 
L 388.260105 83.145209 
L 390.714427 83.566676 
L 393.388001 83.785662 
L 395.511813 83.852665 
L 397.716443 83.836826 
L 401.517024 83.575503 
L 406.170085 82.908362 
L 410.012585 82.078749 
L 414.440094 80.855891 
L 420.973937 79.047513 
L 423.674929 78.578135 
L 425.906651 78.443871 
L 427.614152 78.453509 
L 429.351064 78.652174 
L 429.351064 78.652174 
" clip-path="url(#pa5e159b5a0)" style="fill: none; stroke: #000000; stroke-width: 1.5; stroke-linecap: round"/>
   </g>
   <g id="legend_5"/>
  </g>
  <g id="axes_6">
   <g id="line2d_6">
    <path d="M 500.585106 78.652174 
L 499.603009 78.28793 
L 497.889257 77.79289 
L 496.30811 77.299756 
L 494.404343 76.721844 
L 490.389369 75.531169 
L 486.382307 74.402576 
L 484.956272 73.950525 
L 483.494303 73.613107 
L 480.485761 72.919056 
L 478.178743 72.388194 
L 474.298 71.812466 
L 468.207824 71.386715 
L 461.94847 71.875327 
L 460.084992 72.276023 
L 455.840803 73.789233 
L 454.176457 74.764801 
L 452.853933 75.835171 
L 451.894087 76.907674 
L 451.312057 77.86594 
L 451.129226 78.484888 
L 451.165828 78.953319 
L 451.421538 79.401805 
L 451.894087 79.777044 
L 452.579279 80.065444 
L 453.812871 80.331216 
L 456.307336 80.600874 
L 460.691395 80.724018 
L 466.027991 80.743879 
L 469.699958 80.690737 
L 475.074149 80.740317 
L 485.674137 80.504847 
L 490.389369 80.143747 
L 493.881405 79.670177 
L 500.585106 78.652174 
L 500.585106 78.652174 
" clip-path="url(#pa2a5bd7af7)" style="fill: none; stroke: #000000; stroke-width: 1.5; stroke-linecap: round"/>
   </g>
   <g id="legend_6"/>
  </g>
  <g id="axes_7">
   <g id="line2d_7">
    <path d="M 571.819149 78.652174 
L 571.381041 78.305111 
L 566.628834 74.905065 
L 559.675758 70.772653 
L 555.463465 68.524344 
L 552.480671 67.040557 
L 549.412785 65.614998 
L 543.985109 63.760959 
L 541.689542 63.260028 
L 539.441867 62.925152 
L 536.553863 62.935473 
L 535.169391 63.143939 
L 532.546801 63.882092 
L 529.595497 65.441523 
L 527.541379 67.126816 
L 526.62806 68.040763 
L 525.4105 69.622787 
L 524.087975 71.977899 
L 523.333161 73.784948 
L 522.789172 75.603211 
L 522.399871 77.780402 
L 522.363269 79.066519 
L 522.546099 80.17094 
L 522.94674 81.189189 
L 523.561634 82.098852 
L 524.385324 82.909796 
L 525.4105 83.635217 
L 526.62806 84.252538 
L 528.531827 84.895086 
L 530.728191 85.384029 
L 532.546801 85.608825 
L 534.494454 85.648985 
L 537.262034 85.409612 
L 543.21585 83.93305 
L 556.190315 79.338841 
L 559.000822 78.601474 
L 561.623412 78.069687 
L 564.016724 77.831594 
L 565.638385 77.78478 
L 567.968749 77.942855 
L 570.356891 78.340078 
L 571.624114 78.585224 
L 571.819149 78.652174 
L 571.819149 78.652174 
" clip-path="url(#pb4f9bd19de)" style="fill: none; stroke: #000000; stroke-width: 1.5; stroke-linecap: round"/>
   </g>
   <g id="legend_7"/>
  </g>
  <g id="axes_8">
   <g id="line2d_8">
    <path d="M 643.053191 78.652174 
L 634.676065 74.619828 
L 629.548169 72.470414 
L 625.962388 71.311677 
L 622.953846 70.615672 
L 620.646828 70.248675 
L 616.766086 69.923918 
L 612.923585 69.947412 
L 608.496076 70.248135 
L 600.288808 71.623023 
L 597.862103 72.368356 
L 596.644542 72.921196 
L 595.619367 73.632316 
L 594.795677 74.50056 
L 594.362172 75.156782 
L 593.889623 76.348885 
L 593.633913 77.730074 
L 593.597311 79.067649 
L 593.780142 80.142422 
L 594.180782 80.991463 
L 594.795677 81.598535 
L 595.939118 82.288426 
L 597.435506 82.881392 
L 600.288808 83.679112 
L 604.416555 84.723716 
L 606.403433 85.063018 
L 610.675909 85.377859 
L 612.923585 85.388912 
L 615.99147 85.158262 
L 618.319149 84.820147 
L 621.419146 84.079371 
L 625.219727 82.75765 
L 634.676065 79.1304 
L 636.872428 78.633228 
L 638.776195 78.441936 
L 641.018931 78.486721 
L 643.053191 78.652174 
L 643.053191 78.652174 
" clip-path="url(#p03fe5ca240)" style="fill: none; stroke: #000000; stroke-width: 1.5; stroke-linecap: round"/>
   </g>
   <g id="legend_8"/>
  </g>
  <g id="axes_9">
   <g id="line2d_9">
    <path d="M 144.414894 149.556522 
L 143.637828 149.210936 
L 142.677982 148.827933 
L 136.037767 146.109497 
L 134.219157 145.424831 
L 125.076415 142.185639 
L 122.780849 141.437605 
L 121.233914 140.939524 
L 116.580854 139.95906 
L 114.285287 139.636634 
L 109.857778 139.376761 
L 107.765135 139.424031 
L 105.142546 139.742284 
L 102.191242 140.551592 
L 100.137123 141.515441 
L 98.797208 142.368939 
L 97.642658 143.420744 
L 96.68372 144.578767 
L 95.928906 145.801715 
L 95.384916 147.101082 
L 95.056579 148.388517 
L 94.946809 149.739553 
L 95.056579 150.578447 
L 95.384916 151.411611 
L 95.928906 152.037889 
L 96.68372 152.505274 
L 97.642658 152.900245 
L 100.137123 153.555163 
L 105.778257 154.587502 
L 111.302493 154.696783 
L 118.903936 154.245667 
L 122.00853 153.876597 
L 128.786059 152.819166 
L 137.17046 150.992308 
L 141.355458 150.089764 
L 144.414894 149.556522 
L 144.414894 149.556522 
" clip-path="url(#pec1dd2315b)" style="fill: none; stroke: #000000; stroke-width: 1.5; stroke-linecap: round"/>
   </g>
   <g id="legend_9"/>
  </g>
  <g id="axes_10">
   <g id="line2d_10">
    <path d="M 215.648936 149.556522 
L 214.666839 148.922875 
L 210.458621 146.70057 
L 204.168056 144.154082 
L 198.558133 142.431601 
L 195.549591 141.780451 
L 193.242573 141.365781 
L 190.137979 141.050309 
L 187.045637 140.946099 
L 184.014316 141.011066 
L 181.091821 141.19309 
L 176.376588 141.673136 
L 172.361615 142.462122 
L 170.457847 143.159357 
L 169.240287 143.816806 
L 168.215112 144.623648 
L 167.391421 145.554281 
L 166.776527 146.560928 
L 166.375886 147.758695 
L 166.193056 149.109935 
L 166.229658 150.397011 
L 166.485368 151.54111 
L 166.957916 152.429685 
L 167.643109 153.051304 
L 168.534863 153.561197 
L 170.031251 154.174787 
L 173.425284 155.126987 
L 176.376588 155.790704 
L 180.383651 156.222329 
L 184.014316 156.355569 
L 188.587215 156.341991 
L 192.467957 156.107214 
L 197.815472 155.268471 
L 200.737966 154.624457 
L 204.817488 153.513937 
L 212.204524 151.165424 
L 214.871871 149.996013 
L 215.648936 149.556522 
L 215.648936 149.556522 
" clip-path="url(#p42c90bcfa6)" style="fill: none; stroke: #000000; stroke-width: 1.5; stroke-linecap: round"/>
   </g>
   <g id="legend_10"/>
  </g>
  <g id="axes_11">
   <g id="line2d_11">
    <path d="M 286.882979 149.556522 
L 286.105913 149.127094 
L 285.146067 148.645915 
L 271.972009 142.9904 
L 269.049514 141.925368 
L 263.702 140.300886 
L 260.595873 139.661787 
L 256.753372 139.280477 
L 253.770578 139.298872 
L 251.617693 139.472552 
L 248.895773 139.978361 
L 245.79202 140.957335 
L 244.118595 141.701741 
L 242.138675 142.830653 
L 240.474329 144.131911 
L 239.151805 145.558753 
L 238.191959 146.989506 
L 237.719411 148.057245 
L 237.427098 149.32031 
L 237.463701 149.971078 
L 237.719411 150.604047 
L 238.191959 151.223324 
L 239.151805 152.072687 
L 240.474329 152.861204 
L 242.138675 153.616082 
L 244.659327 154.43965 
L 247.610631 155.114715 
L 250.23322 155.363673 
L 253.770578 155.386855 
L 258.279679 154.910657 
L 262.148936 154.135116 
L 267.5445 152.677398 
L 276.05153 150.283077 
L 279.638545 149.536504 
L 282.159197 149.269815 
L 285.672409 149.365664 
L 286.882979 149.556522 
L 286.882979 149.556522 
" clip-path="url(#p1734963fa3)" style="fill: none; stroke: #000000; stroke-width: 1.5; stroke-linecap: round"/>
   </g>
   <g id="legend_11"/>
  </g>
  <g id="axes_12">
   <g id="line2d_12">
    <path d="M 358.117021 149.556522 
L 357.134924 148.946342 
L 348.542648 144.748866 
L 342.488187 142.029718 
L 341.026218 141.465675 
L 338.778543 140.630407 
L 334.159894 139.201103 
L 331.829915 138.699402 
L 327.987415 138.290052 
L 325.004621 138.310599 
L 322.851736 138.48923 
L 320.129816 139.067306 
L 317.616907 139.94286 
L 315.352638 141.091476 
L 313.839251 142.071093 
L 312.499336 143.110056 
L 311.002948 144.667804 
L 310.111194 145.848661 
L 309.244612 147.416555 
L 308.758707 148.791527 
L 308.661141 149.758227 
L 308.843971 150.332073 
L 309.244612 150.912368 
L 309.859506 151.457395 
L 310.683197 151.928133 
L 312.093349 152.449231 
L 313.839251 152.883255 
L 316.451361 153.254804 
L 318.844673 153.489682 
L 321.467263 153.496576 
L 325.004621 153.307481 
L 331.829915 152.47034 
L 337.252235 151.532389 
L 343.206052 150.410838 
L 349.739895 149.423431 
L 352.926706 149.156305 
L 355.057585 149.176967 
L 358.117021 149.556522 
L 358.117021 149.556522 
" clip-path="url(#pf24b72e474)" style="fill: none; stroke: #000000; stroke-width: 1.5; stroke-linecap: round"/>
   </g>
   <g id="legend_12"/>
  </g>
  <g id="axes_13">
   <g id="line2d_13">
    <path d="M 429.351064 149.556522 
L 426.291628 148.238699 
L 425.906651 148.14306 
L 424.160749 147.296163 
L 420.973937 145.845262 
L 419.155327 145.035216 
L 406.170085 139.771067 
L 399.982324 138.217381 
L 396.973782 137.849147 
L 394.793948 137.8645 
L 393.388001 137.915718 
L 392.026369 138.049196 
L 390.078716 138.447973 
L 387.127412 139.570727 
L 385.559114 140.510263 
L 384.159975 141.54281 
L 382.942415 142.734641 
L 381.917239 144.047086 
L 381.093549 145.454471 
L 380.321087 147.335645 
L 379.931786 148.926873 
L 379.895183 149.834033 
L 380.078014 150.46309 
L 380.478655 150.989478 
L 381.093549 151.434587 
L 382.23699 151.919959 
L 383.733378 152.295323 
L 386.063742 152.666142 
L 388.850949 152.898087 
L 390.714427 152.858207 
L 395.511813 152.253653 
L 399.221457 151.725598 
L 401.517024 151.330352 
L 405.393936 150.779106 
L 413.72223 149.647982 
L 418.519615 149.195904 
L 424.160749 148.921619 
L 426.997052 149.093531 
L 429.351064 149.556522 
L 429.351064 149.556522 
" clip-path="url(#p6ce5219b09)" style="fill: none; stroke: #000000; stroke-width: 1.5; stroke-linecap: round"/>
   </g>
   <g id="legend_13"/>
  </g>
  <g id="axes_14">
   <g id="line2d_14">
    <path d="M 500.585106 149.556522 
L 499.989431 149.297219 
L 498.848195 148.835516 
L 485.674137 143.870418 
L 482.00217 142.754467 
L 477.404127 141.505659 
L 473.523385 140.858 
L 469.699958 140.558711 
L 466.745855 140.554004 
L 463.935348 140.741552 
L 461.312758 141.173562 
L 458.361455 142.087556 
L 456.307336 143.006174 
L 454.967421 143.805596 
L 453.471033 145.017702 
L 452.327591 146.333948 
L 451.712697 147.330918 
L 451.312057 148.317128 
L 451.129226 149.261604 
L 451.165828 150.132567 
L 451.421538 150.999057 
L 451.894087 151.775982 
L 452.579279 152.44324 
L 453.471033 153.034491 
L 454.967421 153.745387 
L 456.793156 154.343672 
L 459.494148 154.984863 
L 461.94847 155.370387 
L 466.027991 155.584151 
L 470.4555 155.417352 
L 475.851064 154.868741 
L 482.00217 153.903526 
L 487.76678 152.835857 
L 492.782681 151.700762 
L 500.585106 149.556522 
L 500.585106 149.556522 
" clip-path="url(#pf1595c890e)" style="fill: none; stroke: #000000; stroke-width: 1.5; stroke-linecap: round"/>
   </g>
   <g id="legend_14"/>
  </g>
  <g id="axes_15">
   <g id="line2d_15">
    <path d="M 571.819149 149.556522 
L 569.465137 148.2258 
L 560.338269 143.760577 
L 557.616349 142.514795 
L 556.190315 141.817608 
L 554.728346 141.204361 
L 552.480671 140.285171 
L 550.185104 139.367845 
L 548.63817 138.767616 
L 542.450409 137.337959 
L 539.441867 137.070687 
L 537.262034 137.178196 
L 535.856086 137.284031 
L 533.831944 137.633864 
L 531.319034 138.518554 
L 529.054765 139.807851 
L 528.027199 140.569666 
L 526.201464 142.181124 
L 525.046913 143.576959 
L 523.813321 145.476847 
L 522.94674 147.420294 
L 522.399871 149.045835 
L 522.363269 149.783633 
L 522.546099 150.380914 
L 522.94674 150.884618 
L 523.333161 151.011953 
L 524.705076 150.823073 
L 528.027199 150.096202 
L 530.728191 149.633685 
L 539.441867 148.816769 
L 543.985109 148.707022 
L 563.442022 149.278771 
L 568.759713 149.403897 
L 571.819149 149.556522 
L 571.819149 149.556522 
" clip-path="url(#p33629a32ea)" style="fill: none; stroke: #000000; stroke-width: 1.5; stroke-linecap: round"/>
   </g>
   <g id="legend_15"/>
  </g>
  <g id="axes_16">
   <g id="line2d_16">
    <path d="M 643.053191 149.556522 
L 638.776195 148.251564 
L 636.872428 147.664925 
L 631.572312 146.034668 
L 628.850392 145.238154 
L 627.424357 144.789912 
L 625.962388 144.425169 
L 622.188406 143.482162 
L 616.766086 142.476664 
L 611.418571 142.029593 
L 609.940791 142.014891 
L 606.403433 142.146428 
L 604.416555 142.379914 
L 602.553077 142.73854 
L 599.261242 143.791726 
L 597.435506 144.67693 
L 595.939118 145.720361 
L 594.795677 146.862817 
L 594.180782 147.716762 
L 593.780142 148.563723 
L 593.597311 149.335442 
L 593.633913 149.973046 
L 593.889623 150.585549 
L 594.362172 151.138192 
L 595.047364 151.670491 
L 596.280956 152.309952 
L 598.308888 153.010775 
L 601.387532 153.682725 
L 603.15948 153.973289 
L 605.728497 154.189169 
L 609.940791 154.224615 
L 617.542234 153.64785 
L 622.188406 153.018678 
L 643.053191 149.556522 
L 643.053191 149.556522 
" clip-path="url(#pbe2ffabb23)" style="fill: none; stroke: #000000; stroke-width: 1.5; stroke-linecap: round"/>
   </g>
   <g id="legend_16"/>
  </g>
  <g id="axes_17">
   <g id="line2d_17">
    <path d="M 144.414894 220.46087 
L 143.637828 219.775851 
L 142.380633 218.825017 
L 140.564494 217.579983 
L 136.612468 215.333674 
L 134.219157 214.123095 
L 130.212094 212.385993 
L 128.059209 211.590604 
L 126.581429 211.067138 
L 122.00853 209.972546 
L 119.680851 209.692707 
L 116.580854 209.586491 
L 113.529745 209.74906 
L 110.575643 210.132044 
L 107.765135 210.741354 
L 105.142546 211.578651 
L 101.65051 213.181298 
L 99.67059 214.422463 
L 98.006244 215.740254 
L 96.409066 217.375717 
L 95.542484 218.640283 
L 95.056579 219.807082 
L 94.959013 220.626586 
L 95.141844 221.134776 
L 95.542484 221.593618 
L 96.409066 222.157194 
L 98.006244 222.798371 
L 99.67059 223.280659 
L 103.323935 223.946827 
L 105.778257 224.247655 
L 109.857778 224.356286 
L 115.046154 224.012753 
L 118.903936 223.523373 
L 123.550108 222.680962 
L 128.786059 221.351408 
L 132.934014 220.237744 
L 135.446923 219.705003 
L 138.23413 219.349061 
L 140.137897 219.387164 
L 142.060882 219.663262 
L 143.432796 220.06102 
L 144.414894 220.46087 
L 144.414894 220.46087 
" clip-path="url(#p141fa2c2a2)" style="fill: none; stroke: #000000; stroke-width: 1.5; stroke-linecap: round"/>
   </g>
   <g id="legend_17"/>
  </g>
  <g id="axes_18">
   <g id="line2d_18">
    <path d="M 215.648936 220.46087 
L 214.666839 219.844407 
L 212.953087 218.899945 
L 211.798536 218.257154 
L 206.680966 215.541552 
L 192.467957 208.961887 
L 187.045637 207.383706 
L 185.519329 207.140491 
L 182.536535 206.940847 
L 180.383651 206.97725 
L 177.661731 207.421152 
L 175.148822 208.304152 
L 173.425284 209.235894 
L 171.856986 210.396722 
L 170.457847 211.629265 
L 169.240287 213.030102 
L 168.215112 214.555756 
L 167.391421 216.160852 
L 166.618959 218.259638 
L 166.229658 219.833365 
L 166.193056 220.758183 
L 166.375886 221.49987 
L 166.776527 222.103761 
L 167.162949 222.362143 
L 168.534863 222.730982 
L 170.457847 222.990501 
L 175.755224 223.400341 
L 178.324242 223.392215 
L 191.691809 222.271869 
L 208.404503 220.295187 
L 210.925154 220.188243 
L 215.648936 220.46087 
L 215.648936 220.46087 
" clip-path="url(#pd9fb09453e)" style="fill: none; stroke: #000000; stroke-width: 1.5; stroke-linecap: round"/>
   </g>
   <g id="legend_18"/>
  </g>
  <g id="axes_19">
   <g id="line2d_19">
    <path d="M 286.882979 220.46087 
L 276.05153 215.890848 
L 271.254145 214.202501 
L 269.792176 213.793354 
L 267.5445 213.167802 
L 262.148936 211.97839 
L 257.514239 211.515416 
L 253.043728 211.582829 
L 250.23322 211.854464 
L 247.610631 212.355152 
L 244.118595 213.53071 
L 242.605208 214.24078 
L 241.265293 215.034835 
L 239.768905 216.238542 
L 238.625464 217.515382 
L 238.010569 218.451986 
L 237.609929 219.37631 
L 237.427098 220.215671 
L 237.463701 220.917891 
L 237.719411 221.584407 
L 238.191959 222.17203 
L 238.877151 222.68165 
L 239.768905 223.099604 
L 241.265293 223.566882 
L 243.091029 223.902896 
L 245.79202 224.218607 
L 248.246342 224.356209 
L 253.770578 224.159786 
L 266.018193 222.797957 
L 271.972009 222.000926 
L 284.528967 220.540063 
L 286.882979 220.46087 
L 286.882979 220.46087 
" clip-path="url(#pde9f9052b4)" style="fill: none; stroke: #000000; stroke-width: 1.5; stroke-linecap: round"/>
   </g>
   <g id="legend_19"/>
  </g>
  <g id="axes_20">
   <g id="line2d_20">
    <path d="M 358.117021 220.46087 
L 357.134924 219.673386 
L 347.285573 212.567991 
L 339.534085 208.228112 
L 335.710658 206.507189 
L 332.606064 205.568044 
L 331.0553 205.180854 
L 327.987415 204.746477 
L 325.004621 204.677169 
L 322.851736 204.854547 
L 320.792327 205.319689 
L 318.844673 205.981295 
L 315.89337 207.667682 
L 314.325071 208.94824 
L 312.925933 210.329945 
L 311.708372 211.881021 
L 310.683197 213.520628 
L 309.859506 215.202054 
L 309.244612 216.873663 
L 308.843971 218.471358 
L 308.661141 219.976766 
L 308.697743 221.395124 
L 308.953453 222.790056 
L 309.426002 224.059322 
L 310.111194 225.079409 
L 311.002948 225.881656 
L 312.093349 226.524293 
L 313.372718 227.042206 
L 314.8297 227.393365 
L 317.616907 227.680664 
L 320.129816 227.657563 
L 322.153958 227.482544 
L 324.27777 227.231939 
L 326.482401 226.928107 
L 331.0553 226.124005 
L 334.936042 225.396887 
L 348.542648 222.805068 
L 354.672609 221.366338 
L 356.082761 220.991231 
L 358.007251 220.497669 
L 358.117021 220.46087 
L 358.117021 220.46087 
" clip-path="url(#p5690c82b1d)" style="fill: none; stroke: #000000; stroke-width: 1.5; stroke-linecap: round"/>
   </g>
   <g id="legend_20"/>
  </g>
  <g id="axes_21">
   <g id="line2d_21">
    <path d="M 429.351064 220.46087 
L 428.140494 219.829274 
L 426.655215 219.194035 
L 426.291628 218.998794 
L 425.906651 218.920613 
L 424.627282 218.346842 
L 422.647362 217.49513 
L 415.148264 214.678614 
L 413.72223 214.1142 
L 412.260261 213.629824 
L 406.9447 211.903934 
L 404.617021 211.344155 
L 399.221457 210.536024 
L 394.793948 210.438109 
L 393.388001 210.500083 
L 392.026369 210.636767 
L 390.078716 211.008196 
L 386.58668 212.273513 
L 385.073294 213.099131 
L 383.733378 213.990227 
L 382.23699 215.409028 
L 381.345236 216.555084 
L 380.660044 217.802636 
L 380.078014 219.297063 
L 379.895183 220.203444 
L 379.931786 220.891101 
L 380.187496 221.40277 
L 380.660044 221.746246 
L 381.345236 221.807011 
L 384.606761 221.668536 
L 394.793948 221.048389 
L 396.973782 220.822542 
L 409.251719 220.007281 
L 414.440094 219.827281 
L 422.647362 219.733974 
L 425.500664 219.89116 
L 428.912956 220.327059 
L 429.351064 220.46087 
L 429.351064 220.46087 
" clip-path="url(#pc578a0cca9)" style="fill: none; stroke: #000000; stroke-width: 1.5; stroke-linecap: round"/>
   </g>
   <g id="legend_21"/>
  </g>
  <g id="axes_22">
   <g id="line2d_22">
    <path d="M 500.585106 220.46087 
L 500.280589 220.399165 
L 498.550846 219.992903 
L 481.246628 214.808811 
L 476.627979 213.899933 
L 472.751066 213.513391 
L 469.699958 213.430354 
L 466.745855 213.580144 
L 463.935348 213.907621 
L 461.94847 214.240133 
L 458.919447 214.954807 
L 456.307336 215.800772 
L 454.561434 216.57334 
L 453.151282 217.424216 
L 451.894087 218.49199 
L 451.421538 219.204857 
L 451.165828 219.980386 
L 451.129226 220.687767 
L 451.312057 221.384044 
L 451.712697 221.988674 
L 452.327591 222.551236 
L 453.471033 223.248847 
L 454.967421 223.903447 
L 457.297785 224.611129 
L 460.084992 225.289153 
L 462.597901 225.651882 
L 465.319821 225.857347 
L 467.472706 225.898579 
L 472.751066 225.627065 
L 477.404127 225.01518 
L 484.956272 223.442481 
L 493.881405 221.293085 
L 497.525671 220.653718 
L 500.585106 220.46087 
L 500.585106 220.46087 
" clip-path="url(#p5961223bdd)" style="fill: none; stroke: #000000; stroke-width: 1.5; stroke-linecap: round"/>
   </g>
   <g id="legend_22"/>
  </g>
  <g id="axes_23">
   <g id="line2d_23">
    <path d="M 571.819149 220.46087 
L 568.759713 218.928309 
L 568.374736 218.842279 
L 567.542153 218.441316 
L 564.016724 217.007431 
L 562.244776 216.269231 
L 558.314127 214.809357 
L 554.728346 213.477494 
L 548.63817 211.329996 
L 543.21585 210.113031 
L 540.934 209.844482 
L 538.706748 209.662766 
L 536.553863 209.583582 
L 533.831944 209.817488 
L 530.728191 210.615609 
L 529.054765 211.340542 
L 527.541379 212.214248 
L 526.201464 213.204772 
L 524.705076 214.773932 
L 523.813321 216.026431 
L 523.128129 217.343718 
L 522.655581 218.633434 
L 522.363269 220.135577 
L 522.399871 221.058376 
L 522.655581 221.865176 
L 523.128129 222.494684 
L 523.813321 222.845214 
L 525.046913 223.072673 
L 527.541379 223.170887 
L 535.169391 223.000986 
L 547.085106 222.004991 
L 560.987701 220.802836 
L 567.968749 220.436823 
L 571.819149 220.46087 
L 571.819149 220.46087 
" clip-path="url(#p6e531aa4be)" style="fill: none; stroke: #000000; stroke-width: 1.5; stroke-linecap: round"/>
   </g>
   <g id="legend_23"/>
  </g>
  <g id="axes_24">
   <g id="line2d_24">
    <path d="M 643.053191 220.46087 
L 642.276126 220.193594 
L 641.31628 219.915111 
L 625.962388 215.592073 
L 619.872212 214.214696 
L 615.219151 213.562781 
L 612.168043 213.306628 
L 609.213941 213.187023 
L 605.728497 213.254777 
L 603.780843 213.462841 
L 600.288808 214.231941 
L 598.775421 214.758078 
L 597.435506 215.378913 
L 595.939118 216.386863 
L 595.047364 217.223673 
L 594.362172 218.114205 
L 593.889623 219.031794 
L 593.633913 219.917512 
L 593.597311 220.715264 
L 593.780142 221.42316 
L 594.180782 222.002783 
L 594.795677 222.476652 
L 595.939118 223.000845 
L 597.435506 223.478427 
L 599.76587 223.986112 
L 603.780843 224.661964 
L 606.403433 224.816532 
L 610.675909 224.775461 
L 612.923585 224.690486 
L 622.188406 223.792943 
L 637.862877 221.364118 
L 643.053191 220.46087 
L 643.053191 220.46087 
" clip-path="url(#p2dcbfb18c4)" style="fill: none; stroke: #000000; stroke-width: 1.5; stroke-linecap: round"/>
   </g>
   <g id="legend_24"/>
  </g>
  <g id="axes_25">
   <g id="line2d_25">
    <path d="M 144.414894 291.365217 
L 142.952636 290.919353 
L 141.719044 290.568858 
L 139.224579 289.806207 
L 136.612468 289.043016 
L 134.219157 288.356027 
L 123.550108 285.687656 
L 118.127788 284.76002 
L 112.037612 284.288168 
L 105.778257 284.699836 
L 103.914779 285.055076 
L 100.137123 286.283892 
L 98.797208 286.933452 
L 97.30082 287.928987 
L 96.157379 289.005185 
L 95.384916 290.044861 
L 94.995615 290.980923 
L 94.959013 291.532117 
L 95.141844 292.028952 
L 95.542484 292.464896 
L 96.157379 292.848595 
L 97.30082 293.23068 
L 99.223805 293.589689 
L 101.65051 293.784998 
L 105.778257 293.913311 
L 121.233914 293.153264 
L 128.059209 292.746419 
L 132.934014 292.427483 
L 144.414894 291.365217 
L 144.414894 291.365217 
" clip-path="url(#p22e63074dd)" style="fill: none; stroke: #000000; stroke-width: 1.5; stroke-linecap: round"/>
   </g>
   <g id="legend_25"/>
  </g>
  <g id="axes_26">
   <g id="line2d_26">
    <path d="M 215.648936 291.365217 
L 212.5895 289.719582 
L 212.204524 289.600352 
L 210.925154 288.934687 
L 208.945235 287.959731 
L 197.815472 283.424487 
L 191.691809 281.317537 
L 189.36183 280.693327 
L 185.519329 280.073556 
L 182.536535 279.879971 
L 180.383651 279.887984 
L 177.661731 280.265759 
L 175.148822 281.007723 
L 172.884553 282.087561 
L 171.371166 283.035472 
L 170.031251 284.09218 
L 168.8767 285.30099 
L 167.917762 286.596345 
L 167.162949 287.944192 
L 166.485368 289.634033 
L 166.229658 290.71868 
L 166.193056 291.67175 
L 166.375886 292.48658 
L 166.776527 293.206343 
L 167.391421 293.773257 
L 168.215112 294.226859 
L 169.625264 294.726835 
L 171.856986 295.288932 
L 175.148822 295.810427 
L 178.324242 296.059622 
L 187.045637 295.874148 
L 192.467957 295.38964 
L 197.815472 294.627883 
L 207.846511 293.009686 
L 215.648936 291.365217 
L 215.648936 291.365217 
" clip-path="url(#p8ca226d4f3)" style="fill: none; stroke: #000000; stroke-width: 1.5; stroke-linecap: round"/>
   </g>
   <g id="legend_26"/>
  </g>
  <g id="axes_27">
   <g id="line2d_27">
    <path d="M 286.882979 291.365217 
L 284.528967 290.398907 
L 275.402099 286.60803 
L 272.680179 285.560901 
L 271.254145 284.963211 
L 269.792176 284.46475 
L 266.018193 283.189837 
L 262.148936 282.089369 
L 257.514239 281.298057 
L 253.770578 281.139964 
L 251.617693 281.168418 
L 248.895773 281.536987 
L 245.79202 282.4722 
L 244.659327 282.945928 
L 242.605208 284.093998 
L 241.265293 285.028766 
L 239.768905 286.494983 
L 238.877151 287.652488 
L 238.191959 288.86684 
L 237.609929 290.279106 
L 237.427098 291.122385 
L 237.463701 291.79355 
L 237.719411 292.35633 
L 238.191959 292.797678 
L 238.877151 293.026637 
L 240.474329 293.239509 
L 243.595657 293.354956 
L 249.558284 293.277945 
L 254.505697 292.87165 
L 261.372021 292.346798 
L 266.783634 291.886773 
L 272.680179 291.521495 
L 285.146067 291.221142 
L 286.882979 291.365217 
L 286.882979 291.365217 
" clip-path="url(#pd9d25d09d6)" style="fill: none; stroke: #000000; stroke-width: 1.5; stroke-linecap: round"/>
   </g>
   <g id="legend_27"/>
  </g>
  <g id="axes_28">
   <g id="line2d_28">
    <path d="M 358.117021 291.365217 
L 350.872588 288.266977 
L 344.611999 285.914467 
L 334.159894 282.591339 
L 331.829915 282.065528 
L 327.231872 281.545694 
L 325.004621 281.442092 
L 322.851736 281.428536 
L 320.129816 281.722682 
L 317.026063 282.53853 
L 315.352638 283.227934 
L 313.839251 284.039039 
L 312.499336 284.936062 
L 311.002948 286.354183 
L 310.111194 287.479783 
L 309.426002 288.653403 
L 308.843971 290.137911 
L 308.661141 291.087877 
L 308.697743 291.863297 
L 308.953453 292.527682 
L 309.426002 293.041112 
L 310.111194 293.314468 
L 311.344785 293.491206 
L 314.325071 293.567136 
L 321.467263 293.419081 
L 332.606064 292.52883 
L 338.017676 292.028728 
L 343.914222 291.61824 
L 355.76301 291.219633 
L 358.117021 291.365217 
L 358.117021 291.365217 
" clip-path="url(#pe0e80b5ba5)" style="fill: none; stroke: #000000; stroke-width: 1.5; stroke-linecap: round"/>
   </g>
   <g id="legend_28"/>
  </g>
  <g id="axes_29">
   <g id="line2d_29">
    <path d="M 429.351064 291.365217 
L 424.627282 289.487109 
L 423.1703 288.908978 
L 419.77669 287.651169 
L 413.72223 285.657977 
L 412.260261 285.275751 
L 410.012585 284.731133 
L 404.617021 283.878547 
L 400.747765 283.733648 
L 399.221457 283.758494 
L 394.793948 284.149132 
L 392.701305 284.432695 
L 390.714427 284.815806 
L 388.260105 285.511094 
L 386.58668 286.049195 
L 384.606761 286.847152 
L 382.578828 287.984193 
L 381.345236 288.92607 
L 380.478655 289.867235 
L 380.078014 290.544298 
L 379.895183 291.187278 
L 379.931786 291.685465 
L 380.187496 292.172781 
L 380.660044 292.589843 
L 381.61989 293.055997 
L 382.942415 293.48842 
L 384.606761 293.863995 
L 389.457352 294.600767 
L 392.701305 294.74684 
L 399.221457 294.705287 
L 406.9447 294.212202 
L 411.517599 293.675091 
L 416.532737 292.916243 
L 425.074067 291.64384 
L 429.351064 291.365217 
L 429.351064 291.365217 
" clip-path="url(#p92b0216ecb)" style="fill: none; stroke: #000000; stroke-width: 1.5; stroke-linecap: round"/>
   </g>
   <g id="legend_29"/>
  </g>
  <g id="axes_30">
   <g id="line2d_30">
    <path d="M 500.585106 291.365217 
L 500.280589 291.21174 
L 495.861325 288.960813 
L 493.340673 287.793022 
L 488.441716 285.733346 
L 483.494303 283.845493 
L 481.246628 283.065152 
L 475.851064 281.537954 
L 470.4555 280.817761 
L 466.745855 280.758318 
L 464.622043 280.934967 
L 462.597901 281.287874 
L 460.084992 282.04576 
L 457.820723 283.091861 
L 456.793156 283.678925 
L 454.967421 285.006162 
L 453.471033 286.486633 
L 452.327591 288.017257 
L 451.712697 289.089785 
L 451.312057 290.129219 
L 451.129226 291.080052 
L 451.165828 291.901939 
L 451.421538 292.704717 
L 451.894087 293.428342 
L 452.327591 293.753325 
L 453.151282 294.028897 
L 454.561434 294.054274 
L 456.307336 293.842426 
L 458.919447 293.242241 
L 463.260412 292.170526 
L 465.319821 291.590285 
L 471.981807 289.9234 
L 474.298 289.552722 
L 478.951061 289.125376 
L 483.494303 289.27607 
L 487.080084 289.65927 
L 495.861325 290.854056 
L 498.848195 291.299897 
L 500.146998 291.349539 
L 500.585106 291.365217 
L 500.585106 291.365217 
" clip-path="url(#pb6eb35fc02)" style="fill: none; stroke: #000000; stroke-width: 1.5; stroke-linecap: round"/>
   </g>
   <g id="legend_30"/>
  </g>
  <g id="axes_31">
   <g id="line2d_31">
    <path d="M 571.819149 291.365217 
L 570.608579 290.583827 
L 569.1233 289.837409 
L 567.968749 289.29889 
L 561.623412 286.588603 
L 552.480671 283.269908 
L 550.954363 282.775147 
L 547.862021 281.949934 
L 545.532043 281.458875 
L 541.689542 281.017033 
L 536.553863 280.951052 
L 533.182512 281.460955 
L 531.319034 281.995643 
L 528.531827 283.30192 
L 526.201464 284.934349 
L 524.705076 286.460002 
L 523.813321 287.658723 
L 522.94674 289.346706 
L 522.460834 290.619025 
L 522.351064 291.469886 
L 522.460834 291.953856 
L 522.789172 292.420853 
L 523.128129 292.571957 
L 523.561634 292.467348 
L 528.027199 290.930206 
L 530.728191 290.324246 
L 535.856086 289.578615 
L 542.450409 289.18765 
L 547.085106 289.357816 
L 555.463465 289.913395 
L 571.819149 291.365217 
L 571.819149 291.365217 
" clip-path="url(#pa0d21bf4bb)" style="fill: none; stroke: #000000; stroke-width: 1.5; stroke-linecap: round"/>
   </g>
   <g id="legend_31"/>
  </g>
  <g id="axes_32">
   <g id="line2d_32">
    <path d="M 643.053191 291.365217 
L 636.872428 287.113096 
L 634.085221 285.212328 
L 626.697507 280.738236 
L 624.470255 279.589402 
L 620.646828 277.922892 
L 615.99147 276.558205 
L 612.923585 275.985301 
L 609.213941 275.603762 
L 607.787906 275.605296 
L 605.728497 275.943331 
L 604.416555 276.287461 
L 603.780843 276.461881 
L 600.82954 277.955997 
L 599.261242 279.113614 
L 597.862103 280.426561 
L 596.644542 281.998095 
L 595.619367 283.746684 
L 594.567204 286.140332 
L 594.023214 287.942844 
L 593.694877 289.705811 
L 593.585106 291.623658 
L 593.694877 292.878964 
L 594.023214 294.261337 
L 594.362172 294.984717 
L 594.795677 295.485963 
L 595.322018 295.827153 
L 595.939118 296.006699 
L 597.029519 296.046966 
L 598.775421 295.871736 
L 603.15948 294.938229 
L 605.065986 294.407965 
L 606.403433 293.971655 
L 611.418571 291.978808 
L 612.923585 291.351955 
L 616.766086 289.807214 
L 619.872212 288.690478 
L 622.953846 287.85131 
L 625.962388 287.392943 
L 628.142222 287.272691 
L 630.234865 287.355698 
L 632.221743 287.595448 
L 634.676065 288.232973 
L 638.32941 289.58933 
L 641.590934 291.032375 
L 643.053191 291.365217 
L 643.053191 291.365217 
" clip-path="url(#pe4739dcc54)" style="fill: none; stroke: #000000; stroke-width: 1.5; stroke-linecap: round"/>
   </g>
   <g id="legend_32"/>
  </g>
 </g>
 <defs>
  <clipPath id="p0afd0f3641">
   <rect x="90" y="43.2" width="59.361702" height="59.086957"/>
  </clipPath>
  <clipPath id="p3248bcbc9c">
   <rect x="161.234043" y="43.2" width="59.361702" height="59.086957"/>
  </clipPath>
  <clipPath id="pc9c26186ad">
   <rect x="232.468085" y="43.2" width="59.361702" height="59.086957"/>
  </clipPath>
  <clipPath id="p4da5709013">
   <rect x="303.702128" y="43.2" width="59.361702" height="59.086957"/>
  </clipPath>
  <clipPath id="pa5e159b5a0">
   <rect x="374.93617" y="43.2" width="59.361702" height="59.086957"/>
  </clipPath>
  <clipPath id="pa2a5bd7af7">
   <rect x="446.170213" y="43.2" width="59.361702" height="59.086957"/>
  </clipPath>
  <clipPath id="pb4f9bd19de">
   <rect x="517.404255" y="43.2" width="59.361702" height="59.086957"/>
  </clipPath>
  <clipPath id="p03fe5ca240">
   <rect x="588.638298" y="43.2" width="59.361702" height="59.086957"/>
  </clipPath>
  <clipPath id="pec1dd2315b">
   <rect x="90" y="114.104348" width="59.361702" height="59.086957"/>
  </clipPath>
  <clipPath id="p42c90bcfa6">
   <rect x="161.234043" y="114.104348" width="59.361702" height="59.086957"/>
  </clipPath>
  <clipPath id="p1734963fa3">
   <rect x="232.468085" y="114.104348" width="59.361702" height="59.086957"/>
  </clipPath>
  <clipPath id="pf24b72e474">
   <rect x="303.702128" y="114.104348" width="59.361702" height="59.086957"/>
  </clipPath>
  <clipPath id="p6ce5219b09">
   <rect x="374.93617" y="114.104348" width="59.361702" height="59.086957"/>
  </clipPath>
  <clipPath id="pf1595c890e">
   <rect x="446.170213" y="114.104348" width="59.361702" height="59.086957"/>
  </clipPath>
  <clipPath id="p33629a32ea">
   <rect x="517.404255" y="114.104348" width="59.361702" height="59.086957"/>
  </clipPath>
  <clipPath id="pbe2ffabb23">
   <rect x="588.638298" y="114.104348" width="59.361702" height="59.086957"/>
  </clipPath>
  <clipPath id="p141fa2c2a2">
   <rect x="90" y="185.008696" width="59.361702" height="59.086957"/>
  </clipPath>
  <clipPath id="pd9fb09453e">
   <rect x="161.234043" y="185.008696" width="59.361702" height="59.086957"/>
  </clipPath>
  <clipPath id="pde9f9052b4">
   <rect x="232.468085" y="185.008696" width="59.361702" height="59.086957"/>
  </clipPath>
  <clipPath id="p5690c82b1d">
   <rect x="303.702128" y="185.008696" width="59.361702" height="59.086957"/>
  </clipPath>
  <clipPath id="pc578a0cca9">
   <rect x="374.93617" y="185.008696" width="59.361702" height="59.086957"/>
  </clipPath>
  <clipPath id="p5961223bdd">
   <rect x="446.170213" y="185.008696" width="59.361702" height="59.086957"/>
  </clipPath>
  <clipPath id="p6e531aa4be">
   <rect x="517.404255" y="185.008696" width="59.361702" height="59.086957"/>
  </clipPath>
  <clipPath id="p2dcbfb18c4">
   <rect x="588.638298" y="185.008696" width="59.361702" height="59.086957"/>
  </clipPath>
  <clipPath id="p22e63074dd">
   <rect x="90" y="255.913043" width="59.361702" height="59.086957"/>
  </clipPath>
  <clipPath id="p8ca226d4f3">
   <rect x="161.234043" y="255.913043" width="59.361702" height="59.086957"/>
  </clipPath>
  <clipPath id="pd9d25d09d6">
   <rect x="232.468085" y="255.913043" width="59.361702" height="59.086957"/>
  </clipPath>
  <clipPath id="pe0e80b5ba5">
   <rect x="303.702128" y="255.913043" width="59.361702" height="59.086957"/>
  </clipPath>
  <clipPath id="p92b0216ecb">
   <rect x="374.93617" y="255.913043" width="59.361702" height="59.086957"/>
  </clipPath>
  <clipPath id="pb6eb35fc02">
   <rect x="446.170213" y="255.913043" width="59.361702" height="59.086957"/>
  </clipPath>
  <clipPath id="pa0d21bf4bb">
   <rect x="517.404255" y="255.913043" width="59.361702" height="59.086957"/>
  </clipPath>
  <clipPath id="pe4739dcc54">
   <rect x="588.638298" y="255.913043" width="59.361702" height="59.086957"/>
  </clipPath>
 </defs>
</svg>
