<?xml version="1.0" encoding="utf-8" standalone="no"?>
<!DOCTYPE svg PUBLIC "-//W3C//DTD SVG 1.1//EN"
  "http://www.w3.org/Graphics/SVG/1.1/DTD/svg11.dtd">
<svg xmlns:xlink="http://www.w3.org/1999/xlink" width="720pt" height="360pt" viewBox="0 0 720 360" xmlns="http://www.w3.org/2000/svg" version="1.1">
 <metadata>
  <rdf:RDF xmlns:dc="http://purl.org/dc/elements/1.1/" xmlns:cc="http://creativecommons.org/ns#" xmlns:rdf="http://www.w3.org/1999/02/22-rdf-syntax-ns#">
   <cc:Work>
    <dc:type rdf:resource="http://purl.org/dc/dcmitype/StillImage"/>
    <dc:date>2022-06-18T11:59:11.667810</dc:date>
    <dc:format>image/svg+xml</dc:format>
    <dc:creator>
     <cc:Agent>
      <dc:title>Matplotlib v3.5.1, https://matplotlib.org/</dc:title>
     </cc:Agent>
    </dc:creator>
   </cc:Work>
  </rdf:RDF>
 </metadata>
 <defs>
  <style type="text/css">*{stroke-linejoin: round; stroke-linecap: butt}</style>
 </defs>
 <g id="figure_1">
  <g id="patch_1">
   <path d="M 0 360 
L 720 360 
L 720 0 
L 0 0 
z
" style="fill: #ffffff"/>
  </g>
  <g id="axes_1">
   <g id="line2d_1">
    <path d="M 144.414894 78.652174 
L 142.060882 77.53502 
L 137.17046 75.335543 
L 126.581429 71.060451 
L 119.680851 68.964754 
L 115.046154 68.199489 
L 110.575643 68.058239 
L 107.765135 68.265422 
L 105.778257 68.683177 
L 103.914779 69.256415 
L 101.127572 70.619628 
L 98.797208 72.2827 
L 97.30082 73.832682 
L 96.409066 75.031193 
L 95.542484 76.626556 
L 95.056579 77.894551 
L 94.946809 78.763239 
L 95.056579 79.308205 
L 95.384916 79.905776 
L 95.928906 80.340527 
L 96.981069 80.614752 
L 98.797208 80.732565 
L 101.127572 80.6828 
L 110.575643 80.044476 
L 116.580854 79.616424 
L 127.324091 79.221934 
L 144.414894 78.652174 
L 144.414894 78.652174 
" clip-path="url(#p8137b4c939)" style="fill: none; stroke: #000000; stroke-width: 1.5; stroke-linecap: round"/>
   </g>
   <g id="legend_1"/>
  </g>
  <g id="axes_2">
   <g id="line2d_2">
    <path d="M 215.648936 78.652174 
L 212.953087 77.126082 
L 211.798536 76.48066 
L 204.168056 72.499386 
L 197.066 69.066624 
L 192.467957 67.143893 
L 187.814896 65.89512 
L 185.519329 65.514832 
L 181.809685 65.250926 
L 179.685873 65.366065 
L 178.324242 65.592211 
L 177.012299 65.937261 
L 175.755224 66.394997 
L 174.557978 66.913556 
L 172.884553 67.904381 
L 171.856986 68.64136 
L 170.457847 69.857558 
L 169.240287 71.247561 
L 168.215112 72.716544 
L 167.162949 74.693168 
L 166.485368 76.590797 
L 166.229658 77.873163 
L 166.193056 79.024399 
L 166.375886 80.086807 
L 166.776527 81.030271 
L 167.162949 81.396448 
L 167.643109 81.548001 
L 168.534863 81.542018 
L 170.031251 81.245769 
L 177.661731 79.651209 
L 180.383651 79.188712 
L 188.587215 77.871946 
L 196.310458 77.139998 
L 200.737966 77.096273 
L 204.817488 77.271294 
L 208.404503 77.640921 
L 210.925154 78.01239 
L 214.438366 78.626928 
L 215.648936 78.652174 
L 215.648936 78.652174 
" clip-path="url(#pb7b4eac855)" style="fill: none; stroke: #000000; stroke-width: 1.5; stroke-linecap: round"/>
   </g>
   <g id="legend_2"/>
  </g>
  <g id="axes_3">
   <g id="line2d_3">
    <path d="M 286.882979 78.652174 
L 284.528967 77.852312 
L 279.080553 75.635129 
L 276.687242 74.634717 
L 264.476615 70.346646 
L 262.148936 69.757866 
L 257.514239 68.945788 
L 253.770578 68.741954 
L 251.617693 68.750875 
L 248.895773 69.039391 
L 245.79202 69.834552 
L 244.118595 70.506378 
L 242.605208 71.302083 
L 241.265293 72.184748 
L 240.110743 73.230674 
L 239.151805 74.362073 
L 238.396991 75.57153 
L 237.719411 77.135957 
L 237.427098 78.397152 
L 237.463701 79.056646 
L 237.719411 79.524007 
L 238.191959 79.933467 
L 239.151805 80.341183 
L 240.474329 80.663753 
L 243.091029 81.032569 
L 246.382864 81.243231 
L 248.246342 81.201988 
L 253.770578 80.585532 
L 268.300042 78.821388 
L 274.739588 78.322717 
L 280.179277 78.109229 
L 283.032579 78.179404 
L 286.444871 78.531636 
L 286.882979 78.652174 
L 286.882979 78.652174 
" clip-path="url(#pf9d95268eb)" style="fill: none; stroke: #000000; stroke-width: 1.5; stroke-linecap: round"/>
   </g>
   <g id="legend_3"/>
  </g>
  <g id="axes_4">
   <g id="line2d_4">
    <path d="M 358.117021 78.652174 
L 357.678913 78.446693 
L 345.973631 72.781943 
L 339.534085 69.392544 
L 334.936042 67.226128 
L 331.829915 66.139784 
L 328.748281 65.458588 
L 325.739739 65.234704 
L 322.851736 65.533458 
L 320.792327 66.078702 
L 318.844673 66.786726 
L 315.89337 68.427117 
L 313.839251 69.977692 
L 312.499336 71.220928 
L 311.002948 73.021145 
L 309.859506 74.82554 
L 309.087044 76.508377 
L 308.697743 78.016558 
L 308.661141 78.934397 
L 308.843971 79.754536 
L 309.244612 80.617772 
L 309.859506 81.436647 
L 310.683197 82.176545 
L 312.093349 83.08321 
L 313.839251 83.928312 
L 315.89337 84.653078 
L 318.844673 85.456277 
L 321.467263 85.876461 
L 325.004621 86.127783 
L 328.748281 85.966362 
L 331.829915 85.537517 
L 334.936042 84.839127 
L 338.017676 83.961314 
L 346.636141 81.189746 
L 351.936258 79.591909 
L 355.057585 78.881159 
L 358.117021 78.652174 
L 358.117021 78.652174 
" clip-path="url(#p7dba59c047)" style="fill: none; stroke: #000000; stroke-width: 1.5; stroke-linecap: round"/>
   </g>
   <g id="legend_4"/>
  </g>
  <g id="axes_5">
   <g id="line2d_5">
    <path d="M 429.351064 78.652174 
L 428.912956 78.543187 
L 419.155327 75.32038 
L 411.517599 72.789041 
L 405.393936 71.402164 
L 402.289342 71.016181 
L 399.221457 70.82725 
L 395.511813 70.927743 
L 392.701305 71.199899 
L 390.714427 71.515809 
L 388.850949 71.933003 
L 385.073294 73.246423 
L 383.733378 73.922148 
L 382.23699 74.950611 
L 381.093549 76.031056 
L 380.478655 76.828977 
L 380.078014 77.654625 
L 379.895183 78.43526 
L 379.931786 79.048447 
L 380.187496 79.628014 
L 380.865076 80.350097 
L 381.917239 81.118623 
L 383.733378 82.066506 
L 386.063742 82.946498 
L 388.260105 83.635799 
L 390.714427 84.116046 
L 394.793948 84.454129 
L 399.221457 84.332628 
L 403.063958 83.902792 
L 406.9447 83.215563 
L 410.768128 82.351441 
L 424.627282 79.051296 
L 429.351064 78.652174 
L 429.351064 78.652174 
" clip-path="url(#pdc8c5406ea)" style="fill: none; stroke: #000000; stroke-width: 1.5; stroke-linecap: round"/>
   </g>
   <g id="legend_5"/>
  </g>
  <g id="axes_6">
   <g id="line2d_6">
    <path d="M 500.585106 78.652174 
L 500.390071 78.505232 
L 498.550846 77.475283 
L 497.889257 77.128294 
L 496.30811 76.237253 
L 494.908971 75.471879 
L 492.20798 73.907308 
L 486.382307 70.625279 
L 484.956272 69.6846 
L 483.494303 68.83291 
L 481.246628 67.532664 
L 477.404127 65.488377 
L 474.298 64.266891 
L 471.216366 63.49909 
L 468.950486 63.317019 
L 468.207824 63.279942 
L 464.622043 63.935119 
L 462.597901 64.699579 
L 459.494148 66.417549 
L 457.297785 68.079097 
L 455.394018 69.838675 
L 454.176457 71.290614 
L 452.853933 73.276591 
L 451.894087 75.17115 
L 451.421538 76.545327 
L 451.165828 77.830745 
L 451.129226 78.999993 
L 451.312057 79.982271 
L 451.712697 81.106682 
L 452.327591 82.224131 
L 453.151282 83.294597 
L 454.561434 84.691158 
L 456.307336 86.050553 
L 457.820723 86.963418 
L 461.312758 88.715725 
L 463.260412 89.463553 
L 466.027991 90.21156 
L 468.950486 90.551066 
L 471.981807 90.450966 
L 474.298 90.079734 
L 476.627979 89.428292 
L 478.951061 88.569219 
L 481.246628 87.561576 
L 484.956272 85.685324 
L 493.340673 81.079211 
L 495.861325 79.873041 
L 498.550846 78.876058 
L 500.585106 78.652174 
L 500.585106 78.652174 
" clip-path="url(#peea6259808)" style="fill: none; stroke: #000000; stroke-width: 1.5; stroke-linecap: round"/>
   </g>
   <g id="legend_6"/>
  </g>
  <g id="axes_7">
   <g id="line2d_7">
    <path d="M 571.819149 78.652174 
L 568.759713 76.883991 
L 567.968749 76.457758 
L 561.623412 73.137992 
L 554.728346 70.032902 
L 552.480671 69.154826 
L 547.862021 67.637007 
L 545.532043 67.100397 
L 541.689542 66.69283 
L 538.706748 66.70502 
L 536.553863 66.868114 
L 533.831944 67.438038 
L 531.319034 68.334674 
L 528.531827 69.868198 
L 526.62806 71.286384 
L 525.4105 72.46218 
L 524.087975 74.113732 
L 523.128129 75.758781 
L 522.546099 77.308434 
L 522.363269 78.33859 
L 522.399871 79.262406 
L 522.655581 80.183855 
L 523.128129 81.025924 
L 523.813321 81.722423 
L 524.705076 82.274359 
L 526.201464 82.856002 
L 528.027199 83.275226 
L 530.728191 83.601637 
L 533.182512 83.723545 
L 538.706748 83.422824 
L 556.190315 81.171639 
L 564.016724 80.017929 
L 567.968749 79.321143 
L 571.819149 78.652174 
L 571.819149 78.652174 
" clip-path="url(#pa035fab6fa)" style="fill: none; stroke: #000000; stroke-width: 1.5; stroke-linecap: round"/>
   </g>
   <g id="legend_7"/>
  </g>
  <g id="axes_8">
   <g id="line2d_8">
    <path d="M 643.053191 78.652174 
L 641.842621 78.255753 
L 638.32941 77.033667 
L 635.808758 76.098524 
L 625.219727 72.491661 
L 619.096064 71.018295 
L 615.99147 70.590284 
L 612.923585 70.371271 
L 609.940791 70.418039 
L 607.090129 70.673433 
L 604.416555 71.115852 
L 602.553077 71.563738 
L 599.76587 72.516845 
L 597.862103 73.422131 
L 596.644542 74.188953 
L 595.322018 75.316193 
L 594.362172 76.432079 
L 593.889623 77.302617 
L 593.633913 78.164035 
L 593.597311 78.868398 
L 593.780142 79.50513 
L 594.180782 80.079646 
L 595.047364 80.851631 
L 596.280956 81.591841 
L 598.308888 82.443226 
L 601.387532 83.34351 
L 603.15948 83.738552 
L 605.065986 83.985458 
L 607.787906 84.160153 
L 609.940791 84.154119 
L 614.449892 83.803954 
L 617.542234 83.33527 
L 620.646828 82.718521 
L 625.962388 81.458036 
L 632.221743 79.916565 
L 636.872428 78.988698 
L 639.993756 78.626249 
L 643.053191 78.652174 
L 643.053191 78.652174 
" clip-path="url(#p54d54c4fa4)" style="fill: none; stroke: #000000; stroke-width: 1.5; stroke-linecap: round"/>
   </g>
   <g id="legend_8"/>
  </g>
  <g id="axes_9">
   <g id="line2d_9">
    <path d="M 144.414894 149.556522 
L 143.432796 148.629179 
L 140.564494 146.696658 
L 137.711192 145.124697 
L 133.583445 143.280952 
L 128.786059 141.34368 
L 127.324091 140.85423 
L 125.076415 140.10678 
L 122.780849 139.382432 
L 121.233914 138.909589 
L 115.046154 137.787759 
L 110.575643 137.507548 
L 107.765135 137.621542 
L 105.778257 137.983784 
L 103.914779 138.547332 
L 101.65051 139.685797 
L 100.622944 140.361692 
L 99.223805 141.482819 
L 98.006244 142.782416 
L 96.981069 144.195011 
L 96.157379 145.673755 
L 95.251326 147.923435 
L 94.959013 149.256346 
L 94.995615 150.14198 
L 95.251326 150.952295 
L 95.723874 151.607256 
L 96.157379 151.876956 
L 96.981069 152.144278 
L 98.797208 152.389216 
L 101.127572 152.505796 
L 107.090199 152.357216 
L 110.575643 152.153364 
L 116.580854 152.007314 
L 129.503924 151.970051 
L 133.583445 151.752427 
L 136.612468 151.410465 
L 142.952636 150.11198 
L 144.366087 149.585855 
L 144.414894 149.556522 
L 144.414894 149.556522 
" clip-path="url(#p8503c0a1ff)" style="fill: none; stroke: #000000; stroke-width: 1.5; stroke-linecap: round"/>
   </g>
   <g id="legend_9"/>
  </g>
  <g id="axes_10">
   <g id="line2d_10">
    <path d="M 215.648936 149.556522 
L 215.344419 149.470626 
L 212.953087 148.75848 
L 208.945235 147.413619 
L 200.737966 144.450754 
L 197.815472 143.502574 
L 192.467957 142.219179 
L 190.137979 141.867996 
L 187.814896 141.65227 
L 185.519329 141.571542 
L 182.536535 141.70772 
L 179.685873 142.024469 
L 176.376588 142.610845 
L 172.361615 143.745221 
L 170.031251 144.729267 
L 168.534863 145.639007 
L 167.391421 146.620983 
L 166.776527 147.397372 
L 166.375886 148.278397 
L 166.193056 149.24014 
L 166.229658 150.183357 
L 166.485368 151.099875 
L 166.957916 151.916053 
L 167.643109 152.65235 
L 168.8767 153.593601 
L 170.457847 154.445729 
L 172.884553 155.398695 
L 175.148822 156.130821 
L 177.012299 156.560811 
L 179.685873 156.938339 
L 181.809685 157.098337 
L 184.763787 157.114428 
L 187.045637 156.998557 
L 190.137979 156.633286 
L 192.467957 156.24079 
L 197.066 155.085719 
L 201.446137 153.693645 
L 212.204524 150.212172 
L 213.912025 149.834195 
L 215.648936 149.556522 
L 215.648936 149.556522 
" clip-path="url(#pdf6ff9309b)" style="fill: none; stroke: #000000; stroke-width: 1.5; stroke-linecap: round"/>
   </g>
   <g id="legend_10"/>
  </g>
  <g id="axes_11">
   <g id="line2d_11">
    <path d="M 286.882979 149.556522 
L 283.823543 147.832116 
L 283.438566 147.707752 
L 282.605982 147.253912 
L 271.972009 142.736086 
L 267.5445 141.182546 
L 261.372021 139.388191 
L 259.821257 139.068232 
L 256.753372 138.63731 
L 253.043728 138.449763 
L 250.23322 138.60164 
L 247.610631 139.148119 
L 244.659327 140.342312 
L 242.605208 141.580689 
L 241.265293 142.6408 
L 239.768905 144.255784 
L 238.877151 145.552888 
L 238.010569 147.253121 
L 237.524664 148.66295 
L 237.414894 149.69469 
L 237.524664 150.39333 
L 237.853002 151.179125 
L 238.396991 151.789052 
L 239.151805 152.190687 
L 240.474329 152.550325 
L 242.605208 152.872315 
L 245.217319 153.05004 
L 248.895773 153.114028 
L 251.617693 153.061997 
L 255.248358 152.930823 
L 259.048939 152.795581 
L 266.783634 152.397197 
L 275.402099 151.766084 
L 279.080553 151.340006 
L 284.528967 150.314465 
L 286.870774 149.564284 
L 286.882979 149.556522 
L 286.882979 149.556522 
" clip-path="url(#p283b44cae5)" style="fill: none; stroke: #000000; stroke-width: 1.5; stroke-linecap: round"/>
   </g>
   <g id="legend_11"/>
  </g>
  <g id="axes_12">
   <g id="line2d_12">
    <path d="M 358.117021 149.556522 
L 357.521345 149.408285 
L 355.76301 148.962434 
L 345.973631 146.259685 
L 342.488187 145.255466 
L 341.026218 144.91309 
L 337.252235 144.054951 
L 331.829915 143.178204 
L 326.482401 142.813877 
L 325.004621 142.814769 
L 321.467263 142.959276 
L 319.480385 143.174945 
L 317.616907 143.501156 
L 313.839251 144.618403 
L 312.499336 145.218396 
L 311.002948 146.137962 
L 309.859506 147.135043 
L 309.244612 147.882564 
L 308.843971 148.643668 
L 308.661141 149.354913 
L 308.697743 149.946886 
L 308.953453 150.538807 
L 309.631034 151.271735 
L 310.683197 151.989888 
L 312.093349 152.663233 
L 313.839251 153.261999 
L 317.026063 154.060949 
L 319.480385 154.43385 
L 323.559906 154.668855 
L 329.513722 154.383255 
L 333.382979 153.970437 
L 342.488187 152.448233 
L 356.082761 149.759606 
L 358.117021 149.556522 
L 358.117021 149.556522 
" clip-path="url(#p509955313d)" style="fill: none; stroke: #000000; stroke-width: 1.5; stroke-linecap: round"/>
   </g>
   <g id="legend_12"/>
  </g>
  <g id="axes_13">
   <g id="line2d_13">
    <path d="M 429.351064 149.556522 
L 428.140494 149.271381 
L 426.655215 148.893623 
L 424.160749 148.114532 
L 421.548639 147.294335 
L 419.155327 146.524151 
L 406.9447 143.104548 
L 403.063958 142.386906 
L 396.973782 141.807622 
L 390.714427 142.174177 
L 388.850949 142.526726 
L 385.559114 143.598373 
L 383.733378 144.49647 
L 382.23699 145.587644 
L 381.345236 146.486538 
L 380.478655 147.717942 
L 379.992749 148.855372 
L 379.882979 149.655386 
L 379.992749 150.124896 
L 380.321087 150.631612 
L 380.865076 151.074844 
L 381.917239 151.569023 
L 383.733378 152.061882 
L 386.063742 152.454664 
L 389.457352 152.807732 
L 392.026369 152.850817 
L 399.221457 152.455454 
L 412.995379 151.169273 
L 420.973937 150.391672 
L 429.351064 149.556522 
L 429.351064 149.556522 
" clip-path="url(#p0028f96ec3)" style="fill: none; stroke: #000000; stroke-width: 1.5; stroke-linecap: round"/>
   </g>
   <g id="legend_13"/>
  </g>
  <g id="axes_14">
   <g id="line2d_14">
    <path d="M 500.585106 149.556522 
L 494.404343 146.58978 
L 491.617136 145.418311 
L 486.382307 143.462274 
L 484.956272 142.883921 
L 483.494303 142.40841 
L 479.720321 141.158715 
L 475.851064 140.073465 
L 471.216366 139.265023 
L 467.472706 139.022685 
L 464.622043 139.074279 
L 462.597901 139.336732 
L 460.084992 140.005807 
L 457.297785 141.264106 
L 455.394018 142.524535 
L 454.176457 143.622204 
L 453.151282 144.821027 
L 452.327591 146.075792 
L 451.555129 147.66788 
L 451.165828 148.98697 
L 451.129226 149.83011 
L 451.312057 150.615507 
L 451.712697 151.303676 
L 452.327591 151.8012 
L 453.151282 152.147683 
L 454.967421 152.552991 
L 457.297785 152.85761 
L 460.691395 153.094321 
L 463.935348 153.11947 
L 471.216366 152.96452 
L 478.178743 152.655535 
L 493.340673 151.16916 
L 499.122849 150.052017 
L 500.536299 149.581557 
L 500.585106 149.556522 
L 500.585106 149.556522 
" clip-path="url(#pb952678f48)" style="fill: none; stroke: #000000; stroke-width: 1.5; stroke-linecap: round"/>
   </g>
   <g id="legend_14"/>
  </g>
  <g id="axes_15">
   <g id="line2d_15">
    <path d="M 571.819149 149.556522 
L 570.837051 149.482239 
L 570.082238 149.515268 
L 567.095367 149.082104 
L 565.115447 148.681853 
L 560.987701 147.686714 
L 559.000822 147.064678 
L 556.908179 146.331299 
L 553.985684 145.287993 
L 551.719804 144.585779 
L 550.185104 144.029655 
L 548.63817 143.473863 
L 546.308191 142.883393 
L 542.450409 142.091873 
L 539.441867 141.809304 
L 533.182512 142.0413 
L 531.319034 142.427624 
L 527.074846 144.121927 
L 525.795476 144.970103 
L 524.385324 146.21194 
L 523.333161 147.519426 
L 522.546099 148.802082 
L 522.363269 149.378623 
L 522.399871 149.950186 
L 522.655581 150.711514 
L 523.333161 151.893136 
L 524.087975 152.841513 
L 525.046913 153.732942 
L 526.201464 154.504023 
L 528.027199 155.41695 
L 529.595497 156.044363 
L 531.925437 156.61053 
L 533.831944 156.811418 
L 536.553863 156.871256 
L 539.441867 156.69393 
L 548.63817 155.370298 
L 551.719804 154.678188 
L 556.190315 153.686828 
L 571.819149 149.556522 
L 571.819149 149.556522 
" clip-path="url(#p83bf9b363f)" style="fill: none; stroke: #000000; stroke-width: 1.5; stroke-linecap: round"/>
   </g>
   <g id="legend_15"/>
  </g>
  <g id="axes_16">
   <g id="line2d_16">
    <path d="M 643.053191 149.556522 
L 642.071094 149.058401 
L 639.202792 147.572164 
L 634.085221 145.042261 
L 627.424357 142.174767 
L 622.953846 140.740369 
L 620.646828 140.161559 
L 618.319149 139.758622 
L 615.219151 139.492165 
L 612.168043 139.493632 
L 609.940791 139.649382 
L 607.090129 140.032489 
L 603.780843 140.717692 
L 600.82954 141.679474 
L 598.775421 142.608899 
L 597.435506 143.411125 
L 596.280956 144.313795 
L 595.322018 145.303683 
L 594.362172 146.632874 
L 593.889623 147.691852 
L 593.633913 148.801461 
L 593.597311 149.92384 
L 593.780142 150.999939 
L 594.180782 151.950187 
L 594.795677 152.705897 
L 595.619367 153.34269 
L 597.029519 154.074104 
L 598.775421 154.661848 
L 601.962233 155.460166 
L 604.416555 155.850712 
L 607.090129 156.048956 
L 609.940791 156.11356 
L 614.449892 155.919102 
L 617.542234 155.603689 
L 621.419146 154.942155 
L 625.219727 154.078276 
L 630.909801 152.532377 
L 637.862877 150.631037 
L 643.053191 149.556522 
L 643.053191 149.556522 
" clip-path="url(#p69adbfd519)" style="fill: none; stroke: #000000; stroke-width: 1.5; stroke-linecap: round"/>
   </g>
   <g id="legend_16"/>
  </g>
  <g id="axes_17">
   <g id="line2d_17">
    <path d="M 144.414894 220.46087 
L 143.976786 220.102923 
L 142.952636 219.346347 
L 140.137897 217.724969 
L 134.219157 214.921695 
L 128.786059 212.707576 
L 122.00853 210.928078 
L 119.680851 210.637014 
L 115.046154 210.45514 
L 111.302493 210.752781 
L 109.149608 211.0581 
L 105.778257 211.938149 
L 103.914779 212.606437 
L 101.127572 213.94662 
L 98.797208 215.424387 
L 96.981069 216.972304 
L 95.928906 218.18908 
L 95.251326 219.361108 
L 94.959013 220.286997 
L 94.995615 220.773991 
L 95.251326 221.203335 
L 95.723874 221.541212 
L 96.409066 221.751123 
L 98.006244 221.944247 
L 99.67059 221.964114 
L 105.778257 221.616671 
L 115.811594 220.552126 
L 130.212094 219.163027 
L 135.446923 218.911681 
L 138.23413 219.005472 
L 140.137897 219.290149 
L 142.952636 219.986163 
L 144.414894 220.46087 
L 144.414894 220.46087 
" clip-path="url(#pd27be7d0a9)" style="fill: none; stroke: #000000; stroke-width: 1.5; stroke-linecap: round"/>
   </g>
   <g id="legend_17"/>
  </g>
  <g id="axes_18">
   <g id="line2d_18">
    <path d="M 215.648936 220.46087 
L 215.344419 220.15266 
L 213.912025 218.911482 
L 210.925154 217.010356 
L 208.404503 215.594404 
L 204.168056 213.465278 
L 200.020102 211.510083 
L 193.242573 209.077441 
L 189.36183 208.242495 
L 186.280196 207.906211 
L 183.271654 207.837799 
L 179.685873 208.266149 
L 177.661731 208.774056 
L 175.148822 209.714043 
L 173.425284 210.595893 
L 171.371166 212.007404 
L 170.031251 213.147048 
L 168.8767 214.413036 
L 167.917762 215.690601 
L 166.957916 217.397672 
L 166.485368 218.687009 
L 166.193056 220.194259 
L 166.229658 220.906925 
L 166.485368 221.477578 
L 167.162949 222.212382 
L 167.917762 222.776581 
L 169.240287 223.481948 
L 170.904633 224.13 
L 173.425284 224.812326 
L 177.012299 225.552165 
L 179.685873 225.772217 
L 181.091821 225.841955 
L 185.519329 225.564871 
L 189.36183 224.90327 
L 193.242573 223.956367 
L 200.020102 221.830638 
L 204.168056 220.510525 
L 206.680966 219.881549 
L 208.945235 219.50613 
L 210.925154 219.445974 
L 213.294924 219.715643 
L 215.05326 220.194559 
L 215.648936 220.46087 
L 215.648936 220.46087 
" clip-path="url(#p6ae7b1a61c)" style="fill: none; stroke: #000000; stroke-width: 1.5; stroke-linecap: round"/>
   </g>
   <g id="legend_18"/>
  </g>
  <g id="axes_19">
   <g id="line2d_19">
    <path d="M 286.882979 220.46087 
L 282.159197 218.723392 
L 280.179277 217.918726 
L 268.300042 213.537125 
L 264.476615 212.331478 
L 260.595873 211.483074 
L 256.753372 211.010279 
L 253.770578 210.93778 
L 250.919916 211.112028 
L 248.895773 211.411676 
L 246.382864 212.063321 
L 243.595657 213.205071 
L 241.69189 214.309313 
L 240.474329 215.255472 
L 239.151805 216.637336 
L 238.191959 218.044411 
L 237.609929 219.380888 
L 237.427098 220.237501 
L 237.463701 220.840965 
L 237.719411 221.414279 
L 238.191959 221.981091 
L 238.877151 222.551974 
L 240.110743 223.231539 
L 242.138675 223.997916 
L 244.659327 224.648972 
L 248.246342 225.24077 
L 252.325863 225.470488 
L 259.048939 225.123363 
L 263.702 224.490113 
L 269.792176 223.297078 
L 278.505852 221.464131 
L 283.032579 220.714422 
L 285.420721 220.480541 
L 286.882979 220.46087 
L 286.882979 220.46087 
" clip-path="url(#p8090d5f683)" style="fill: none; stroke: #000000; stroke-width: 1.5; stroke-linecap: round"/>
   </g>
   <g id="legend_19"/>
  </g>
  <g id="axes_20">
   <g id="line2d_20">
    <path d="M 358.117021 220.46087 
L 351.936258 218.005423 
L 342.488187 213.856326 
L 334.936042 211.251982 
L 331.829915 210.602103 
L 328.748281 210.279578 
L 325.739739 210.278595 
L 321.467263 210.847201 
L 318.844673 211.483783 
L 315.352638 212.851823 
L 313.372718 213.929096 
L 311.708372 215.156296 
L 310.385848 216.487573 
L 309.426002 217.806531 
L 308.953453 218.819321 
L 308.697743 219.818592 
L 308.661141 220.770608 
L 308.843971 221.676853 
L 309.244612 222.528335 
L 309.859506 223.324839 
L 310.683197 224.08894 
L 312.093349 225.049465 
L 313.839251 225.903956 
L 316.451361 226.876361 
L 318.22331 227.395928 
L 320.129816 227.771496 
L 322.153958 228.007022 
L 324.27777 228.126263 
L 326.482401 228.102137 
L 329.513722 227.836269 
L 332.606064 227.3144 
L 335.710658 226.568782 
L 341.026218 224.950478 
L 350.872588 221.734604 
L 353.840025 221.018224 
L 356.38011 220.59812 
L 358.117021 220.46087 
L 358.117021 220.46087 
" clip-path="url(#pf3408b509b)" style="fill: none; stroke: #000000; stroke-width: 1.5; stroke-linecap: round"/>
   </g>
   <g id="legend_20"/>
  </g>
  <g id="axes_21">
   <g id="line2d_21">
    <path d="M 429.351064 220.46087 
L 428.912956 219.984941 
L 419.77669 211.347018 
L 416.532737 208.778919 
L 414.440094 207.210738 
L 411.517599 205.23831 
L 407.717019 203.089023 
L 406.9447 202.650127 
L 403.063958 201.190733 
L 399.982324 200.553752 
L 396.973782 200.352316 
L 393.388001 200.980025 
L 391.363859 201.764049 
L 388.850949 203.25417 
L 387.127412 204.692239 
L 385.559114 206.364159 
L 384.159975 208.112924 
L 382.942415 210.092216 
L 381.917239 212.185521 
L 381.093549 214.321559 
L 380.321087 217.035774 
L 379.992749 218.784449 
L 379.882979 220.706278 
L 379.992749 221.989089 
L 380.321087 223.496516 
L 380.660044 224.359695 
L 381.093549 225.032322 
L 381.917239 225.781412 
L 382.942415 226.334046 
L 384.606761 226.938499 
L 386.063742 227.238898 
L 389.457352 227.452922 
L 392.026369 227.379066 
L 399.221457 226.404935 
L 406.170085 225.020542 
L 412.260261 223.832399 
L 419.155327 222.57326 
L 424.160749 221.68882 
L 429.351064 220.46087 
L 429.351064 220.46087 
" clip-path="url(#pae2b573db5)" style="fill: none; stroke: #000000; stroke-width: 1.5; stroke-linecap: round"/>
   </g>
   <g id="legend_21"/>
  </g>
  <g id="axes_22">
   <g id="line2d_22">
    <path d="M 500.585106 220.46087 
L 497.889257 219.751837 
L 496.30811 219.261301 
L 494.404343 218.664478 
L 489.753658 217.193391 
L 481.246628 214.650033 
L 474.298 213.082521 
L 468.207824 212.454164 
L 462.597901 212.705006 
L 460.084992 213.192436 
L 456.793156 214.327679 
L 454.967421 215.28928 
L 453.471033 216.438687 
L 452.327591 217.702853 
L 451.555129 218.941786 
L 451.165828 220.011411 
L 451.129226 220.663863 
L 451.312057 221.250819 
L 451.712697 221.763574 
L 452.327591 222.181915 
L 453.471033 222.600456 
L 455.394018 223.006451 
L 458.361455 223.359256 
L 461.94847 223.57321 
L 468.950486 223.441182 
L 487.76678 222.261981 
L 493.340673 221.635559 
L 499.989431 220.555426 
L 500.585106 220.46087 
L 500.585106 220.46087 
" clip-path="url(#p87d83c89f5)" style="fill: none; stroke: #000000; stroke-width: 1.5; stroke-linecap: round"/>
   </g>
   <g id="legend_22"/>
  </g>
  <g id="axes_23">
   <g id="line2d_23">
    <path d="M 571.819149 220.46087 
L 564.016724 217.207696 
L 561.623412 216.142901 
L 547.862021 210.883414 
L 545.532043 210.215105 
L 541.689542 209.491214 
L 537.979898 209.204911 
L 534.494454 209.372606 
L 532.546801 209.739294 
L 529.595497 210.790624 
L 528.027199 211.680636 
L 526.62806 212.667591 
L 525.4105 213.814975 
L 524.385324 215.086462 
L 523.561634 216.453887 
L 522.789172 218.287915 
L 522.399871 219.84666 
L 522.363269 220.72749 
L 522.546099 221.310162 
L 522.94674 221.792166 
L 523.561634 222.20246 
L 524.705076 222.646841 
L 526.201464 222.99349 
L 528.531827 223.336966 
L 531.319034 223.541751 
L 533.182512 223.486143 
L 538.706748 222.768623 
L 553.236213 220.740403 
L 559.000822 220.214819 
L 562.851178 219.97487 
L 567.542153 219.870544 
L 570.837051 220.222824 
L 571.819149 220.46087 
L 571.819149 220.46087 
" clip-path="url(#p03e928b24e)" style="fill: none; stroke: #000000; stroke-width: 1.5; stroke-linecap: round"/>
   </g>
   <g id="legend_23"/>
  </g>
  <g id="axes_24">
   <g id="line2d_24">
    <path d="M 643.053191 220.46087 
L 642.858156 220.398759 
L 640.69918 219.707237 
L 634.676065 217.824109 
L 632.221743 216.982665 
L 628.850392 215.722495 
L 627.424357 215.085077 
L 625.219727 214.152531 
L 622.953846 213.217376 
L 620.646828 212.114702 
L 618.319149 211.16711 
L 613.684452 209.58929 
L 610.675909 208.897925 
L 606.403433 208.610611 
L 605.065986 208.753986 
L 602.553077 209.465825 
L 600.288808 210.630638 
L 599.261242 211.345273 
L 597.862103 212.515872 
L 596.644542 213.838414 
L 595.619367 215.2466 
L 594.795677 216.721997 
L 593.889623 218.965019 
L 593.597311 220.207972 
L 593.633913 220.93006 
L 593.889623 221.467108 
L 594.362172 221.859489 
L 595.047364 221.962359 
L 597.029519 221.959771 
L 601.962233 221.891962 
L 605.728497 221.834173 
L 608.496076 221.731994 
L 611.418571 221.718489 
L 615.219151 221.818074 
L 618.319149 222.030458 
L 622.188406 222.189057 
L 628.850392 222.284208 
L 631.572312 222.22145 
L 634.676065 221.992861 
L 640.69918 220.978957 
L 643.053191 220.46087 
L 643.053191 220.46087 
" clip-path="url(#p528009385f)" style="fill: none; stroke: #000000; stroke-width: 1.5; stroke-linecap: round"/>
   </g>
   <g id="legend_24"/>
  </g>
  <g id="axes_25">
   <g id="line2d_25">
    <path d="M 144.414894 291.365217 
L 143.204323 289.965522 
L 138.738758 286.010584 
L 137.17046 284.861177 
L 133.583445 282.653981 
L 128.786059 280.122685 
L 127.324091 279.472427 
L 125.076415 278.521279 
L 121.233914 277.099728 
L 116.580854 276.107608 
L 114.285287 275.822378 
L 110.575643 275.700274 
L 108.451831 275.869053 
L 106.427688 276.285788 
L 103.914779 277.265539 
L 102.191242 278.337618 
L 100.622944 279.650308 
L 99.223805 281.100437 
L 98.006244 282.783193 
L 96.981069 284.606664 
L 96.157379 286.49324 
L 95.251326 289.356276 
L 94.995615 290.612033 
L 94.959013 291.729836 
L 95.141844 292.697829 
L 95.542484 293.635239 
L 95.928906 294.136539 
L 96.68372 294.640141 
L 97.642658 295.008916 
L 99.67059 295.46523 
L 101.127572 295.628169 
L 104.521182 295.632077 
L 108.451831 295.417877 
L 111.302493 295.22584 
L 114.285287 295.043662 
L 117.353172 294.96487 
L 125.076415 295.049642 
L 130.909871 294.926254 
L 134.219157 294.608659 
L 136.612468 294.195573 
L 140.970481 292.959608 
L 144.110377 291.536035 
L 144.414894 291.365217 
L 144.414894 291.365217 
" clip-path="url(#p65815ce991)" style="fill: none; stroke: #000000; stroke-width: 1.5; stroke-linecap: round"/>
   </g>
   <g id="legend_25"/>
  </g>
  <g id="axes_26">
   <g id="line2d_26">
    <path d="M 215.648936 291.365217 
L 212.953087 290.196127 
L 211.37194 289.47913 
L 209.468173 288.637199 
L 206.074563 287.179916 
L 200.020102 284.639905 
L 198.558133 284.115076 
L 196.310458 283.291374 
L 190.914894 281.617469 
L 186.280196 280.809497 
L 182.536535 280.66974 
L 179.685873 280.85046 
L 177.661731 281.204138 
L 175.148822 281.970732 
L 172.361615 283.31759 
L 170.457847 284.602073 
L 169.240287 285.689987 
L 167.917762 287.249282 
L 166.957916 288.813532 
L 166.375886 290.214 
L 166.193056 291.106886 
L 166.229658 291.849145 
L 166.485368 292.57949 
L 166.957916 293.249529 
L 167.643109 293.80167 
L 168.534863 294.238592 
L 170.031251 294.708175 
L 171.856986 295.072126 
L 174.557978 295.386349 
L 177.012299 295.542211 
L 183.271654 295.412002 
L 186.280196 295.249331 
L 192.467957 294.680543 
L 202.143914 293.432884 
L 209.468173 292.312761 
L 215.648936 291.365217 
L 215.648936 291.365217 
" clip-path="url(#p2a2c3dd656)" style="fill: none; stroke: #000000; stroke-width: 1.5; stroke-linecap: round"/>
   </g>
   <g id="legend_26"/>
  </g>
  <g id="axes_27">
   <g id="line2d_27">
    <path d="M 286.882979 291.365217 
L 285.672409 290.469896 
L 284.187129 289.596816 
L 283.032579 288.965553 
L 279.638545 287.336828 
L 269.792176 283.445078 
L 267.5445 282.717312 
L 265.248934 282.007028 
L 263.702 281.536685 
L 257.514239 280.410664 
L 253.043728 280.128189 
L 250.23322 280.230128 
L 248.246342 280.565043 
L 246.382864 281.093168 
L 243.595657 282.455718 
L 241.69189 283.858605 
L 240.474329 285.084269 
L 239.449154 286.42011 
L 238.625464 287.816345 
L 237.719411 289.916888 
L 237.427098 291.104419 
L 237.463701 291.862193 
L 237.719411 292.533274 
L 238.191959 293.058215 
L 238.877151 293.305743 
L 240.110743 293.465168 
L 243.595657 293.446915 
L 255.99783 292.766859 
L 270.527294 292.885719 
L 274.739588 292.792475 
L 278.505852 292.543851 
L 284.528967 291.798372 
L 286.882979 291.365217 
L 286.882979 291.365217 
" clip-path="url(#pc71463388e)" style="fill: none; stroke: #000000; stroke-width: 1.5; stroke-linecap: round"/>
   </g>
   <g id="legend_27"/>
  </g>
  <g id="axes_28">
   <g id="line2d_28">
    <path d="M 358.117021 291.365217 
L 357.339956 291.110612 
L 350.314596 288.56832 
L 344.611999 286.663635 
L 341.026218 285.611666 
L 337.252235 284.734612 
L 333.382979 284.121493 
L 330.282981 283.869399 
L 327.231872 283.828387 
L 324.27777 284.011315 
L 320.792327 284.462555 
L 316.451361 285.363404 
L 313.839251 286.131535 
L 312.093349 286.859425 
L 310.683197 287.70956 
L 309.631034 288.636373 
L 309.087044 289.43414 
L 308.758707 290.370296 
L 308.648936 291.516744 
L 308.758707 292.286503 
L 309.087044 293.099934 
L 309.631034 293.743322 
L 310.683197 294.412198 
L 312.093349 294.992362 
L 313.839251 295.455837 
L 318.844673 296.491648 
L 322.851736 296.882421 
L 325.739739 296.949932 
L 328.748281 296.867324 
L 331.829915 296.611294 
L 335.710658 296.025406 
L 338.778543 295.372009 
L 344.611999 293.850294 
L 349.739895 292.505974 
L 353.393239 291.811965 
L 358.117021 291.365217 
L 358.117021 291.365217 
" clip-path="url(#p2ccd61c0ef)" style="fill: none; stroke: #000000; stroke-width: 1.5; stroke-linecap: round"/>
   </g>
   <g id="legend_28"/>
  </g>
  <g id="axes_29">
   <g id="line2d_29">
    <path d="M 429.351064 291.365217 
L 428.140494 290.538921 
L 422.647362 287.506807 
L 417.870184 285.388177 
L 413.72223 283.751496 
L 411.517599 283.036534 
L 406.9447 281.766605 
L 403.063958 281.104393 
L 399.221457 280.859781 
L 395.511813 280.97273 
L 393.388001 281.237903 
L 391.363859 281.66026 
L 388.260105 282.697981 
L 386.58668 283.491713 
L 385.073294 284.378232 
L 383.733378 285.319436 
L 382.23699 286.742855 
L 381.093549 288.195732 
L 380.478655 289.262923 
L 379.992749 290.593811 
L 379.895183 291.577165 
L 380.078014 292.214384 
L 380.478655 292.853695 
L 381.093549 293.448684 
L 381.917239 293.946273 
L 383.327391 294.483436 
L 384.606761 294.810604 
L 386.58668 295.082416 
L 390.714427 295.293066 
L 394.793948 295.015646 
L 403.063958 293.605808 
L 417.207673 290.963866 
L 420.973937 290.598322 
L 423.674929 290.526678 
L 425.906651 290.714299 
L 427.316803 290.912319 
L 429.351064 291.365217 
L 429.351064 291.365217 
" clip-path="url(#pd5dc4140bc)" style="fill: none; stroke: #000000; stroke-width: 1.5; stroke-linecap: round"/>
   </g>
   <g id="legend_29"/>
  </g>
  <g id="axes_30">
   <g id="line2d_30">
    <path d="M 500.585106 291.365217 
L 499.989431 291.206832 
L 499.122849 290.973422 
L 497.889257 290.679258 
L 496.30811 290.24789 
L 494.404343 289.732776 
L 491.010733 288.82558 
L 487.080084 287.914058 
L 477.404127 286.0099 
L 471.216366 285.318352 
L 465.319821 285.184387 
L 461.312758 285.570053 
L 456.793156 286.684233 
L 454.967421 287.418213 
L 453.471033 288.304358 
L 452.327591 289.268828 
L 451.555129 290.209562 
L 451.165828 291.036604 
L 451.129226 291.507706 
L 451.312057 291.889475 
L 451.712697 292.221076 
L 452.579279 292.602526 
L 453.812871 292.861576 
L 456.307336 293.113434 
L 460.084992 293.181619 
L 463.260412 293.062939 
L 469.699958 292.489286 
L 475.074149 292.1346 
L 482.00217 291.792725 
L 494.404343 291.28053 
L 497.525671 291.199478 
L 499.808041 291.286742 
L 500.585106 291.365217 
L 500.585106 291.365217 
" clip-path="url(#p8eaec4963a)" style="fill: none; stroke: #000000; stroke-width: 1.5; stroke-linecap: round"/>
   </g>
   <g id="legend_30"/>
  </g>
  <g id="axes_31">
   <g id="line2d_31">
    <path d="M 571.819149 291.365217 
L 562.851178 287.627831 
L 559.000822 286.195354 
L 552.480671 283.70669 
L 545.532043 281.481505 
L 541.689542 280.81951 
L 537.979898 280.56676 
L 535.856086 280.618393 
L 533.831944 280.883118 
L 531.319034 281.585023 
L 528.531827 282.908449 
L 526.62806 284.169532 
L 525.4105 285.250856 
L 524.385324 286.386701 
L 523.561634 287.575151 
L 522.94674 288.793179 
L 522.546099 289.939034 
L 522.363269 291.019337 
L 522.399871 292.055431 
L 522.655581 293.120417 
L 523.128129 294.119429 
L 523.813321 294.934208 
L 524.705076 295.636383 
L 526.201464 296.478524 
L 527.541379 297.041515 
L 529.054765 297.492001 
L 533.182512 298.383998 
L 537.262034 298.776988 
L 541.689542 298.766973 
L 547.085106 298.342383 
L 550.954363 297.837235 
L 560.338269 296.00713 
L 563.442022 295.107143 
L 566.143014 294.068005 
L 570.082238 292.305825 
L 571.770342 291.399456 
L 571.819149 291.365217 
L 571.819149 291.365217 
" clip-path="url(#p514bee7ca8)" style="fill: none; stroke: #000000; stroke-width: 1.5; stroke-linecap: round"/>
   </g>
   <g id="legend_31"/>
  </g>
  <g id="axes_32">
   <g id="line2d_32">
    <path d="M 643.053191 291.365217 
L 639.202792 289.605874 
L 631.572312 286.548108 
L 628.850392 285.548261 
L 627.424357 284.981848 
L 625.962388 284.528258 
L 623.714713 283.838386 
L 621.419146 283.188707 
L 619.872212 282.769941 
L 614.449892 281.926788 
L 612.923585 281.806476 
L 609.213941 281.774678 
L 606.403433 282.013181 
L 604.416555 282.411371 
L 602.553077 282.950121 
L 599.76587 284.187938 
L 597.435506 285.680796 
L 595.939118 287.068374 
L 595.047364 288.1334 
L 594.180782 289.551467 
L 593.694877 290.705655 
L 593.585106 291.454346 
L 593.694877 291.893331 
L 594.023214 292.382545 
L 594.567204 292.779563 
L 595.619367 293.091853 
L 597.435506 293.275844 
L 599.261242 293.273987 
L 603.780843 293.032298 
L 609.213941 292.507372 
L 615.99147 291.953552 
L 628.850392 291.529025 
L 632.857454 291.457938 
L 642.748674 291.335885 
L 643.053191 291.365217 
L 643.053191 291.365217 
" clip-path="url(#p61d5166218)" style="fill: none; stroke: #000000; stroke-width: 1.5; stroke-linecap: round"/>
   </g>
   <g id="legend_32"/>
  </g>
 </g>
 <defs>
  <clipPath id="p8137b4c939">
   <rect x="90" y="43.2" width="59.361702" height="59.086957"/>
  </clipPath>
  <clipPath id="pb7b4eac855">
   <rect x="161.234043" y="43.2" width="59.361702" height="59.086957"/>
  </clipPath>
  <clipPath id="pf9d95268eb">
   <rect x="232.468085" y="43.2" width="59.361702" height="59.086957"/>
  </clipPath>
  <clipPath id="p7dba59c047">
   <rect x="303.702128" y="43.2" width="59.361702" height="59.086957"/>
  </clipPath>
  <clipPath id="pdc8c5406ea">
   <rect x="374.93617" y="43.2" width="59.361702" height="59.086957"/>
  </clipPath>
  <clipPath id="peea6259808">
   <rect x="446.170213" y="43.2" width="59.361702" height="59.086957"/>
  </clipPath>
  <clipPath id="pa035fab6fa">
   <rect x="517.404255" y="43.2" width="59.361702" height="59.086957"/>
  </clipPath>
  <clipPath id="p54d54c4fa4">
   <rect x="588.638298" y="43.2" width="59.361702" height="59.086957"/>
  </clipPath>
  <clipPath id="p8503c0a1ff">
   <rect x="90" y="114.104348" width="59.361702" height="59.086957"/>
  </clipPath>
  <clipPath id="pdf6ff9309b">
   <rect x="161.234043" y="114.104348" width="59.361702" height="59.086957"/>
  </clipPath>
  <clipPath id="p283b44cae5">
   <rect x="232.468085" y="114.104348" width="59.361702" height="59.086957"/>
  </clipPath>
  <clipPath id="p509955313d">
   <rect x="303.702128" y="114.104348" width="59.361702" height="59.086957"/>
  </clipPath>
  <clipPath id="p0028f96ec3">
   <rect x="374.93617" y="114.104348" width="59.361702" height="59.086957"/>
  </clipPath>
  <clipPath id="pb952678f48">
   <rect x="446.170213" y="114.104348" width="59.361702" height="59.086957"/>
  </clipPath>
  <clipPath id="p83bf9b363f">
   <rect x="517.404255" y="114.104348" width="59.361702" height="59.086957"/>
  </clipPath>
  <clipPath id="p69adbfd519">
   <rect x="588.638298" y="114.104348" width="59.361702" height="59.086957"/>
  </clipPath>
  <clipPath id="pd27be7d0a9">
   <rect x="90" y="185.008696" width="59.361702" height="59.086957"/>
  </clipPath>
  <clipPath id="p6ae7b1a61c">
   <rect x="161.234043" y="185.008696" width="59.361702" height="59.086957"/>
  </clipPath>
  <clipPath id="p8090d5f683">
   <rect x="232.468085" y="185.008696" width="59.361702" height="59.086957"/>
  </clipPath>
  <clipPath id="pf3408b509b">
   <rect x="303.702128" y="185.008696" width="59.361702" height="59.086957"/>
  </clipPath>
  <clipPath id="pae2b573db5">
   <rect x="374.93617" y="185.008696" width="59.361702" height="59.086957"/>
  </clipPath>
  <clipPath id="p87d83c89f5">
   <rect x="446.170213" y="185.008696" width="59.361702" height="59.086957"/>
  </clipPath>
  <clipPath id="p03e928b24e">
   <rect x="517.404255" y="185.008696" width="59.361702" height="59.086957"/>
  </clipPath>
  <clipPath id="p528009385f">
   <rect x="588.638298" y="185.008696" width="59.361702" height="59.086957"/>
  </clipPath>
  <clipPath id="p65815ce991">
   <rect x="90" y="255.913043" width="59.361702" height="59.086957"/>
  </clipPath>
  <clipPath id="p2a2c3dd656">
   <rect x="161.234043" y="255.913043" width="59.361702" height="59.086957"/>
  </clipPath>
  <clipPath id="pc71463388e">
   <rect x="232.468085" y="255.913043" width="59.361702" height="59.086957"/>
  </clipPath>
  <clipPath id="p2ccd61c0ef">
   <rect x="303.702128" y="255.913043" width="59.361702" height="59.086957"/>
  </clipPath>
  <clipPath id="pd5dc4140bc">
   <rect x="374.93617" y="255.913043" width="59.361702" height="59.086957"/>
  </clipPath>
  <clipPath id="p8eaec4963a">
   <rect x="446.170213" y="255.913043" width="59.361702" height="59.086957"/>
  </clipPath>
  <clipPath id="p514bee7ca8">
   <rect x="517.404255" y="255.913043" width="59.361702" height="59.086957"/>
  </clipPath>
  <clipPath id="p61d5166218">
   <rect x="588.638298" y="255.913043" width="59.361702" height="59.086957"/>
  </clipPath>
 </defs>
</svg>
