<?xml version="1.0" encoding="utf-8" standalone="no"?>
<!DOCTYPE svg PUBLIC "-//W3C//DTD SVG 1.1//EN"
  "http://www.w3.org/Graphics/SVG/1.1/DTD/svg11.dtd">
<svg xmlns:xlink="http://www.w3.org/1999/xlink" width="720pt" height="360pt" viewBox="0 0 720 360" xmlns="http://www.w3.org/2000/svg" version="1.1">
 <metadata>
  <rdf:RDF xmlns:dc="http://purl.org/dc/elements/1.1/" xmlns:cc="http://creativecommons.org/ns#" xmlns:rdf="http://www.w3.org/1999/02/22-rdf-syntax-ns#">
   <cc:Work>
    <dc:type rdf:resource="http://purl.org/dc/dcmitype/StillImage"/>
    <dc:date>2022-06-18T12:04:21.925260</dc:date>
    <dc:format>image/svg+xml</dc:format>
    <dc:creator>
     <cc:Agent>
      <dc:title>Matplotlib v3.5.1, https://matplotlib.org/</dc:title>
     </cc:Agent>
    </dc:creator>
   </cc:Work>
  </rdf:RDF>
 </metadata>
 <defs>
  <style type="text/css">*{stroke-linejoin: round; stroke-linecap: butt}</style>
 </defs>
 <g id="figure_1">
  <g id="patch_1">
   <path d="M 0 360 
L 720 360 
L 720 0 
L 0 0 
z
" style="fill: #ffffff"/>
  </g>
  <g id="axes_1">
   <g id="line2d_1">
    <path d="M 144.414894 78.652174 
L 142.952636 77.817993 
L 134.84052 73.310028 
L 130.909871 71.459086 
L 126.581429 69.832649 
L 123.550108 68.989618 
L 120.457766 68.381539 
L 117.353172 68.093948 
L 114.285287 68.075508 
L 110.575643 68.370178 
L 108.451831 68.706583 
L 105.778257 69.310184 
L 103.914779 69.854255 
L 101.65051 70.725968 
L 100.137123 71.474039 
L 98.797208 72.304089 
L 97.642658 73.24821 
L 96.68372 74.270998 
L 95.723874 75.649786 
L 95.251326 76.751914 
L 94.995615 77.897416 
L 94.959013 79.012776 
L 95.141844 80.042253 
L 95.542484 80.94299 
L 96.157379 81.639402 
L 96.981069 82.181964 
L 98.391221 82.724805 
L 100.137123 83.104774 
L 103.323935 83.503189 
L 105.778257 83.642688 
L 109.149608 83.576522 
L 112.037612 83.366484 
L 115.811594 82.987362 
L 120.457766 82.315485 
L 124.315548 81.590905 
L 137.17046 78.935989 
L 139.691112 78.684616 
L 144.110377 78.639483 
L 144.414894 78.652174 
L 144.414894 78.652174 
" clip-path="url(#p01fff99e02)" style="fill: none; stroke: #000000; stroke-width: 1.5; stroke-linecap: round"/>
   </g>
   <g id="legend_1"/>
  </g>
  <g id="axes_2">
   <g id="line2d_2">
    <path d="M 215.648936 78.652174 
L 214.186679 77.849599 
L 204.817488 73.759138 
L 200.020102 71.946602 
L 198.558133 71.505737 
L 196.310458 70.852638 
L 190.914894 69.627664 
L 185.519329 69.141855 
L 181.809685 69.211717 
L 178.999178 69.509914 
L 177.012299 69.938316 
L 175.148822 70.489476 
L 172.361615 71.717261 
L 170.031251 73.167191 
L 168.534863 74.501755 
L 167.391421 75.86068 
L 166.618959 77.175046 
L 166.229658 78.24175 
L 166.193056 78.829637 
L 166.375886 79.334958 
L 166.776527 79.802922 
L 167.391421 80.147246 
L 168.534863 80.427758 
L 170.031251 80.570948 
L 171.856986 80.570724 
L 176.376588 80.31529 
L 181.091821 79.848883 
L 184.763787 79.389674 
L 190.137979 78.938113 
L 194.014891 78.645352 
L 200.020102 78.387382 
L 204.817488 78.269819 
L 211.37194 78.306872 
L 215.648936 78.652174 
L 215.648936 78.652174 
" clip-path="url(#p17305ce92e)" style="fill: none; stroke: #000000; stroke-width: 1.5; stroke-linecap: round"/>
   </g>
   <g id="legend_2"/>
  </g>
  <g id="axes_3">
   <g id="line2d_3">
    <path d="M 286.882979 78.652174 
L 286.287303 78.135602 
L 284.848718 77.012596 
L 279.080553 72.798881 
L 277.308605 71.709975 
L 275.402099 70.638562 
L 269.049514 67.229207 
L 264.476615 65.089705 
L 262.148936 64.246702 
L 257.514239 63.067831 
L 254.505697 62.705994 
L 250.919916 62.930974 
L 248.895773 63.43175 
L 246.382864 64.532912 
L 244.659327 65.690884 
L 243.091029 67.036361 
L 241.69189 68.499333 
L 240.474329 70.166284 
L 239.449154 71.97005 
L 238.625464 73.796106 
L 237.853002 76.069053 
L 237.463701 77.835851 
L 237.427098 79.048729 
L 237.609929 80.261736 
L 238.010569 81.429466 
L 238.396991 82.027238 
L 239.151805 82.642755 
L 240.110743 83.0876 
L 241.69189 83.55221 
L 243.595657 83.876634 
L 246.382864 84.066839 
L 250.23322 84.035689 
L 256.753372 83.711229 
L 274.064652 82.186699 
L 279.080553 81.398497 
L 282.605982 80.478844 
L 285.146067 79.558252 
L 286.287303 78.977686 
L 286.882979 78.652174 
L 286.882979 78.652174 
" clip-path="url(#pfd808df4ad)" style="fill: none; stroke: #000000; stroke-width: 1.5; stroke-linecap: round"/>
   </g>
   <g id="legend_3"/>
  </g>
  <g id="axes_4">
   <g id="line2d_4">
    <path d="M 358.117021 78.652174 
L 355.057585 77.115954 
L 352.440886 75.914171 
L 349.739895 74.744033 
L 345.973631 73.39354 
L 342.488187 72.243756 
L 334.936042 70.510157 
L 331.829915 70.097349 
L 327.231872 69.918753 
L 325.004621 69.982012 
L 322.153958 70.252175 
L 319.480385 70.736142 
L 317.616907 71.190257 
L 315.352638 71.965714 
L 313.372718 72.861997 
L 311.708372 73.90944 
L 310.385848 75.092729 
L 309.426002 76.299986 
L 308.953453 77.244711 
L 308.697743 78.150263 
L 308.661141 78.875171 
L 308.843971 79.533043 
L 309.244612 80.150026 
L 309.859506 80.701184 
L 310.683197 81.163414 
L 312.093349 81.66602 
L 313.839251 82.035746 
L 316.451361 82.315772 
L 318.844673 82.477424 
L 321.467263 82.420021 
L 326.482401 81.960693 
L 334.159894 80.723767 
L 341.026218 79.450251 
L 345.973631 78.598193 
L 349.739895 78.127499 
L 352.926706 77.989864 
L 355.057585 78.112888 
L 358.117021 78.652174 
L 358.117021 78.652174 
" clip-path="url(#p422239bbc5)" style="fill: none; stroke: #000000; stroke-width: 1.5; stroke-linecap: round"/>
   </g>
   <g id="legend_4"/>
  </g>
  <g id="axes_5">
   <g id="line2d_5">
    <path d="M 429.351064 78.652174 
L 428.573998 77.877313 
L 427.614152 77.052661 
L 424.160749 74.206469 
L 420.383093 71.630117 
L 412.260261 67.268295 
L 410.012585 66.204928 
L 405.393936 64.28758 
L 403.063958 63.524902 
L 399.221457 62.779131 
L 396.238663 62.547599 
L 394.085778 62.59118 
L 392.026369 62.988054 
L 390.714427 63.390125 
L 390.078716 63.606623 
L 387.685404 64.935613 
L 386.063742 66.211463 
L 384.159975 68.182469 
L 382.942415 69.896 
L 381.917239 71.765033 
L 381.093549 73.677212 
L 380.187496 76.555618 
L 379.931786 77.845836 
L 379.895183 79.049988 
L 380.078014 80.247725 
L 380.478655 81.379707 
L 380.865076 81.93165 
L 381.61989 82.453374 
L 382.578828 82.82007 
L 384.159975 83.189141 
L 386.063742 83.439646 
L 388.850949 83.546972 
L 392.701305 83.443984 
L 411.517599 82.518431 
L 418.519615 81.905328 
L 421.548639 81.440535 
L 425.074067 80.563472 
L 427.316803 79.74638 
L 428.368966 79.258246 
L 429.351064 78.652174 
L 429.351064 78.652174 
" clip-path="url(#p2ddc2ca63b)" style="fill: none; stroke: #000000; stroke-width: 1.5; stroke-linecap: round"/>
   </g>
   <g id="legend_5"/>
  </g>
  <g id="axes_6">
   <g id="line2d_6">
    <path d="M 500.585106 78.652174 
L 500.146998 78.548291 
L 494.404343 76.506373 
L 491.010733 75.249391 
L 482.751642 72.466739 
L 475.074149 70.33823 
L 473.523385 70.041702 
L 469.699958 69.588216 
L 467.472706 69.445723 
L 464.622043 69.426025 
L 462.597901 69.545782 
L 458.919447 70.272354 
L 457.297785 70.853993 
L 455.394018 71.820641 
L 454.176457 72.727315 
L 453.151282 73.76684 
L 452.327591 74.898756 
L 451.712697 76.096412 
L 451.312057 77.280634 
L 451.129226 78.33712 
L 451.165828 79.209425 
L 451.421538 79.921782 
L 451.894087 80.536964 
L 452.579279 81.075239 
L 453.812871 81.706937 
L 455.840803 82.397613 
L 459.494148 83.320619 
L 461.312758 83.605783 
L 463.260412 83.719623 
L 467.472706 83.615909 
L 474.298 83.010904 
L 478.178743 82.48583 
L 490.389369 80.408922 
L 500.280589 78.673441 
L 500.585106 78.652174 
L 500.585106 78.652174 
" clip-path="url(#p258f98abb0)" style="fill: none; stroke: #000000; stroke-width: 1.5; stroke-linecap: round"/>
   </g>
   <g id="legend_6"/>
  </g>
  <g id="axes_7">
   <g id="line2d_7">
    <path d="M 571.819149 78.652174 
L 571.381041 78.448809 
L 567.542153 76.629008 
L 565.115447 75.456931 
L 557.616349 71.815472 
L 556.190315 71.057447 
L 554.728346 70.364108 
L 551.719804 68.995495 
L 549.412785 67.994585 
L 546.308191 67.03123 
L 544.757427 66.635495 
L 542.450409 66.224602 
L 539.441867 66.069519 
L 535.856086 66.533412 
L 533.831944 67.073321 
L 531.319034 68.097029 
L 529.054765 69.397998 
L 527.074846 70.862333 
L 525.795476 72.066043 
L 524.385324 73.764582 
L 523.333161 75.444046 
L 522.655581 77.035959 
L 522.363269 78.396866 
L 522.399871 79.086506 
L 522.655581 79.740949 
L 523.128129 80.415521 
L 524.087975 81.342142 
L 525.4105 82.213603 
L 527.074846 83.062872 
L 529.595497 84.029001 
L 532.546801 84.863786 
L 535.169391 85.264794 
L 538.706748 85.461666 
L 541.689542 85.318374 
L 544.757427 84.873976 
L 547.085106 84.384161 
L 550.954363 83.308453 
L 563.442022 79.280267 
L 566.143014 78.681316 
L 568.759713 78.393103 
L 571.624114 78.598386 
L 571.819149 78.652174 
L 571.819149 78.652174 
" clip-path="url(#pb7a13577b0)" style="fill: none; stroke: #000000; stroke-width: 1.5; stroke-linecap: round"/>
   </g>
   <g id="legend_7"/>
  </g>
  <g id="axes_8">
   <g id="line2d_8">
    <path d="M 643.053191 78.652174 
L 641.842621 77.988976 
L 640.357342 77.329777 
L 639.202792 76.825514 
L 632.221743 73.96205 
L 619.872212 69.620668 
L 613.684452 68.456427 
L 609.213941 68.283627 
L 605.728497 68.534203 
L 603.780843 68.931248 
L 600.82954 69.998293 
L 598.775421 71.149899 
L 597.435506 72.085306 
L 595.939118 73.570458 
L 595.047364 74.758972 
L 594.362172 76.054838 
L 593.780142 77.533788 
L 593.597311 78.403979 
L 593.633913 79.072517 
L 593.889623 79.58415 
L 594.180782 79.832231 
L 594.567204 79.918906 
L 597.862103 79.486205 
L 600.82954 79.173647 
L 615.99147 78.121244 
L 622.188406 77.97126 
L 625.219727 77.902428 
L 638.776195 78.074349 
L 643.040987 78.647475 
L 643.053191 78.652174 
L 643.053191 78.652174 
" clip-path="url(#pdb0bdf3276)" style="fill: none; stroke: #000000; stroke-width: 1.5; stroke-linecap: round"/>
   </g>
   <g id="legend_8"/>
  </g>
  <g id="axes_9">
   <g id="line2d_9">
    <path d="M 144.414894 149.556522 
L 132.271503 144.642296 
L 125.076415 142.030006 
L 123.550108 141.512376 
L 119.680851 140.376709 
L 115.046154 139.516373 
L 111.302493 139.263653 
L 109.149608 139.23281 
L 106.427688 139.485352 
L 102.749234 140.45836 
L 101.127572 141.189023 
L 99.223805 142.362244 
L 98.006244 143.404177 
L 96.981069 144.560873 
L 96.157379 145.800094 
L 95.542484 147.081823 
L 95.056579 148.635358 
L 94.946809 149.680011 
L 95.056579 150.203215 
L 95.384916 150.705155 
L 95.928906 151.109923 
L 96.981069 151.482781 
L 99.223805 151.848824 
L 102.749234 152.07397 
L 105.142546 152.088557 
L 107.765135 151.806618 
L 122.780849 149.753028 
L 135.446923 148.911323 
L 140.137897 148.944988 
L 143.819218 149.390408 
L 144.414894 149.556522 
L 144.414894 149.556522 
" clip-path="url(#p588d86c33d)" style="fill: none; stroke: #000000; stroke-width: 1.5; stroke-linecap: round"/>
   </g>
   <g id="legend_9"/>
  </g>
  <g id="axes_10">
   <g id="line2d_10">
    <path d="M 215.648936 149.556522 
L 215.05326 148.783398 
L 214.186679 147.859425 
L 210.458621 144.412589 
L 206.074563 141.250828 
L 202.830609 139.211588 
L 197.815472 136.475819 
L 195.549591 135.458088 
L 193.242573 134.335376 
L 190.914894 133.508226 
L 185.519329 132.149692 
L 181.809685 131.806785 
L 179.685873 131.915651 
L 177.661731 132.33279 
L 175.755224 133.210234 
L 175.148822 133.507831 
L 173.425284 134.832383 
L 171.856986 136.484787 
L 170.457847 138.25525 
L 169.240287 140.254836 
L 168.215112 142.350484 
L 167.391421 144.504107 
L 166.375886 148.059856 
L 166.193056 149.209435 
L 166.229658 150.203161 
L 166.485368 151.18116 
L 166.957916 152.042927 
L 167.391421 152.369396 
L 168.215112 152.645005 
L 169.625264 152.7352 
L 171.856986 152.651381 
L 174.557978 152.187674 
L 184.763787 150.522472 
L 190.137979 150.581195 
L 193.242573 150.811765 
L 195.549591 151.03508 
L 200.737966 151.588399 
L 204.168056 151.866712 
L 207.271809 151.863443 
L 209.468173 151.58606 
L 212.204524 151.031337 
L 214.666839 150.097062 
L 215.648936 149.556522 
L 215.648936 149.556522 
" clip-path="url(#pb609ae7d14)" style="fill: none; stroke: #000000; stroke-width: 1.5; stroke-linecap: round"/>
   </g>
   <g id="legend_10"/>
  </g>
  <g id="axes_11">
   <g id="line2d_11">
    <path d="M 286.882979 149.556522 
L 285.900881 149.047727 
L 282.159197 147.721505 
L 280.179277 146.950322 
L 274.739588 145.029638 
L 268.300042 142.611668 
L 263.702 141.014183 
L 258.279679 139.853729 
L 256.753372 139.671324 
L 253.770578 139.525446 
L 250.919916 139.619745 
L 248.895773 139.922169 
L 246.382864 140.628776 
L 243.091029 142.178257 
L 241.265293 143.377404 
L 239.449154 145.064869 
L 238.625464 146.130218 
L 237.853002 147.560607 
L 237.524664 148.566276 
L 237.414894 149.714044 
L 237.609929 150.883866 
L 238.010569 151.871915 
L 238.625464 152.675866 
L 239.449154 153.326929 
L 240.859306 154.089861 
L 242.605208 154.799521 
L 244.118595 155.222883 
L 249.558284 156.346899 
L 254.505697 156.791733 
L 256.753372 156.875373 
L 261.372021 156.76522 
L 269.792176 155.660716 
L 273.377957 154.928006 
L 276.687242 154.078505 
L 279.080553 153.293517 
L 283.032579 151.628588 
L 285.900881 150.172173 
L 286.882979 149.556522 
L 286.882979 149.556522 
" clip-path="url(#p297bf6bcbc)" style="fill: none; stroke: #000000; stroke-width: 1.5; stroke-linecap: round"/>
   </g>
   <g id="legend_11"/>
  </g>
  <g id="axes_12">
   <g id="line2d_12">
    <path d="M 358.117021 149.556522 
L 357.134924 149.034498 
L 341.026218 143.81437 
L 338.778543 143.202386 
L 336.482976 142.609789 
L 334.936042 142.215385 
L 327.987415 141.24325 
L 322.851736 141.151804 
L 319.480385 141.63646 
L 317.616907 142.115773 
L 314.325071 143.516529 
L 312.499336 144.584737 
L 311.002948 145.816153 
L 310.111194 146.754445 
L 309.244612 148.035594 
L 308.697743 149.204663 
L 308.661141 149.716729 
L 308.843971 150.155296 
L 309.244612 150.504181 
L 309.631034 150.609501 
L 311.344785 150.486804 
L 320.129816 149.083945 
L 325.004621 148.575665 
L 327.231872 148.415833 
L 334.936042 148.527934 
L 338.778543 148.731408 
L 349.739895 149.380931 
L 358.117021 149.556522 
L 358.117021 149.556522 
" clip-path="url(#p327d6a19d9)" style="fill: none; stroke: #000000; stroke-width: 1.5; stroke-linecap: round"/>
   </g>
   <g id="legend_12"/>
  </g>
  <g id="axes_13">
   <g id="line2d_13">
    <path d="M 429.351064 149.556522 
L 429.046547 149.290507 
L 426.997052 147.52689 
L 422.647362 144.787469 
L 420.973937 143.984495 
L 419.155327 143.156741 
L 415.148264 141.680532 
L 411.517599 140.679943 
L 406.170085 140.035197 
L 399.982324 140.395314 
L 394.085778 141.383198 
L 389.457352 142.472236 
L 387.685404 143.068548 
L 384.159975 144.599023 
L 381.917239 146.001693 
L 381.093549 146.761919 
L 380.478655 147.602623 
L 380.078014 148.474887 
L 379.895183 149.301897 
L 379.931786 150.023149 
L 380.187496 150.59855 
L 380.660044 151.113997 
L 381.61989 151.749776 
L 382.942415 152.316676 
L 385.073294 152.912943 
L 388.850949 153.748718 
L 393.388001 154.317726 
L 408.486278 154.738215 
L 412.995379 154.49015 
L 416.532737 153.94123 
L 419.155327 153.323162 
L 422.647362 152.158386 
L 427.888806 150.061541 
L 429.351064 149.556522 
L 429.351064 149.556522 
" clip-path="url(#pc4006d67e4)" style="fill: none; stroke: #000000; stroke-width: 1.5; stroke-linecap: round"/>
   </g>
   <g id="legend_13"/>
  </g>
  <g id="axes_14">
   <g id="line2d_14">
    <path d="M 500.585106 149.556522 
L 499.808041 148.989058 
L 496.734707 146.844199 
L 493.340673 144.786286 
L 489.753658 143.009903 
L 487.76678 142.093528 
L 483.494303 140.469707 
L 481.246628 139.879508 
L 477.404127 139.224909 
L 472.751066 139.226957 
L 469.699958 139.516543 
L 465.319821 140.2153 
L 460.691395 141.394069 
L 458.919447 142.015309 
L 456.307336 143.188872 
L 454.967421 144.003076 
L 453.471033 145.140789 
L 452.579279 146.055213 
L 451.894087 147.043161 
L 451.421538 148.064306 
L 451.165828 149.019923 
L 451.129226 149.793854 
L 451.312057 150.364591 
L 451.712697 150.867598 
L 452.327591 151.309162 
L 453.471033 151.867248 
L 455.394018 152.560382 
L 458.361455 153.391101 
L 461.94847 154.19688 
L 467.472706 154.87083 
L 471.981807 155.104522 
L 475.074149 155.127394 
L 478.951061 154.905087 
L 481.246628 154.63742 
L 484.956272 153.883651 
L 489.104227 152.629265 
L 497.140694 149.815072 
L 498.550846 149.54056 
L 500.475336 149.53913 
L 500.585106 149.556522 
L 500.585106 149.556522 
" clip-path="url(#pbbb8ec4b5d)" style="fill: none; stroke: #000000; stroke-width: 1.5; stroke-linecap: round"/>
   </g>
   <g id="legend_14"/>
  </g>
  <g id="axes_15">
   <g id="line2d_15">
    <path d="M 571.819149 149.556522 
L 570.356891 149.357919 
L 569.1233 149.12815 
L 561.623412 147.031353 
L 557.616349 145.95587 
L 556.190315 145.515557 
L 553.985684 144.957543 
L 547.862021 143.60963 
L 544.757427 143.147761 
L 540.934 142.786286 
L 538.706748 142.71068 
L 535.169391 142.789323 
L 532.546801 143.100415 
L 528.531827 144.095643 
L 526.62806 144.860522 
L 525.4105 145.55787 
L 524.087975 146.614461 
L 523.128129 147.722054 
L 522.546099 148.742063 
L 522.363269 149.384232 
L 522.399871 149.844754 
L 522.655581 150.243292 
L 523.333161 150.747637 
L 524.385324 151.188132 
L 526.201464 151.631334 
L 528.531827 151.974081 
L 531.925437 152.195551 
L 534.494454 152.164156 
L 544.757427 151.446328 
L 550.954363 151.016192 
L 556.190315 150.655749 
L 562.851178 150.152368 
L 571.381041 149.531169 
L 571.819149 149.556522 
L 571.819149 149.556522 
" clip-path="url(#p5081cd7481)" style="fill: none; stroke: #000000; stroke-width: 1.5; stroke-linecap: round"/>
   </g>
   <g id="legend_15"/>
  </g>
  <g id="axes_16">
   <g id="line2d_16">
    <path d="M 643.053191 149.556522 
L 639.202792 147.539431 
L 634.676065 145.457312 
L 630.909801 144.040061 
L 627.424357 142.83997 
L 619.872212 141.021558 
L 616.766086 140.592088 
L 612.168043 140.409622 
L 609.940791 140.476264 
L 607.090129 140.760339 
L 604.416555 141.270387 
L 602.553077 141.74662 
L 600.288808 142.562831 
L 598.308888 143.507409 
L 596.644542 144.606981 
L 595.322018 145.847828 
L 594.362172 147.113514 
L 593.889623 148.096647 
L 593.633913 149.034871 
L 593.597311 149.788358 
L 593.780142 150.465538 
L 594.180782 151.105819 
L 594.795677 151.681967 
L 595.619367 152.169542 
L 597.029519 152.701994 
L 598.308888 153.01947 
L 600.82954 153.36454 
L 604.416555 153.600296 
L 607.787906 153.469514 
L 609.940791 153.259964 
L 618.319149 151.914378 
L 632.221743 149.280787 
L 635.808758 148.885443 
L 637.862877 148.842333 
L 639.993756 148.978019 
L 643.053191 149.556522 
L 643.053191 149.556522 
" clip-path="url(#p5c37050209)" style="fill: none; stroke: #000000; stroke-width: 1.5; stroke-linecap: round"/>
   </g>
   <g id="legend_16"/>
  </g>
  <g id="axes_17">
   <g id="line2d_17">
    <path d="M 144.414894 220.46087 
L 144.219858 220.375895 
L 142.060882 219.749213 
L 140.137897 219.32449 
L 138.23413 218.912862 
L 134.84052 218.066876 
L 130.909871 217.226385 
L 129.503924 216.857311 
L 121.233914 215.20587 
L 112.037612 214.261452 
L 110.575643 214.265204 
L 107.090199 214.320751 
L 105.142546 214.517746 
L 100.622944 215.600853 
L 98.797208 216.297464 
L 97.30082 217.169935 
L 96.157379 218.111989 
L 95.384916 219.110569 
L 94.995615 220.053894 
L 94.995615 220.700964 
L 95.251326 220.943221 
L 95.723874 221.098594 
L 96.68372 221.046665 
L 104.521182 220.460093 
L 107.090199 220.315018 
L 109.149608 220.17192 
L 113.529745 219.958094 
L 124.315548 220.07087 
L 137.17046 220.114833 
L 140.137897 220.196736 
L 144.414894 220.46087 
L 144.414894 220.46087 
" clip-path="url(#p421e21bb27)" style="fill: none; stroke: #000000; stroke-width: 1.5; stroke-linecap: round"/>
   </g>
   <g id="legend_17"/>
  </g>
  <g id="axes_18">
   <g id="line2d_18">
    <path d="M 215.648936 220.46087 
L 215.05326 219.935963 
L 214.438366 219.47619 
L 208.945235 216.577471 
L 197.815472 211.975726 
L 191.691809 210.356612 
L 189.36183 209.99488 
L 185.519329 209.725246 
L 180.383651 209.808632 
L 176.376588 210.503146 
L 173.425284 211.584415 
L 171.856986 212.428093 
L 170.457847 213.388733 
L 169.240287 214.472379 
L 168.215112 215.647224 
L 167.391421 216.92 
L 166.618959 218.600477 
L 166.229658 219.943259 
L 166.193056 220.697688 
L 166.375886 221.268102 
L 166.776527 221.695654 
L 167.391421 221.972723 
L 168.8767 222.251905 
L 176.376588 222.786429 
L 181.809685 222.819041 
L 186.280196 222.83746 
L 194.78415 223.000906 
L 201.446137 222.645364 
L 204.168056 222.306023 
L 207.846511 221.591991 
L 210.925154 220.897343 
L 215.648936 220.46087 
L 215.648936 220.46087 
" clip-path="url(#p1661691949)" style="fill: none; stroke: #000000; stroke-width: 1.5; stroke-linecap: round"/>
   </g>
   <g id="legend_18"/>
  </g>
  <g id="axes_19">
   <g id="line2d_19">
    <path d="M 286.882979 220.46087 
L 285.900881 219.516106 
L 283.032579 217.685632 
L 279.638545 216.043296 
L 271.254145 212.852349 
L 269.792176 212.442011 
L 267.5445 211.83747 
L 265.248934 211.268495 
L 263.702 210.895025 
L 255.99783 210.071272 
L 253.043728 209.95106 
L 249.558284 210.093029 
L 247.610631 210.418 
L 244.659327 211.395193 
L 243.091029 212.219294 
L 241.69189 213.164785 
L 240.474329 214.280709 
L 239.449154 215.517965 
L 238.625464 216.848202 
L 237.853002 218.57733 
L 237.463701 219.919351 
L 237.427098 220.714972 
L 237.609929 221.326287 
L 238.010569 221.792737 
L 238.396991 221.994073 
L 239.449154 222.181751 
L 242.138675 222.317362 
L 248.246342 222.330675 
L 250.919916 222.261893 
L 260.595873 222.353365 
L 266.018193 222.524931 
L 274.739588 222.257146 
L 277.915008 221.926324 
L 281.692664 221.29925 
L 285.420721 220.761509 
L 286.882979 220.46087 
L 286.882979 220.46087 
" clip-path="url(#p15f4513cc2)" style="fill: none; stroke: #000000; stroke-width: 1.5; stroke-linecap: round"/>
   </g>
   <g id="legend_19"/>
  </g>
  <g id="axes_20">
   <g id="line2d_20">
    <path d="M 358.117021 220.46087 
L 357.812504 220.441354 
L 356.082761 220.257438 
L 345.973631 217.622181 
L 342.488187 216.39158 
L 341.026218 215.961207 
L 337.252235 214.869578 
L 332.606064 213.848051 
L 330.282981 213.480877 
L 327.987415 213.201814 
L 324.27777 213.149589 
L 320.792327 213.399901 
L 318.844673 213.774869 
L 315.352638 214.890053 
L 313.839251 215.521385 
L 312.499336 216.2801 
L 311.002948 217.324371 
L 309.859506 218.40407 
L 308.953453 219.582333 
L 308.661141 220.314757 
L 308.697743 220.731432 
L 308.953453 221.134436 
L 309.631034 221.623702 
L 310.385848 221.95756 
L 311.708372 222.27459 
L 313.839251 222.559159 
L 317.026063 222.71785 
L 320.129816 222.702343 
L 324.27777 222.519728 
L 328.748281 222.296118 
L 334.936042 222.222003 
L 339.534085 222.230323 
L 344.611999 222.240957 
L 347.921284 222.026908 
L 350.872588 221.652108 
L 358.117021 220.46087 
L 358.117021 220.46087 
" clip-path="url(#pfe73da55b4)" style="fill: none; stroke: #000000; stroke-width: 1.5; stroke-linecap: round"/>
   </g>
   <g id="legend_20"/>
  </g>
  <g id="axes_21">
   <g id="line2d_21">
    <path d="M 429.351064 220.46087 
L 427.888806 219.806365 
L 425.074067 218.414813 
L 419.155327 215.526908 
L 412.995379 212.770013 
L 410.012585 211.389618 
L 408.486278 210.682326 
L 403.840106 208.791538 
L 402.289342 208.268688 
L 399.221457 207.47322 
L 396.238663 207.052631 
L 394.085778 206.960867 
L 391.363859 207.262605 
L 388.850949 208.058681 
L 387.127412 208.930298 
L 385.559114 210.059541 
L 384.159975 211.298813 
L 382.942415 212.708452 
L 381.917239 214.247775 
L 381.093549 215.865919 
L 380.321087 217.94654 
L 379.931786 219.72606 
L 379.895183 220.782247 
L 380.078014 221.521812 
L 380.478655 222.195014 
L 381.345236 223.115011 
L 382.23699 223.749996 
L 383.327391 224.289682 
L 385.073294 224.88451 
L 387.127412 225.329453 
L 389.457352 225.589558 
L 391.363859 225.543637 
L 392.701305 225.449628 
L 399.982324 224.356466 
L 406.170085 223.212387 
L 410.012585 222.425634 
L 418.519615 221.083247 
L 425.500664 220.309173 
L 428.140494 220.329121 
L 429.351064 220.46087 
L 429.351064 220.46087 
" clip-path="url(#p57ff1a138f)" style="fill: none; stroke: #000000; stroke-width: 1.5; stroke-linecap: round"/>
   </g>
   <g id="legend_21"/>
  </g>
  <g id="axes_22">
   <g id="line2d_22">
    <path d="M 500.585106 220.46087 
L 499.122849 219.524216 
L 488.441716 213.780557 
L 484.956272 212.025106 
L 483.494303 211.367835 
L 479.720321 209.687612 
L 475.851064 208.234905 
L 471.216366 207.177452 
L 467.472706 206.889972 
L 465.319821 206.891627 
L 462.597901 207.302947 
L 460.084992 208.144772 
L 458.361455 209.054486 
L 456.307336 210.559443 
L 454.967421 211.819903 
L 453.471033 213.749201 
L 452.579279 215.257958 
L 451.894087 216.797643 
L 451.421538 218.294601 
L 451.165828 219.653261 
L 451.129226 220.846251 
L 451.312057 221.970357 
L 451.712697 222.990192 
L 452.327591 223.76394 
L 453.151282 224.33676 
L 454.561434 224.852285 
L 455.840803 225.10253 
L 458.361455 225.317416 
L 461.94847 225.339977 
L 472.751066 224.05832 
L 478.178743 223.275265 
L 481.246628 222.811955 
L 497.525671 220.803448 
L 499.122849 220.680552 
L 500.585106 220.46087 
L 500.585106 220.46087 
" clip-path="url(#p2639ea670b)" style="fill: none; stroke: #000000; stroke-width: 1.5; stroke-linecap: round"/>
   </g>
   <g id="legend_22"/>
  </g>
  <g id="axes_23">
   <g id="line2d_23">
    <path d="M 571.819149 220.46087 
L 571.381041 220.220132 
L 565.638385 216.909574 
L 560.987701 214.444137 
L 555.463465 212.002632 
L 552.480671 211.049491 
L 550.954363 210.680542 
L 547.862021 210.141973 
L 543.21585 209.862081 
L 537.979898 210.099826 
L 535.856086 210.343511 
L 531.319034 211.241376 
L 529.595497 211.785645 
L 527.541379 212.707875 
L 526.201464 213.51765 
L 525.046913 214.441632 
L 524.087975 215.48063 
L 523.333161 216.596836 
L 522.789172 217.82183 
L 522.460834 219.134029 
L 522.351064 220.656862 
L 522.460834 221.585982 
L 522.789172 222.513887 
L 523.333161 223.25239 
L 524.705076 224.450634 
L 526.201464 225.456358 
L 528.027199 226.37249 
L 531.319034 227.615147 
L 533.831944 228.391872 
L 538.706748 229.271655 
L 543.21585 229.453539 
L 546.308191 229.161697 
L 548.63817 228.720071 
L 550.185104 228.356748 
L 553.236213 227.245886 
L 556.190315 225.87643 
L 560.338269 223.716504 
L 563.442022 222.194173 
L 565.638385 221.387184 
L 567.542153 220.91716 
L 570.608579 220.5502 
L 571.819149 220.46087 
L 571.819149 220.46087 
" clip-path="url(#p96d38e33bc)" style="fill: none; stroke: #000000; stroke-width: 1.5; stroke-linecap: round"/>
   </g>
   <g id="legend_23"/>
  </g>
  <g id="axes_24">
   <g id="line2d_24">
    <path d="M 643.053191 220.46087 
L 642.276126 220.081475 
L 641.590934 219.82322 
L 640.357342 219.409015 
L 639.202792 219.03443 
L 632.221743 216.952294 
L 628.850392 216.099923 
L 627.424357 215.678446 
L 625.219727 215.154472 
L 618.319149 213.698871 
L 609.213941 212.814486 
L 605.728497 212.850491 
L 603.780843 213.061878 
L 599.76587 214.116018 
L 597.435506 215.227099 
L 595.939118 216.353771 
L 594.795677 217.594129 
L 594.023214 218.867691 
L 593.633913 219.985012 
L 593.597311 220.663266 
L 593.780142 221.188112 
L 594.180782 221.592661 
L 594.567204 221.711712 
L 595.619367 221.651999 
L 602.553077 220.854735 
L 606.403433 220.507385 
L 610.675909 220.172703 
L 616.766086 219.939677 
L 632.221743 219.874585 
L 637.862877 220.002428 
L 643.053191 220.46087 
L 643.053191 220.46087 
" clip-path="url(#p58e849b74d)" style="fill: none; stroke: #000000; stroke-width: 1.5; stroke-linecap: round"/>
   </g>
   <g id="legend_24"/>
  </g>
  <g id="axes_25">
   <g id="line2d_25">
    <path d="M 144.414894 291.365217 
L 139.691112 289.695571 
L 137.711192 288.943422 
L 127.324091 285.476639 
L 125.076415 284.836777 
L 118.903936 283.464608 
L 117.353172 283.234117 
L 113.529745 282.889897 
L 111.302493 282.854458 
L 108.451831 282.993699 
L 106.427688 283.257527 
L 103.914779 283.850048 
L 100.622944 285.132344 
L 98.797208 286.165809 
L 97.30082 287.373099 
L 96.409066 288.329592 
L 95.542484 289.600001 
L 95.056579 290.720577 
L 94.959013 291.525922 
L 95.141844 291.999498 
L 95.542484 292.450215 
L 96.157379 292.853858 
L 97.30082 293.277237 
L 99.223805 293.698599 
L 101.65051 293.959305 
L 105.778257 294.169413 
L 115.811594 293.844526 
L 121.233914 293.509556 
L 134.84052 292.169758 
L 141.355458 291.435437 
L 144.414894 291.365217 
L 144.414894 291.365217 
" clip-path="url(#p6b50c9fba5)" style="fill: none; stroke: #000000; stroke-width: 1.5; stroke-linecap: round"/>
   </g>
   <g id="legend_25"/>
  </g>
  <g id="axes_26">
   <g id="line2d_26">
    <path d="M 215.648936 291.365217 
L 214.438366 290.741728 
L 210.925154 288.97578 
L 208.945235 288.036897 
L 206.680966 287.023074 
L 202.143914 285.33953 
L 200.020102 284.606827 
L 192.467957 282.896748 
L 189.36183 282.656297 
L 186.280196 282.620144 
L 182.536535 282.95411 
L 178.999178 283.492338 
L 177.661731 283.757069 
L 175.148822 284.485463 
L 170.904633 286.281046 
L 168.8767 287.572933 
L 167.391421 288.87803 
L 166.776527 289.661793 
L 166.375886 290.405303 
L 166.193056 291.138931 
L 166.229658 291.808638 
L 166.485368 292.445368 
L 166.957916 292.960014 
L 167.917762 293.500334 
L 169.240287 294.013467 
L 170.904633 294.439594 
L 175.755224 295.296305 
L 178.999178 295.516514 
L 184.014316 295.496582 
L 190.137979 295.134213 
L 193.242573 294.827705 
L 196.310458 294.441888 
L 202.143914 293.415202 
L 209.468173 291.938222 
L 212.5895 291.494766 
L 214.871871 291.346938 
L 215.648936 291.365217 
L 215.648936 291.365217 
" clip-path="url(#p9480564e19)" style="fill: none; stroke: #000000; stroke-width: 1.5; stroke-linecap: round"/>
   </g>
   <g id="legend_26"/>
  </g>
  <g id="axes_27">
   <g id="line2d_27">
    <path d="M 286.882979 291.365217 
L 286.578462 291.156712 
L 284.528967 289.919257 
L 281.206844 288.097879 
L 277.308605 286.093681 
L 269.792176 282.587655 
L 267.5445 281.735325 
L 264.476615 280.763567 
L 261.372021 280.128577 
L 259.048939 279.83437 
L 256.753372 279.730069 
L 254.505697 279.80115 
L 250.919916 280.376427 
L 248.895773 280.907662 
L 246.382864 281.833815 
L 244.118595 282.960047 
L 242.138675 284.254024 
L 240.474329 285.662888 
L 239.151805 287.154277 
L 238.191959 288.606 
L 237.719411 289.704067 
L 237.463701 290.765342 
L 237.427098 291.624519 
L 237.609929 292.346338 
L 238.010569 292.995195 
L 238.877151 293.849965 
L 240.110743 294.720085 
L 242.138675 295.775467 
L 245.217319 296.997033 
L 246.989267 297.564252 
L 248.895773 297.974016 
L 251.617693 298.327893 
L 253.770578 298.432498 
L 257.514239 298.250728 
L 259.821257 297.913675 
L 262.148936 297.43809 
L 266.018193 296.342008 
L 269.792176 294.969392 
L 276.687242 292.255379 
L 279.638545 291.346146 
L 281.692664 290.970217 
L 283.438566 290.865914 
L 284.848718 290.899586 
L 286.882979 291.365217 
L 286.882979 291.365217 
" clip-path="url(#pde20e7587a)" style="fill: none; stroke: #000000; stroke-width: 1.5; stroke-linecap: round"/>
   </g>
   <g id="legend_27"/>
  </g>
  <g id="axes_28">
   <g id="line2d_28">
    <path d="M 358.117021 291.365217 
L 357.134924 290.880561 
L 355.421172 290.137291 
L 354.266622 289.61518 
L 347.285573 286.541467 
L 334.936042 281.728291 
L 328.748281 280.285486 
L 325.739739 279.975091 
L 323.559906 280.035711 
L 322.153958 280.100367 
L 320.792327 280.24516 
L 318.844673 280.652977 
L 316.451361 281.500974 
L 314.8297 282.358401 
L 312.499336 284.063695 
L 311.344785 285.281564 
L 310.385848 286.601442 
L 309.631034 288.028773 
L 308.843971 290.166677 
L 308.661141 291.099422 
L 308.697743 291.809672 
L 308.953453 292.312965 
L 309.426002 292.680823 
L 310.111194 292.816726 
L 312.499336 293.054887 
L 318.844673 293.416344 
L 323.559906 293.147515 
L 326.482401 292.932469 
L 352.440886 290.828649 
L 354.266622 290.897327 
L 357.678913 291.253222 
L 358.117021 291.365217 
L 358.117021 291.365217 
" clip-path="url(#p398f443480)" style="fill: none; stroke: #000000; stroke-width: 1.5; stroke-linecap: round"/>
   </g>
   <g id="legend_28"/>
  </g>
  <g id="axes_29">
   <g id="line2d_29">
    <path d="M 429.351064 291.365217 
L 428.573998 291.077708 
L 426.655215 290.382467 
L 411.517599 284.724909 
L 405.393936 283.400312 
L 402.289342 283.112739 
L 399.221457 283.072921 
L 395.511813 283.372468 
L 391.363859 283.997658 
L 388.850949 284.636102 
L 384.606761 286.264766 
L 382.942415 287.234333 
L 381.61989 288.2693 
L 380.660044 289.279745 
L 380.187496 290.054088 
L 379.931786 290.857549 
L 379.895183 291.604968 
L 380.078014 292.306548 
L 380.478655 292.888914 
L 381.093549 293.397969 
L 382.578828 294.253245 
L 384.159975 294.900623 
L 388.260105 296.19864 
L 390.714427 296.674273 
L 395.511813 297.092183 
L 399.982324 297.063098 
L 403.063958 296.84897 
L 406.9447 296.340561 
L 410.012585 295.772919 
L 415.148264 294.51687 
L 425.906651 291.823044 
L 427.888806 291.500526 
L 429.351064 291.365217 
L 429.351064 291.365217 
" clip-path="url(#p53864cfe36)" style="fill: none; stroke: #000000; stroke-width: 1.5; stroke-linecap: round"/>
   </g>
   <g id="legend_29"/>
  </g>
  <g id="axes_30">
   <g id="line2d_30">
    <path d="M 500.585106 291.365217 
L 496.30811 288.959985 
L 487.76678 285.238512 
L 484.956272 284.193852 
L 482.751642 283.513357 
L 477.404127 282.11664 
L 473.523385 281.592253 
L 470.4555 281.44293 
L 466.745855 281.57713 
L 463.935348 281.922121 
L 461.312758 282.53545 
L 457.820723 283.912503 
L 456.307336 284.732348 
L 454.967421 285.629143 
L 453.471033 286.964782 
L 452.327591 288.32785 
L 451.555129 289.618266 
L 451.226792 290.535285 
L 451.117021 291.48668 
L 451.312057 292.384854 
L 451.712697 293.110784 
L 452.327591 293.655604 
L 453.151282 294.006793 
L 454.561434 294.261517 
L 456.307336 294.338032 
L 460.084992 294.182118 
L 463.935348 293.868177 
L 478.951061 292.464055 
L 484.229422 292.15635 
L 497.525671 291.43545 
L 499.603009 291.420378 
L 500.585106 291.365217 
L 500.585106 291.365217 
" clip-path="url(#p0563a539e3)" style="fill: none; stroke: #000000; stroke-width: 1.5; stroke-linecap: round"/>
   </g>
   <g id="legend_30"/>
  </g>
  <g id="axes_31">
   <g id="line2d_31">
    <path d="M 571.819149 291.365217 
L 571.381041 291.196579 
L 570.082238 290.635004 
L 566.143014 289.163496 
L 562.244776 287.917599 
L 556.190315 286.478287 
L 554.728346 286.212785 
L 552.480671 285.829028 
L 546.308191 285.273047 
L 544.757427 285.261679 
L 540.934 285.425483 
L 536.553863 285.819706 
L 532.546801 286.551034 
L 526.201464 288.510137 
L 523.813321 289.719346 
L 522.789172 290.534844 
L 522.399871 291.118765 
L 522.363269 291.468989 
L 522.546099 291.791237 
L 522.94674 292.107788 
L 523.813321 292.445718 
L 525.795476 292.926987 
L 529.054765 293.357804 
L 531.319034 293.542621 
L 535.169391 293.569514 
L 547.085106 293.191682 
L 571.819149 291.365217 
L 571.819149 291.365217 
" clip-path="url(#paede44c559)" style="fill: none; stroke: #000000; stroke-width: 1.5; stroke-linecap: round"/>
   </g>
   <g id="legend_31"/>
  </g>
  <g id="axes_32">
   <g id="line2d_32">
    <path d="M 643.053191 291.365217 
L 642.615084 291.011022 
L 641.590934 290.289662 
L 637.377056 288.045246 
L 631.572312 285.462506 
L 627.424357 283.627978 
L 617.542234 279.146409 
L 615.219151 278.384594 
L 613.684452 277.985134 
L 610.675909 277.501381 
L 605.728497 277.678093 
L 603.780843 278.122629 
L 601.387532 279.061067 
L 599.76587 280.049232 
L 597.862103 281.643232 
L 596.644542 283.002287 
L 595.619367 284.515488 
L 594.795677 286.153073 
L 594.180782 287.877062 
L 593.780142 289.537314 
L 593.597311 290.951701 
L 593.633913 292.052579 
L 593.889623 292.722282 
L 594.180782 293.010464 
L 594.567204 293.154316 
L 595.619367 293.158305 
L 605.065986 292.078573 
L 607.787906 291.636291 
L 610.675909 291.13512 
L 615.219151 290.417912 
L 618.319149 290.123664 
L 625.962388 289.616184 
L 630.234865 289.507246 
L 632.857454 289.55468 
L 637.862877 289.918146 
L 640.69918 290.518292 
L 642.858156 291.249039 
L 643.053191 291.365217 
L 643.053191 291.365217 
" clip-path="url(#p375aa624b4)" style="fill: none; stroke: #000000; stroke-width: 1.5; stroke-linecap: round"/>
   </g>
   <g id="legend_32"/>
  </g>
 </g>
 <defs>
  <clipPath id="p01fff99e02">
   <rect x="90" y="43.2" width="59.361702" height="59.086957"/>
  </clipPath>
  <clipPath id="p17305ce92e">
   <rect x="161.234043" y="43.2" width="59.361702" height="59.086957"/>
  </clipPath>
  <clipPath id="pfd808df4ad">
   <rect x="232.468085" y="43.2" width="59.361702" height="59.086957"/>
  </clipPath>
  <clipPath id="p422239bbc5">
   <rect x="303.702128" y="43.2" width="59.361702" height="59.086957"/>
  </clipPath>
  <clipPath id="p2ddc2ca63b">
   <rect x="374.93617" y="43.2" width="59.361702" height="59.086957"/>
  </clipPath>
  <clipPath id="p258f98abb0">
   <rect x="446.170213" y="43.2" width="59.361702" height="59.086957"/>
  </clipPath>
  <clipPath id="pb7a13577b0">
   <rect x="517.404255" y="43.2" width="59.361702" height="59.086957"/>
  </clipPath>
  <clipPath id="pdb0bdf3276">
   <rect x="588.638298" y="43.2" width="59.361702" height="59.086957"/>
  </clipPath>
  <clipPath id="p588d86c33d">
   <rect x="90" y="114.104348" width="59.361702" height="59.086957"/>
  </clipPath>
  <clipPath id="pb609ae7d14">
   <rect x="161.234043" y="114.104348" width="59.361702" height="59.086957"/>
  </clipPath>
  <clipPath id="p297bf6bcbc">
   <rect x="232.468085" y="114.104348" width="59.361702" height="59.086957"/>
  </clipPath>
  <clipPath id="p327d6a19d9">
   <rect x="303.702128" y="114.104348" width="59.361702" height="59.086957"/>
  </clipPath>
  <clipPath id="pc4006d67e4">
   <rect x="374.93617" y="114.104348" width="59.361702" height="59.086957"/>
  </clipPath>
  <clipPath id="pbbb8ec4b5d">
   <rect x="446.170213" y="114.104348" width="59.361702" height="59.086957"/>
  </clipPath>
  <clipPath id="p5081cd7481">
   <rect x="517.404255" y="114.104348" width="59.361702" height="59.086957"/>
  </clipPath>
  <clipPath id="p5c37050209">
   <rect x="588.638298" y="114.104348" width="59.361702" height="59.086957"/>
  </clipPath>
  <clipPath id="p421e21bb27">
   <rect x="90" y="185.008696" width="59.361702" height="59.086957"/>
  </clipPath>
  <clipPath id="p1661691949">
   <rect x="161.234043" y="185.008696" width="59.361702" height="59.086957"/>
  </clipPath>
  <clipPath id="p15f4513cc2">
   <rect x="232.468085" y="185.008696" width="59.361702" height="59.086957"/>
  </clipPath>
  <clipPath id="pfe73da55b4">
   <rect x="303.702128" y="185.008696" width="59.361702" height="59.086957"/>
  </clipPath>
  <clipPath id="p57ff1a138f">
   <rect x="374.93617" y="185.008696" width="59.361702" height="59.086957"/>
  </clipPath>
  <clipPath id="p2639ea670b">
   <rect x="446.170213" y="185.008696" width="59.361702" height="59.086957"/>
  </clipPath>
  <clipPath id="p96d38e33bc">
   <rect x="517.404255" y="185.008696" width="59.361702" height="59.086957"/>
  </clipPath>
  <clipPath id="p58e849b74d">
   <rect x="588.638298" y="185.008696" width="59.361702" height="59.086957"/>
  </clipPath>
  <clipPath id="p6b50c9fba5">
   <rect x="90" y="255.913043" width="59.361702" height="59.086957"/>
  </clipPath>
  <clipPath id="p9480564e19">
   <rect x="161.234043" y="255.913043" width="59.361702" height="59.086957"/>
  </clipPath>
  <clipPath id="pde20e7587a">
   <rect x="232.468085" y="255.913043" width="59.361702" height="59.086957"/>
  </clipPath>
  <clipPath id="p398f443480">
   <rect x="303.702128" y="255.913043" width="59.361702" height="59.086957"/>
  </clipPath>
  <clipPath id="p53864cfe36">
   <rect x="374.93617" y="255.913043" width="59.361702" height="59.086957"/>
  </clipPath>
  <clipPath id="p0563a539e3">
   <rect x="446.170213" y="255.913043" width="59.361702" height="59.086957"/>
  </clipPath>
  <clipPath id="paede44c559">
   <rect x="517.404255" y="255.913043" width="59.361702" height="59.086957"/>
  </clipPath>
  <clipPath id="p375aa624b4">
   <rect x="588.638298" y="255.913043" width="59.361702" height="59.086957"/>
  </clipPath>
 </defs>
</svg>
